<?xml version="1.0" encoding="UTF-8"?>
<!DOCTYPE svg PUBLIC "-//W3C//DTD SVG 1.1//EN" "http://www.w3.org/Graphics/SVG/1.1/DTD/svg11.dtd">
<!-- Creator: CorelDRAW 2019 (64-Bit) -->
<svg xmlns="http://www.w3.org/2000/svg" xml:space="preserve" width="135.539mm" height="135.539mm" version="1.1" style="shape-rendering:geometricPrecision; text-rendering:geometricPrecision; image-rendering:optimizeQuality; fill-rule:evenodd; clip-rule:evenodd"
viewBox="0 0 13552.8 13552.8"
 xmlns:xlink="http://www.w3.org/1999/xlink">
 <defs>
  <style type="text/css">
   <![CDATA[
    .fil0 {fill:none}
    .fil1 {fill:#4D59A0}
    .fil3 {fill:#4C599F;fill-rule:nonzero}
    .fil4 {fill:#BF526A;fill-rule:nonzero}
    .fil2 {fill:white;fill-rule:nonzero}
   ]]>
  </style>
 </defs>
 <g id="Слой_x0020_1">
  <metadata id="CorelCorpID_0Corel-Layer"/>
  <rect class="fil0" x="-0" y="-0" width="13552.8" height="13552.8"/>
  <g id="_1485058372272">
   <g>
    <path class="fil1" d="M1666.36 5868.96l908.51 0c249.25,0 453.18,203.93 453.18,453.18l0 908.52c0,249.25 -203.93,453.18 -453.18,453.18l-908.51 0c-249.26,0 -453.18,-203.93 -453.18,-453.18l0 -908.52c0,-249.25 203.92,-453.18 453.18,-453.18z"/>
    <path class="fil2" d="M2329.03 6455.36l0 145.46 2.07 81.03 10.4 68.57c2.76,18.01 4.15,32.56 4.15,43.64l0 24.94c2.78,19.39 4.16,37.4 4.16,54.03 11.08,11.08 15.93,23.55 14.55,37.4l-2.08 41.56c6.92,6.93 16.62,31.52 29.09,73.76 12.47,42.25 20.78,63.37 24.93,63.37 12.47,0 31.87,-29.78 58.19,-89.34l95.58 -216.1c44.33,-98.35 72.72,-171.78 85.19,-220.26 0,-65.1 4.16,-109.43 12.47,-132.98 13.85,-40.17 42.25,-68.57 85.19,-85.19l31.17 -12.47c18.01,1.39 27.01,18.7 27.01,51.95 0.01,9.7 -4.15,35.33 -12.46,76.88 -11.08,55.41 -20.78,85.19 -29.1,89.34 0,15.25 -13.85,58.88 -41.56,130.91l-95.57 249.35c-33.25,87.27 -72.04,166.23 -116.37,236.88 4.16,9.7 6.23,20.09 6.23,31.16 0,16.63 -10.39,34.99 -31.16,55.08 -20.78,20.08 -32.56,32.21 -35.33,36.36 -26.32,31.86 -49.18,51.26 -68.57,58.19l-39.48 6.23c-41.56,0 -62.34,-16.63 -62.34,-49.87 0,-20.78 10.39,-41.56 31.17,-62.34l-35.33 -85.19 -12.46 -74.81c-8.32,-5.54 -16.63,-24.93 -24.94,-58.18 -6.93,-29.09 -10.39,-51.95 -10.39,-68.56 -15.24,-41.57 -24.25,-76.19 -27.02,-103.9l0.01 -1.87c-16.59,147.22 -35.71,261.44 -57.36,342.64 -2.77,15.24 -7.62,33.25 -14.55,54.03l-27.01 47.8 -51.95 24.93c-15.24,11.09 -31.17,16.63 -47.8,16.63 -33.25,0 -74.11,-56.8 -122.6,-170.39l-110.12 -259.74 -45.72 -103.89c-20.78,-47.1 -33.94,-73.41 -39.48,-78.95 -8.31,8.31 -20.09,38.09 -35.33,89.34l-45.71 155.85c-26.32,99.73 -44.33,169 -54.03,207.77l-56.11 193.24c-4.16,12.47 -12.81,20.1 -25.97,22.86 -13.17,2.78 -21.14,6.93 -23.91,12.47 -12.46,-5.54 -18.7,-16.62 -18.7,-33.24l6.24 -39.49c6.93,-45.71 13.16,-78.95 18.7,-99.73 1.39,-19.4 4.85,-45.03 10.39,-76.88 18.01,-121.91 29.79,-187.01 35.33,-195.32 12.46,-59.57 23.55,-137.83 33.24,-234.8 16.63,-164.85 29.1,-255.57 37.41,-272.2l-2.08 -22.86c0,-31.87 4.85,-60.26 14.55,-85.19 5.54,-22.17 13.85,-33.25 24.94,-33.25l4.15 0 41.56 -6.23c30.48,0 46.41,6.23 47.8,18.7l12.47 -8.32c15.24,-9.69 25.62,-17.31 31.16,-22.85 26.33,-23.55 45.03,-35.33 56.11,-35.33 12.47,1.38 18.71,13.16 18.71,35.33l-41.57 116.36c-5.53,15.24 -8.31,38.1 -8.31,68.57l43.64 137.13c15.24,47.11 32.56,91.43 51.96,132.99 9.69,34.64 16.62,60.26 20.77,76.88l68.57 166.23c42.95,105.28 72.72,161.39 89.35,168.31 6.92,-11.08 15.93,-51.95 27.01,-122.59l35.33 -224.41c2.77,-18.01 6.93,-115.67 12.46,-292.98 2.78,-74.91 14.51,-143.64 35.19,-206.2 5.98,-48.16 21.68,-90.25 47.1,-126.26l56.11 -27.02c16.63,-8.31 31.17,-12.46 43.64,-12.46 13.86,0 22.86,6.23 27.02,18.7 9.7,9.69 14.54,33.94 14.54,72.72l-8.31 91.42 -14.55 81.03 8.32 43.64z"/>
   </g>
   <path class="fil3" d="M4411.19 6734.25c34.99,16.24 66.22,37.49 93.72,63.72 23.74,22.5 45.3,52.49 64.65,89.97 19.37,37.49 29.06,83.09 29.06,136.82 0,44.99 -9.37,87.78 -28.12,128.4 -18.74,40.61 -45.3,76.21 -79.65,106.83 -34.37,30.62 -74.97,55.3 -121.83,74.03 -46.87,18.75 -98.4,28.12 -154.64,28.12l-506.07 0 0 -1180.83 487.33 0c51.23,0 98.71,8.75 142.45,26.24 43.73,17.5 81.53,41.24 113.39,71.22 31.87,29.99 56.55,64.66 74.03,104.02 17.5,39.37 26.25,81.53 26.25,126.52 0,39.99 -7.5,74.35 -22.5,103.09 -14.99,28.74 -31.24,51.86 -48.73,69.34 -21.25,21.25 -44.37,38.74 -69.35,52.49zm-477.95 -74.97l243.66 0c42.49,0 78.09,-14.06 106.84,-42.18 28.74,-28.11 43.11,-60.92 43.11,-98.4 0,-37.49 -14.37,-70.28 -43.11,-98.4 -28.75,-28.11 -64.35,-42.17 -106.84,-42.17l-243.66 0 0 281.15zm262.41 506.07c52.48,0 95.27,-16.25 128.39,-48.74 33.11,-32.49 49.67,-72.47 49.67,-119.95 0,-47.49 -16.56,-87.47 -49.67,-119.96 -33.12,-32.49 -75.91,-48.74 -128.39,-48.74l-262.41 0 0 337.38 262.41 0z"/>
   <path id="1" class="fil3" d="M5062.52 7371.52c-51.24,0 -98.09,-8.43 -140.58,-25.3 -42.49,-16.87 -79.03,-41.24 -109.65,-73.1 -30.61,-31.86 -54.36,-70.28 -71.22,-115.27 -16.87,-44.99 -25.3,-95.59 -25.3,-151.82l0 -506.07 215.54 0 0 477.95c0,56.24 16.56,101.53 49.68,135.89 33.11,34.37 75.9,51.55 128.39,51.55 52.48,0 95.27,-17.18 128.39,-51.55 33.11,-34.36 49.67,-79.65 49.67,-135.89l0 -477.95 215.55 0 0 862.19 -159.32 0 -37.49 -84.34c-21.25,17.49 -44.37,33.11 -69.35,46.86 -21.24,12.5 -46.86,23.43 -76.84,32.8 -29.99,9.38 -62.48,14.06 -97.46,14.06z"/>
   <path id="2" class="fil3" d="M6013.74 6490.59c37.48,0 71.22,5 101.21,14.99 29.99,10 55.61,20.62 76.84,31.87 23.74,13.75 45.61,29.37 65.6,46.86l37.49 -84.34 159.32 0 0 805.97c0,112.45 -35.93,203.04 -107.77,271.78 -71.85,68.72 -173.38,103.08 -304.59,103.08 -79.97,0 -144.63,-14.37 -193.99,-43.11 -49.36,-28.74 -88.4,-61.23 -117.14,-97.46 -32.49,-41.24 -56.86,-88.09 -73.1,-140.58l215.55 0c8.75,16.25 20.62,30.62 35.61,43.11 13.75,10 31.25,19.37 52.49,28.12 21.24,8.75 48.11,13.12 80.59,13.12 61.24,0 109.34,-16.56 144.33,-49.67 34.99,-33.12 52.48,-75.91 52.48,-128.39l0 -65.6c-17.49,17.49 -37.49,33.11 -59.98,46.86 -20,12.5 -43.74,23.43 -71.22,32.8 -27.49,9.38 -58.73,14.06 -93.71,14.06 -53.74,0 -104.65,-10.62 -152.76,-31.86 -48.12,-21.25 -89.97,-50.61 -125.59,-88.09 -35.61,-37.49 -63.72,-81.85 -84.34,-133.08 -20.62,-51.24 -30.93,-107.46 -30.93,-168.7 0,-61.23 10.31,-117.45 30.93,-168.69 20.62,-51.23 48.74,-95.59 84.34,-133.08 35.62,-37.49 77.47,-66.84 125.59,-88.09 48.11,-21.24 99.02,-31.86 152.76,-31.86zm-178.07 421.72c0,30 5.31,58.11 15.93,84.35 10.62,26.24 25.31,49.05 44.05,68.4 18.75,19.37 40.62,34.68 65.6,45.93 24.99,11.25 51.86,16.87 80.59,16.87 27.49,0 53.74,-5.62 78.72,-16.87 24.99,-11.25 46.86,-26.56 65.6,-45.93 18.74,-19.36 33.74,-42.17 44.98,-68.4 11.25,-26.25 16.88,-54.36 16.88,-84.35 0,-29.99 -5.63,-58.1 -16.88,-84.34 -11.24,-26.24 -26.24,-49.05 -44.98,-68.41 -18.75,-19.36 -40.62,-34.67 -65.6,-45.92 -24.99,-11.25 -51.24,-16.87 -78.72,-16.87 -28.74,0 -55.61,5.62 -80.59,16.87 -24.99,11.25 -46.86,26.56 -65.6,45.92 -18.74,19.37 -33.43,42.18 -44.05,68.41 -10.62,26.25 -15.93,54.36 -15.93,84.34z"/>
   <polygon id="3" class="fil3" points="7143.01,6977.91 6580.71,6977.91 6580.71,6790.47 7143.01,6790.47 "/>
   <path id="4" class="fil3" d="M7363.24 6293.78l187.44 0 0 206.17 187.44 0 0 196.8 -187.44 0 0 356.12c0,37.49 10.93,67.16 32.8,89.03 21.87,21.87 51.55,32.8 89.03,32.8 10,0 18.12,-0.31 24.37,-0.94 6.25,-0.62 11.87,-1.56 16.87,-2.81 5,-1.25 10,-3.12 14.99,-5.62l0 187.44c-8.74,3.75 -18.74,6.87 -29.99,9.37 -21.24,6.25 -45.61,9.37 -73.09,9.37 -42.49,0 -81.53,-7.18 -117.15,-21.55 -35.61,-14.38 -66.22,-35.31 -91.84,-62.8 -25.61,-27.49 -45.61,-59.98 -59.98,-97.46 -14.37,-37.49 -21.56,-79.97 -21.56,-127.46l0 -365.49 -131.2 0 0 -178.07 56.23 0c68.72,0 103.09,-34.36 103.09,-103.08l0 -121.83z"/>
   <path id="5" class="fil3" d="M8276.98 6490.59c10,0 18.74,0.62 26.24,1.87 7.5,1.25 14.37,2.5 20.62,3.75 6.25,1.25 12.5,2.5 18.75,3.75l0 224.92c-6.25,-1.25 -13.12,-2.5 -20.62,-3.75 -6.25,-1.25 -14.06,-2.5 -23.43,-3.75 -9.38,-1.25 -19.69,-1.88 -30.93,-1.88 -52.49,0 -95.28,17.19 -128.39,51.55 -33.12,34.37 -49.68,79.66 -49.68,135.89l0 459.21 -215.54 0 0 -862.19 159.32 0 37.49 93.71c14.99,-18.74 33.11,-35.61 54.36,-50.61 17.49,-13.74 39.05,-25.93 64.66,-36.55 25.61,-10.62 54.67,-15.93 87.15,-15.93z"/>
   <path id="6" class="fil3" d="M8787.73 6490.59c48.73,0 93.71,8.43 134.95,25.3 41.24,16.87 76.84,40.3 106.84,70.29 29.99,29.99 53.42,65.59 70.28,106.83 16.87,41.24 25.3,86.22 25.3,134.95l0 534.19 -159.32 0 -37.49 -84.34c-19.99,17.49 -41.86,33.11 -65.59,46.86 -21.25,12.5 -46.87,23.43 -76.85,32.8 -29.99,9.38 -63.72,14.06 -101.21,14.06 -93.71,0 -165.57,-22.8 -215.54,-68.41 -49.99,-45.61 -74.97,-104.02 -74.97,-175.25 0,-42.49 8.43,-81.53 25.3,-117.14 16.87,-35.62 45.3,-66.23 85.28,-91.84 39.99,-25.62 92.78,-45.62 158.38,-59.99 65.6,-14.37 147.77,-21.55 246.48,-21.55 0,-47.49 -12.81,-84.35 -38.43,-110.59 -25.62,-26.24 -59.67,-39.36 -102.15,-39.36 -28.74,0 -51.55,5 -68.41,14.99 -16.87,10 -30.3,20.62 -40.3,31.87 -11.24,13.75 -18.74,29.37 -22.49,46.86l-215.55 0c5,-39.99 16.56,-77.47 34.68,-112.46 18.12,-34.99 42.8,-65.59 74.03,-91.84 31.25,-26.24 68.41,-47.17 111.53,-62.79 43.11,-15.62 91.52,-23.43 145.26,-23.43zm-65.6 712.24c56.24,0 101.53,-16.56 135.89,-49.67 34.37,-33.12 51.55,-75.91 51.55,-128.4l0 -37.49c-63.72,0 -114.96,2.82 -153.7,8.44 -38.74,5.62 -69.03,13.75 -90.9,24.37 -21.87,10.62 -36.55,23.43 -44.05,38.42 -7.5,15 -11.25,31.87 -11.25,50.62 0,23.74 10.62,45.3 31.87,64.65 21.24,19.37 48.11,29.06 80.59,29.06z"/>
   <path id="7" class="fil3" d="M10066.96 7043.51c-10,42.49 -26.87,83.4 -50.61,122.77 -23.75,39.36 -53.11,74.34 -88.09,104.96 -34.99,30.61 -74.97,54.98 -119.96,73.09 -44.99,18.12 -93.09,27.18 -144.33,27.18 -58.73,0 -114.02,-11.56 -165.88,-34.68 -51.86,-23.11 -97.46,-54.67 -136.82,-94.65 -39.37,-39.99 -70.6,-86.53 -93.72,-139.64 -23.12,-53.11 -34.68,-110.27 -34.68,-171.5 0,-61.23 11.56,-118.4 34.68,-171.51 23.12,-53.11 54.36,-99.65 93.72,-139.63 39.36,-39.99 84.96,-71.54 136.82,-94.66 51.86,-23.11 107.15,-34.67 165.88,-34.67 51.24,0 99.34,9.06 144.33,27.18 44.99,18.12 84.97,42.49 119.96,73.09 34.99,30.62 64.34,65.6 88.09,104.96 23.74,39.37 40.61,80.28 50.61,122.77l-215.55 0c-9.99,-22.49 -23.74,-42.49 -41.24,-59.98 -14.99,-15 -34.36,-29.06 -58.1,-42.18 -23.75,-13.12 -53.11,-19.68 -88.1,-19.68 -61.23,0 -112.45,21.24 -153.69,63.72 -41.24,42.49 -61.86,99.34 -61.86,170.57 0,71.22 20.62,128.08 61.86,170.57 41.24,42.49 92.46,63.72 153.69,63.72 35,0 64.35,-6.25 88.1,-18.75 23.74,-12.49 43.11,-26.24 58.1,-41.23 17.5,-17.5 31.25,-38.12 41.24,-61.86l215.55 0z"/>
   <polygon id="8" class="fil3" points="10690.17,7362.15 10390.27,6968.54 10390.27,7362.15 10174.73,7362.15 10174.73,6181.32 10390.27,6181.32 10390.27,6856.08 10652.68,6499.96 10896.34,6499.96 10587.07,6912.3 10933.83,7362.15 "/>
   <path id="9" class="fil3" d="M11725.72 7099.74c-11.24,32.49 -28.43,64.97 -51.55,97.47 -23.11,32.49 -51.23,61.54 -84.34,87.15 -33.11,25.62 -70.59,46.55 -112.46,62.79 -41.86,16.25 -87.15,24.37 -135.89,24.37 -58.73,0 -114.02,-11.56 -165.88,-34.68 -51.86,-23.11 -97.46,-54.67 -136.82,-94.65 -39.37,-39.99 -70.6,-86.53 -93.72,-139.64 -23.12,-53.11 -34.68,-110.27 -34.68,-171.5 0,-61.23 11.56,-118.4 34.68,-171.51 23.12,-53.11 54.36,-99.65 93.72,-139.63 39.36,-39.99 84.96,-71.54 136.82,-94.66 51.86,-23.11 107.15,-34.67 165.88,-34.67 56.24,0 109.34,10.62 159.33,31.86 49.98,21.25 93.71,51.24 131.2,89.97 37.49,38.74 67.16,85.28 89.03,139.64 21.87,54.36 32.8,114.02 32.8,179 0,10 -0.62,19.68 -1.87,29.05 -1.25,9.38 -2.5,18.44 -3.75,27.18 -1.25,10 -2.5,19.37 -3.75,28.12l-599.79 0c10,42.49 31.25,78.09 63.73,106.84 32.49,28.74 76.84,43.11 133.07,43.11 28.75,0 52.8,-3.12 72.16,-9.37 19.37,-6.25 35.93,-13.75 49.68,-22.5 14.99,-9.99 27.49,-21.24 37.49,-33.74l224.91 0zm-384.24 -402.98c-56.23,0 -102.14,16.25 -137.76,48.74 -35.61,32.49 -58.42,72.47 -68.41,119.95l412.36 0c-10,-47.48 -32.81,-87.46 -68.41,-119.95 -35.62,-32.49 -81.53,-48.74 -137.77,-48.74z"/>
   <path id="10" class="fil3" d="M12273.96 6490.59c10,0 18.74,0.62 26.24,1.87 7.5,1.25 14.37,2.5 20.62,3.75 6.25,1.25 12.5,2.5 18.75,3.75l0 224.92c-6.25,-1.25 -13.12,-2.5 -20.62,-3.75 -6.25,-1.25 -14.06,-2.5 -23.43,-3.75 -9.38,-1.25 -19.69,-1.88 -30.93,-1.88 -52.49,0 -95.28,17.19 -128.39,51.55 -33.12,34.37 -49.68,79.66 -49.68,135.89l0 459.21 -215.54 0 0 -862.19 159.32 0 37.49 93.71c14.99,-18.74 33.11,-35.61 54.36,-50.61 17.49,-13.74 39.05,-25.93 64.66,-36.55 25.61,-10.62 54.67,-15.93 87.15,-15.93z"/>
  </g>
  <g id="_1485058379536">
   <path class="fil4" d="M8155.11 11032.39c1.17,4.97 1.76,9.65 1.76,13.45 0,16.67 -10.23,27.78 -30.7,33.33 -1.17,0.58 -20.76,3.8 -59.05,9.35 -100.85,14.33 -204.62,26.02 -311.04,35.09 -45.02,96.46 -100.26,253.15 -165.75,469.75 -60.51,197.61 -104.94,362.77 -133.3,495.49 -9.64,42.97 -23.97,64.31 -42.68,64.31 -11.98,0 -36.25,-6.44 -72.78,-19.01 -13.16,-3.8 -20.17,-11.69 -21.34,-23.09 1.17,11.4 1.75,-5.85 1.75,-52.33 0,-84.19 13.45,-160.78 40.05,-230.06 10.23,-25.72 21.63,-38.59 34.21,-38.59 3.5,0 10.23,1.17 20.17,3.8 9.94,2.63 18.12,4.39 24.26,4.97 15.5,-58.17 51.75,-173.35 109.33,-345.23 64.89,-194.09 100.26,-300.8 106.11,-319.5 -88.28,6.72 -176.27,20.46 -264.26,41.22 -97.63,23.97 -161.66,49.41 -192.05,76 -34.2,30.99 -51.45,61.39 -51.45,91.79 0,32.45 19,83.31 57,152.3 4.1,7.6 6.14,14.32 6.14,20.76 0,14.32 -6.72,21.34 -19.88,21.34 -9.06,0 -17.24,-5.56 -24.85,-16.37 -45.02,-64.31 -74.53,-114.59 -88.27,-150.55 -9.65,-25.14 -16.67,-61.39 -20.76,-109.04 -6.14,-69.57 51.16,-121.02 172.18,-154.05 157.57,-42.98 316.3,-71.33 476.78,-85.65 18.12,-36.25 31.57,-54.38 40.05,-54.38 13.15,0 35.37,14.04 66.93,42.1 14.91,0 60.81,-5.85 137.69,-17.25 13.74,-2.04 27.77,-12.28 42.1,-29.82 12.57,-16.66 42.39,-26.01 89.74,-28.35 25.72,-1.17 43.56,8.47 53.2,28.94 1.76,2.92 7.9,26.02 18.71,69.27z"/>
   <path id="1" class="fil4" d="M8395.4 11881.29c-139.14,177.74 -236.78,266.6 -293.49,266.6 -26.9,0 -60.81,-18.71 -102.02,-55.83 -42.98,-20.18 -64.31,-47.07 -64.31,-80.68 0,-6.43 0.59,-12.87 1.76,-19.88 10.23,-78.34 31.28,-165.17 63.14,-260.17 -21.05,-10.82 -31.57,-21.34 -31.57,-30.99 0,-7.89 5.85,-11.98 17.83,-11.98 9.36,0 18.71,2.63 28.36,7.89 50.58,-113.71 96.17,-194.68 136.52,-242.63 26.31,-31.86 49.69,-47.65 70.73,-47.65 9.65,0 33.62,8.19 71.91,24.85 -2.92,-17.25 2.05,-27.19 14.62,-30.11 0.58,0 14.03,0 40.34,0 24.85,0 37.13,4.38 37.13,12.86 0,1.76 -0.88,6.43 -2.63,14.62 -1.76,7.89 -2.63,15.49 -2.63,22.22 0,20.46 0.29,45.9 0.87,76.29 0.59,30.11 0.88,50.58 0.88,60.81 0,70.74 -19.29,120.14 -58.18,148.21 -35.37,25.72 -75.41,38.59 -119.85,38.59 -23.38,0 -61.97,-6.44 -116.34,-19.01 -9.65,17.54 -20.46,52.04 -32.45,103.48 -16.08,64.89 -23.39,122.49 -22.22,172.77 0.59,29.53 9.94,44.44 28.36,44.44 6.72,0 15.49,-1.76 26.6,-5.27 66.06,-23.09 158.44,-94.41 276.54,-213.39 7.6,-7.31 14.91,-11.11 22.22,-11.11 10.82,0 16.37,5.27 16.37,15.5 0,6.14 -2.92,12.86 -8.48,19.58zm-100.26 -378.84c0,-22.22 -4.97,-33.33 -14.62,-33.33 -6.14,0 -15.49,4.68 -27.48,13.74 -56.13,45.02 -105.23,124.23 -147.62,237.07 11.4,1.75 31.28,3.51 59.93,5.26 46.19,1.76 80.67,-8.77 103.48,-31.57 16.95,-17.25 26.31,-45.61 28.06,-84.77 -1.17,28.94 -1.75,-6.43 -1.75,-106.4z"/>
   <path id="2" class="fil4" d="M9225 12217.47c-53.2,82.14 -96.17,123.36 -128.62,123.36 -40.05,0 -97.34,-53.79 -171.89,-161.07 -74.53,-107.57 -138.56,-228.01 -191.46,-361.6 -68.11,84.18 -115.18,182.7 -141.49,295.54 -6.43,25.14 -13.74,37.71 -22.22,37.71 -3.5,0 -10.23,-2.05 -20.75,-6.14 -47.36,-20.46 -71.03,-41.22 -71.03,-62.27 0,-2.92 3.51,-22.22 10.23,-57.59 65.77,-362.77 151.42,-672.64 257.24,-929.59 78.93,-192.05 149.97,-317.16 213.4,-375.34 16.07,-15.49 31.86,-23.09 47.36,-23.09 15.78,0 36.54,9.35 61.68,28.35 28.36,23.39 57.01,47.07 85.65,70.45 7.89,5.85 11.98,12.28 11.98,19 0,10.23 -6.43,15.5 -19.58,15.5 -6.44,0 -12.57,-1.76 -19.01,-4.97 -26.31,-13.16 -45.89,-19.59 -59.05,-19.59 -35.96,0 -75.41,34.79 -118.1,104.36 -153.76,250.52 -264.26,577.04 -331.49,979.86 13.74,-28.07 44.73,-81.26 93.54,-160.2 -6.14,-19.88 -9.35,-31.86 -9.35,-35.08 0,-13.74 19.29,-24.26 57.88,-31.87 77.17,-113.12 140.32,-189.13 189.73,-228 17.54,-13.74 31.28,-20.47 40.92,-20.47 9.65,0 27.48,14.03 53.5,42.1 40.93,16.37 61.4,36.83 61.4,61.39 0,8.19 -1.17,18.42 -3.51,30.99 -10.82,47.36 -26.02,88.86 -46.19,124.82 -10.24,19 -21.05,28.36 -32.45,28.36 -7.9,0 -20.47,-3.22 -37.42,-9.36 -32.45,-11.4 -48.83,-23.38 -48.83,-35.37 0,-7.31 5.27,-13.16 15.5,-17.25 23.68,-20.46 38.59,-61.1 44.14,-121.9 1.17,-14.32 -2.63,-21.34 -11.11,-21.34 -4.97,0 -11.69,3.22 -20.17,9.36 -62.56,45.9 -116.05,112.54 -160.78,199.65 86.82,268.94 185.92,437.32 296.71,505.13 13.74,7.9 27.78,11.99 42.1,11.99 20.46,0 36.25,-6.14 47.07,-18.42 10.81,-12.28 20.75,-18.42 29.23,-18.42 7.9,0 11.99,4.39 11.99,12.87 0,5.26 -2.34,11.1 -6.73,18.12z"/>
   <path id="3" class="fil4" d="M9826.02 10796.49c7.31,5.85 11.11,11.7 11.11,17.83 0,10.82 -6.43,16.38 -19.59,16.38 -5.85,0 -11.69,-1.76 -18.13,-4.97 -26.31,-13.16 -45.89,-19.59 -59.05,-19.59 -35.96,0 -75.41,34.79 -118.39,104.36 -155.22,252.85 -265.72,579.37 -331.49,979.86 -1.75,11.11 -4.68,25.43 -8.48,43.85 13.16,-13.74 32.45,-35.96 58.18,-66.65 14.91,-17.83 25.73,-26.6 32.74,-26.6 14.91,0 15.79,8.77 3.22,26.6 -54.67,78.05 -91.2,159.61 -108.74,245.26 -6.43,21.05 -14.33,31.57 -23.98,31.57 -4.67,0 -10.81,-2.63 -18.12,-7.6 -29.24,-19.58 -45.9,-30.98 -49.7,-34.2 -11.4,-11.4 -17.25,-26.31 -17.25,-44.73 0,-9.06 1.46,-20.17 4.39,-33.33 66.06,-363.35 151.71,-672.92 256.07,-928.41 78.92,-192.93 149.38,-317.75 211.64,-374.76 17.25,-16.08 34.5,-23.68 51.45,-23.1 15.5,0.59 35.67,10.24 60.23,28.95 27.77,22.8 55.83,45.89 83.89,69.27z"/>
   <path id="4" class="fil4" d="M10104.01 11532.26c-79.5,365.99 -154.05,639.61 -223.62,821.14 -134.76,352.83 -289.69,529.4 -464.5,529.4 -102.31,0 -212.22,-55.55 -329.73,-166.34 -10.23,-9.64 -15.49,-19.88 -15.49,-30.69 0,-17.25 7.89,-25.73 23.97,-25.73 7.89,0 15.78,3.22 23.09,9.36 93.25,79.21 176.28,118.68 249.35,118.68 134.18,0 256.08,-111.96 365.7,-335.58 86.23,-175.4 161.36,-410.43 225.37,-705.66 4.1,-21.05 10.53,-53.5 19.59,-96.76 -59.93,97.63 -126.87,193.51 -201.11,288.23 -71.62,91.5 -127.75,154.06 -168.97,188.26 -22.8,19 -40.93,28.36 -54.67,28.36 -10.81,0 -22.21,-6.14 -33.62,-18.13 -11.98,-15.2 -24.26,-30.4 -36.83,-45.31 -5.56,-6.72 -8.48,-13.16 -8.48,-19 0,-0.29 0,-0.88 0,-1.46 1.17,-7.02 6.14,-11.7 15.5,-14.62 27.18,-37.13 52.91,-117.51 76.87,-240.87 18.13,-97.34 30.7,-189.43 37.42,-276.83 1.17,-20.76 -1.46,-30.99 -7.6,-30.99 -1.75,0 -15.2,10.52 -40.05,31.28 -39.76,34.2 -61.39,51.16 -64.89,51.16 -7.89,0 -11.99,-4.09 -11.99,-11.99 0,-4.09 1.76,-8.18 5.27,-11.98 9.64,-12.28 30.98,-42.39 64.59,-90.33 30.12,-42.97 50.29,-64.6 60.52,-64.6 7.89,0 18.71,3.51 32.45,10.53 28.94,-4.68 45.02,-7.02 48.53,-7.02 19.29,0 28.94,14.91 28.94,44.44 0,49.7 -14.32,147.04 -42.68,291.74 -28.36,144.99 -51.45,238.53 -69.57,280.63 57.01,-45.02 131.55,-133.59 223.04,-265.43 89.16,-128.62 144.7,-225.38 166.33,-290.57 1.17,-38.3 9.36,-57.3 24.85,-57.3 11.99,0 34.5,12.28 66.94,36.84 18.42,13.74 23.39,39.46 15.49,77.16z"/>
   <path class="fil3" d="M10338.48 11812.48l0 78.8 37.09 0 0 52.67 -37.09 0 0 105.35 37.09 0 0 52.68 -70.79 0c-5.62,0 -10.54,-2.04 -14.75,-6.11 -4.21,-4.07 -6.32,-8.92 -6.32,-14.54l0 -137.38 -26.13 0 0 -52.67 26.13 0 0 -78.8 54.78 0z"/>
   <path id="1" class="fil3" d="M10417.72 11912.35c0,-5.9 2.03,-10.89 6.11,-14.96 4.07,-4.08 9.06,-6.11 14.96,-6.11l170.67 0c5.62,0 10.46,2.03 14.54,6.11 4.07,4.07 6.11,9.06 6.11,14.96l0 89.75c0,5.62 -2.04,10.54 -6.11,14.75 -4.08,4.22 -9.06,6.32 -14.96,6.32l-136.96 0 0 26.13 158.03 0 0 52.68 -191.31 0c-5.9,0 -10.89,-2.04 -14.96,-6.11 -4.08,-4.07 -6.11,-9.06 -6.11,-14.96l0 -168.56zm54.36 31.6l0 26.55 103.66 0 0 -26.55 -103.66 0z"/>
   <path id="2" class="fil3" d="M10680.67 11912.35c0,-5.9 2.03,-10.89 6.11,-14.96 4.07,-4.08 9.06,-6.11 14.96,-6.11l170.25 0c5.9,0 10.88,2.03 14.96,6.11 4.07,4.07 6.11,9.06 6.11,14.96l0 44.67 -54.37 0 0 -13.07 -103.66 0 0 105.35 103.66 0 0 -13.06 54.37 0 0 44.67c0,5.9 -2.04,10.89 -6.11,14.96 -4.08,4.07 -9.06,6.11 -14.96,6.11l-170.25 0c-5.9,0 -10.89,-2.04 -14.96,-6.11 -4.08,-4.07 -6.11,-9.06 -6.11,-14.96l0 -168.56z"/>
   <path id="3" class="fil3" d="M10997.97 12101.97l-54.36 0 0 -289.5 54.36 0 0 99.87c0,-5.62 2.11,-10.54 6.32,-14.75 4.22,-4.22 9.13,-6.32 14.75,-6.32l98.19 0c5.9,0 10.88,2.1 14.96,6.32 4.07,4.21 6.11,9.13 6.11,14.75l0 189.63 -54.37 0 0 -158.03 -64.89 0c-5.62,0 -10.53,2.04 -14.75,6.11 -4.21,4.08 -6.32,9.07 -6.32,14.97l0 136.95z"/>
   <path id="4" class="fil3" d="M11243.22 12101.97l-54.36 0 0 -210.69 54.36 0 0 21.07c0,-5.62 2.11,-10.54 6.32,-14.75 4.22,-4.22 9.13,-6.32 14.75,-6.32l98.19 0c5.9,0 10.88,2.1 14.96,6.32 4.07,4.21 6.11,9.13 6.11,14.75l0 189.63 -54.37 0 0 -158.03 -64.89 0c-5.62,0 -10.53,2.04 -14.75,6.11 -4.21,4.08 -6.32,9.07 -6.32,14.97l0 136.95z"/>
   <path id="5" class="fil3" d="M11592.13 11943.95l-103.66 0 0 105.35 103.66 0 0 -105.35zm54.37 136.96c0,5.9 -2.04,10.89 -6.11,14.96 -4.08,4.07 -9.06,6.11 -14.96,6.11l-170.25 0c-5.9,0 -10.89,-2.04 -14.96,-6.11 -4.08,-4.07 -6.11,-9.06 -6.11,-14.96l0 -168.14c0,-5.9 2.03,-10.96 6.11,-15.17 4.07,-4.22 9.06,-6.32 14.96,-6.32l170.25 0c5.9,0 10.88,2.1 14.96,6.32 4.07,4.21 6.11,9.13 6.11,14.75l0 168.56z"/>
   <path id="6" class="fil3" d="M11751.42 11812.48l0 236.82 18.97 0 0 52.68 -52.26 0c-5.9,0 -10.89,-2.04 -14.96,-6.11 -4.08,-4.07 -6.11,-8.92 -6.11,-14.54l0 -268.85 54.36 0z"/>
   <path id="7" class="fil3" d="M11978.97 11943.95l-103.66 0 0 105.35 103.66 0 0 -105.35zm54.37 136.96c0,5.9 -2.04,10.89 -6.11,14.96 -4.08,4.07 -9.06,6.11 -14.96,6.11l-170.25 0c-5.9,0 -10.89,-2.04 -14.96,-6.11 -4.08,-4.07 -6.11,-9.06 -6.11,-14.96l0 -168.14c0,-5.9 2.03,-10.96 6.11,-15.17 4.07,-4.22 9.06,-6.32 14.96,-6.32l170.25 0c5.9,0 10.88,2.1 14.96,6.32 4.07,4.21 6.11,9.13 6.11,14.75l0 168.56z"/>
   <path id="8" class="fil3" d="M12202.74 12049.3c5.9,0 10.96,-2.11 15.17,-6.32 4.22,-4.21 6.32,-9.13 6.32,-14.75l0 -84.28 -85.96 0 0 105.35 64.47 0zm-98.6 131.48c-5.62,0 -10.4,-2.04 -14.33,-6.11 -3.94,-4.08 -5.9,-9.06 -5.9,-14.96l0 -44.68 54.36 0 0 13.07 85.96 0 0 -47.2c0,5.62 -2.1,10.53 -6.32,14.75 -4.21,4.21 -9.13,6.32 -14.75,6.32l-98.18 0c-5.9,0 -10.89,-2.11 -14.96,-6.32 -4.08,-4.22 -6.11,-9.13 -6.11,-14.75l0 -168.56c0,-5.62 2.03,-10.54 6.11,-14.75 4.07,-4.22 9.06,-6.32 14.96,-6.32l98.18 0c5.62,0 10.54,2.03 14.75,6.11 4.22,4.07 6.32,9.06 6.32,14.96l0 -21.07 54.37 0 0 268.43c0,5.9 -2.11,10.88 -6.32,14.96 -4.22,4.07 -9.13,6.11 -14.75,6.11l-153.39 0z"/>
   <path id="9" class="fil3" d="M12329.16 11817.53c0,-3.37 1.68,-5.05 5.05,-5.05l44.25 0c3.38,0 5.06,1.68 5.06,5.05l0 42.57c0,3.37 -1.68,5.06 -5.06,5.06l-44.25 0c-3.37,0 -5.05,-1.69 -5.05,-5.06l0 -42.57zm54.36 284.45l-54.36 0 0 -210.69 54.36 0 0 210.69z"/>
   <path id="10" class="fil3" d="M12434.09 11912.35c0,-5.9 2.03,-10.89 6.11,-14.96 4.07,-4.08 9.06,-6.11 14.96,-6.11l170.67 0c5.62,0 10.46,2.03 14.54,6.11 4.07,4.07 6.11,9.06 6.11,14.96l0 89.75c0,5.62 -2.04,10.54 -6.11,14.75 -4.08,4.22 -9.06,6.32 -14.96,6.32l-136.96 0 0 26.13 158.03 0 0 52.68 -191.31 0c-5.9,0 -10.89,-2.04 -14.96,-6.11 -4.08,-4.07 -6.11,-9.06 -6.11,-14.96l0 -168.56zm54.36 31.6l0 26.55 103.66 0 0 -26.55 -103.66 0z"/>
   <path id="11" class="fil3" d="M12718.11 12101.97c-5.9,0 -10.89,-2.04 -14.96,-6.11 -4.08,-4.07 -6.11,-9.06 -6.11,-14.96l0 -44.67 54.36 0 0 13.06 103.66 0 0 -26.13 -136.95 0c-5.9,0 -10.89,-2.1 -14.96,-6.32 -4.08,-4.21 -6.11,-9.13 -6.11,-14.75l0 -89.75c0,-5.62 2.03,-10.54 6.11,-14.75 4.07,-4.22 9.06,-6.32 14.96,-6.32l33.29 0 136.96 0c5.9,0 10.88,2.1 14.96,6.32 4.07,4.21 6.11,9.13 6.11,14.75l0 45.09 -54.37 0 0 -13.49 -103.66 0 0 26.55 136.96 0c5.9,0 10.88,2.04 14.96,6.11 4.07,4.08 6.11,8.92 6.11,14.54l0 90.18c0,5.62 -2.04,10.47 -6.11,14.54 -4.08,4.07 -9.06,6.11 -14.96,6.11l-170.25 0z"/>
  </g>
 </g>
</svg>
