<?xml version="1.0" encoding="UTF-8"?>
<!DOCTYPE svg PUBLIC "-//W3C//DTD SVG 1.1//EN" "http://www.w3.org/Graphics/SVG/1.1/DTD/svg11.dtd">
<!-- Creator: CorelDRAW 2019 (64-Bit) -->
<svg xmlns="http://www.w3.org/2000/svg" xml:space="preserve" width="146.619mm" height="23.915mm" version="1.1" style="shape-rendering:geometricPrecision; text-rendering:geometricPrecision; image-rendering:optimizeQuality; fill-rule:evenodd; clip-rule:evenodd"
viewBox="0 0 11079.23 1807.14"
 xmlns:xlink="http://www.w3.org/1999/xlink">
 <defs>
  <style type="text/css">
   <![CDATA[
    .fil0 {fill:#4D59A0}
    .fil2 {fill:#4C599F;fill-rule:nonzero}
    .fil1 {fill:white;fill-rule:nonzero}
   ]]>
  </style>
 </defs>
 <g id="Слой_x0020_1">
  <metadata id="CorelCorpID_0Corel-Layer"/>
  <g id="_2236661689712">
   <g>
    <path class="fil0" d="M451.25 0l904.63 0c248.19,0 451.25,203.07 451.25,451.25l0 904.63c0,248.19 -203.06,451.25 -451.25,451.25l-904.63 0c-248.19,0 -451.25,-203.06 -451.25,-451.25l0 -904.63c0,-248.19 203.07,-451.25 451.25,-451.25z"/>
    <path class="fil1" d="M1111.09 583.91l0 144.84 2.07 80.69 10.34 68.28c2.76,17.93 4.13,32.42 4.13,43.45l0 24.83c2.77,19.31 4.14,37.24 4.14,53.79 11.04,11.03 15.86,23.45 14.49,37.24l-2.07 41.38c6.89,6.9 16.55,31.38 28.96,73.45 12.42,42.07 20.69,63.1 24.82,63.1 12.42,0 31.73,-29.65 57.94,-88.96l95.17 -215.18c44.14,-97.93 72.42,-171.04 84.84,-219.32 0,-64.83 4.13,-108.96 12.42,-132.41 13.79,-40 42.06,-68.28 84.82,-84.83l31.03 -12.42c17.93,1.38 26.9,18.62 26.9,51.72 0,9.66 -4.14,35.17 -12.42,76.55 -11.03,55.17 -20.69,84.83 -28.96,88.96 0,15.18 -13.8,58.62 -41.38,130.35l-95.17 248.28c-33.11,86.9 -71.73,165.53 -115.87,235.87 4.14,9.66 6.2,20 6.2,31.03 0,16.56 -10.34,34.84 -31.03,54.84 -20.69,19.99 -32.42,32.07 -35.18,36.2 -26.21,31.73 -48.97,51.04 -68.28,57.94l-39.31 6.2c-41.38,0 -62.07,-16.55 -62.07,-49.65 0,-20.69 10.34,-41.38 31.03,-62.07l-35.17 -84.83 -12.42 -74.49c-8.28,-5.51 -16.56,-24.82 -24.83,-57.93 -6.9,-28.96 -10.34,-51.72 -10.34,-68.27 -15.17,-41.39 -24.14,-75.87 -26.9,-103.46l0.01 -1.87c-16.51,146.6 -35.55,260.32 -57.11,341.19 -2.76,15.17 -7.58,33.1 -14.49,53.79l-26.89 47.58 -51.72 24.83c-15.17,11.03 -31.03,16.55 -47.59,16.55 -33.1,0 -73.8,-56.55 -122.08,-169.66l-109.65 -258.63 -45.51 -103.45c-20.7,-46.9 -33.8,-73.1 -39.32,-78.62 -8.27,8.27 -20,37.93 -35.17,88.96l-45.52 155.18c-26.21,99.31 -44.14,168.28 -53.79,206.89l-55.87 192.43c-4.14,12.42 -12.76,20 -25.86,22.76 -13.11,2.76 -21.04,6.89 -23.8,12.42 -12.41,-5.52 -18.62,-16.56 -18.62,-33.11l6.21 -39.31c6.9,-45.52 13.1,-78.63 18.62,-99.32 1.38,-19.31 4.83,-44.83 10.34,-76.55 17.93,-121.39 29.66,-186.21 35.18,-194.49 12.41,-59.31 23.44,-137.25 33.1,-233.8 16.56,-164.14 28.97,-254.49 37.25,-271.04l-2.07 -22.76c0,-31.73 4.83,-60.01 14.49,-84.83 5.52,-22.07 13.8,-33.11 24.83,-33.11l4.13 0 41.39 -6.21c30.34,0 46.2,6.21 47.58,18.63l12.42 -8.28c15.17,-9.65 25.52,-17.24 31.03,-22.75 26.21,-23.46 44.83,-35.18 55.87,-35.18 12.41,1.38 18.62,13.1 18.62,35.18l-41.38 115.86c-5.52,15.17 -8.28,37.93 -8.28,68.27l43.45 136.55c15.18,46.9 32.42,91.04 51.73,132.42 9.65,34.49 16.55,60 20.68,76.55l68.28 165.53c42.76,104.82 72.41,160.69 88.97,167.59 6.89,-11.03 15.86,-51.73 26.89,-122.08l35.18 -223.45c2.76,-17.93 6.9,-115.18 12.42,-291.73 2.76,-74.58 14.44,-143.02 35.02,-205.32 5.96,-47.95 21.6,-89.87 46.9,-125.73l55.87 -26.89c16.55,-8.28 31.03,-12.42 43.44,-12.42 13.8,0 22.76,6.21 26.9,18.63 9.66,9.64 14.48,33.79 14.48,72.41l-8.27 91.03 -14.49 80.69 8.28 43.45z"/>
   </g>
   <path class="fil2" d="M3184.4 861.58c34.84,16.18 65.95,37.33 93.32,63.46 23.64,22.4 45.1,52.25 64.39,89.58 19.28,37.33 28.93,82.74 28.93,136.25 0,44.79 -9.33,87.41 -28,127.85 -18.66,40.43 -45.1,75.9 -79.32,106.38 -34.22,30.48 -74.65,55.06 -121.31,73.72 -46.66,18.66 -97.99,28 -153.98,28l-503.93 0 0 -1175.82 485.26 0c51.01,0 98.29,8.71 141.84,26.13 43.56,17.42 81.19,41.05 112.92,70.92 31.73,29.86 56.3,64.39 73.72,103.58 17.43,39.2 26.13,81.19 26.13,125.98 0,39.82 -7.47,74.03 -22.4,102.66 -14.92,28.62 -31.1,51.63 -48.52,69.05 -21.16,21.15 -44.18,38.58 -69.06,52.26zm-475.93 -74.66l242.63 0c42.31,0 77.76,-13.99 106.39,-41.99 28.62,-28 42.92,-60.66 42.92,-97.99 0,-37.33 -14.3,-69.99 -42.92,-97.99 -28.62,-28 -64.08,-41.99 -106.39,-41.99l-242.63 0 0 279.95zm261.3 503.93c52.26,0 94.87,-16.18 127.85,-48.53 32.97,-32.35 49.46,-72.16 49.46,-119.45 0,-47.28 -16.49,-87.1 -49.46,-119.45 -32.98,-32.35 -75.59,-48.52 -127.85,-48.52l-261.3 0 0 335.95 261.3 0z"/>
   <path id="1" class="fil2" d="M3832.97 1496.15c-51.01,0 -97.68,-8.4 -139.98,-25.19 -42.31,-16.8 -78.7,-41.06 -109.18,-72.79 -30.49,-31.73 -54.13,-69.99 -70.93,-114.78 -16.8,-44.79 -25.19,-95.19 -25.19,-151.18l0 -503.93 214.63 0 0 475.93c0,55.99 16.49,101.1 49.46,135.31 32.97,34.22 75.59,51.32 127.85,51.32 52.25,0 94.87,-17.11 127.84,-51.32 32.98,-34.22 49.46,-79.32 49.46,-135.31l0 -475.93 214.63 0 0 858.54 -158.65 0 -37.32 -83.99c-21.16,17.43 -44.18,32.98 -69.06,46.66 -21.15,12.45 -46.66,23.33 -76.52,32.67 -29.86,9.32 -62.21,13.99 -97.05,13.99z"/>
   <path id="2" class="fil2" d="M4780.17 618.95c37.33,0 70.92,4.98 100.78,14.93 29.86,9.95 55.37,20.53 76.52,31.73 23.64,13.68 45.41,29.24 65.33,46.66l37.32 -83.99 158.65 0 0 802.55c0,111.99 -35.77,202.2 -107.32,270.63 -71.54,68.43 -172.64,102.65 -303.29,102.65 -79.64,0 -144.03,-14.3 -193.17,-42.92 -49.15,-28.62 -88.03,-60.97 -116.65,-97.06 -32.35,-41.06 -56.61,-87.72 -72.78,-139.98l214.63 0c8.71,16.17 20.52,30.48 35.46,42.93 13.69,9.95 31.11,19.28 52.26,27.99 21.15,8.71 47.91,13.07 80.26,13.07 60.97,0 108.87,-16.48 143.71,-49.46 34.84,-32.97 52.26,-75.59 52.26,-127.85l0 -65.32c-17.42,17.42 -37.33,32.97 -59.73,46.65 -19.91,12.45 -43.55,23.33 -70.93,32.67 -27.37,9.33 -58.48,13.99 -93.32,13.99 -53.51,0 -104.2,-10.57 -152.11,-31.73 -47.9,-21.15 -89.58,-50.39 -125.04,-87.72 -35.46,-37.33 -63.46,-81.5 -83.99,-132.52 -20.53,-51.01 -30.79,-107 -30.79,-167.97 0,-60.97 10.26,-116.96 30.79,-167.97 20.53,-51.01 48.53,-95.19 83.99,-132.51 35.46,-37.33 77.14,-66.57 125.04,-87.72 47.91,-21.15 98.6,-31.73 152.11,-31.73zm-177.31 419.94c0,29.86 5.29,57.86 15.86,83.99 10.58,26.13 25.19,48.84 43.86,68.12 18.66,19.28 40.44,34.53 65.33,45.72 24.88,11.2 51.64,16.8 80.26,16.8 27.37,0 53.5,-5.6 78.38,-16.8 24.89,-11.2 46.66,-26.44 65.33,-45.72 18.66,-19.28 33.6,-41.99 44.79,-68.12 11.2,-26.13 16.8,-54.13 16.8,-83.99 0,-29.86 -5.6,-57.86 -16.8,-83.98 -11.2,-26.13 -26.13,-48.84 -44.79,-68.13 -18.66,-19.28 -40.43,-34.53 -65.33,-45.72 -24.88,-11.2 -51.01,-16.8 -78.38,-16.8 -28.62,0 -55.37,5.6 -80.26,16.8 -24.88,11.2 -46.66,26.44 -65.33,45.72 -18.66,19.29 -33.28,42 -43.86,68.13 -10.57,26.12 -15.86,54.12 -15.86,83.98z"/>
   <polygon id="3" class="fil2" points="5904.66,1104.21 5344.75,1104.21 5344.75,917.57 5904.66,917.57 "/>
   <path id="4" class="fil2" d="M6123.97 422.98l186.64 0 0 205.3 186.64 0 0 195.97 -186.64 0 0 354.61c0,37.33 10.89,66.88 32.66,88.66 21.78,21.77 51.33,32.66 88.66,32.66 9.95,0 18.04,-0.31 24.26,-0.94 6.23,-0.62 11.83,-1.55 16.8,-2.8 4.98,-1.25 9.96,-3.11 14.93,-5.6l0 186.64c-8.71,3.73 -18.66,6.85 -29.86,9.33 -21.15,6.22 -45.41,9.33 -72.78,9.33 -42.31,0 -81.19,-7.16 -116.65,-21.46 -35.46,-14.31 -65.95,-35.15 -91.46,-62.53 -25.5,-27.37 -45.41,-59.72 -59.72,-97.05 -14.31,-37.33 -21.47,-79.63 -21.47,-126.92l0 -363.94 -130.64 0 0 -177.31 55.99 0c68.43,0 102.65,-34.22 102.65,-102.65l0 -121.32z"/>
   <path id="5" class="fil2" d="M7033.84 618.95c9.95,0 18.66,0.63 26.12,1.87 7.47,1.25 14.31,2.49 20.53,3.73 6.23,1.25 12.45,2.49 18.66,3.73l0 223.97c-6.22,-1.25 -13.07,-2.49 -20.53,-3.73 -6.22,-1.25 -13.99,-2.49 -23.33,-3.73 -9.33,-1.25 -19.59,-1.87 -30.79,-1.87 -52.26,0 -94.88,17.11 -127.85,51.32 -32.98,34.22 -49.46,79.32 -49.46,135.31l0 457.27 -214.63 0 0 -858.54 158.64 0 37.33 93.32c14.92,-18.66 32.97,-35.46 54.12,-50.39 17.43,-13.68 38.89,-25.82 64.39,-36.39 25.51,-10.58 54.44,-15.87 86.79,-15.87z"/>
   <path id="6" class="fil2" d="M7542.43 618.95c48.53,0 93.32,8.4 134.38,25.2 41.06,16.79 76.52,40.13 106.39,69.99 29.86,29.86 53.19,65.32 69.99,106.38 16.8,41.06 25.19,85.86 25.19,134.38l0 531.92 -158.64 0 -37.33 -83.99c-19.9,17.43 -41.68,32.98 -65.33,46.66 -21.15,12.45 -46.65,23.33 -76.52,32.67 -29.86,9.32 -63.46,13.99 -100.79,13.99 -93.32,0 -164.86,-22.71 -214.63,-68.12 -49.77,-45.41 -74.65,-103.58 -74.65,-174.51 0,-42.3 8.4,-81.19 25.19,-116.65 16.8,-35.46 45.1,-65.95 84.92,-91.45 39.82,-25.51 92.39,-45.41 157.71,-59.73 65.33,-14.31 147.13,-21.46 245.43,-21.46 0,-47.29 -12.76,-83.99 -38.26,-110.12 -25.51,-26.13 -59.42,-39.2 -101.72,-39.2 -28.62,0 -51.32,4.98 -68.12,14.93 -16.8,9.95 -30.17,20.53 -40.13,31.73 -11.2,13.68 -18.66,29.24 -22.39,46.66l-214.63 0c4.97,-39.82 16.48,-77.14 34.53,-111.99 18.04,-34.84 42.62,-65.32 73.72,-91.45 31.11,-26.13 68.12,-46.97 111.05,-62.52 42.93,-15.56 91.14,-23.33 144.65,-23.33zm-65.33 709.23c55.99,0 101.1,-16.49 135.31,-49.46 34.22,-32.98 51.32,-75.6 51.32,-127.85l0 -37.33c-63.45,0 -114.47,2.8 -153.04,8.4 -38.58,5.6 -68.75,13.69 -90.52,24.26 -21.78,10.58 -36.39,23.33 -43.86,38.26 -7.47,14.93 -11.2,31.73 -11.2,50.39 0,23.64 10.57,45.1 31.72,64.39 21.16,19.29 47.91,28.93 80.26,28.93z"/>
   <path id="7" class="fil2" d="M8816.24 1169.53c-9.96,42.3 -26.75,83.05 -50.39,122.24 -23.64,39.2 -52.88,74.04 -87.72,104.52 -34.84,30.48 -74.65,54.75 -119.45,72.79 -44.79,18.04 -92.7,27.06 -143.71,27.06 -58.48,0 -113.54,-11.51 -165.18,-34.53 -51.63,-23.02 -97.06,-54.44 -136.24,-94.25 -39.2,-39.82 -70.31,-86.17 -93.32,-139.05 -23.02,-52.88 -34.53,-109.81 -34.53,-170.78 0,-60.97 11.51,-117.9 34.53,-170.78 23.02,-52.88 54.13,-99.22 93.32,-139.04 39.19,-39.82 84.61,-71.24 136.24,-94.25 51.63,-23.02 106.7,-34.53 165.18,-34.53 51.01,0 98.91,9.02 143.71,27.07 44.79,18.04 84.61,42.3 119.45,72.78 34.84,30.48 64.08,65.33 87.72,104.52 23.64,39.2 40.43,79.94 50.39,122.25l-214.63 0c-9.96,-22.4 -23.64,-42.31 -41.06,-59.73 -14.93,-14.93 -34.22,-28.93 -57.86,-41.99 -23.64,-13.07 -52.88,-19.6 -87.72,-19.6 -60.97,0 -111.99,21.15 -153.05,63.46 -41.05,42.3 -61.59,98.91 -61.59,169.84 0,70.93 20.53,127.54 61.59,169.84 41.06,42.31 92.08,63.46 153.05,63.46 34.84,0 64.08,-6.22 87.72,-18.66 23.64,-12.45 42.93,-26.13 57.86,-41.06 17.42,-17.42 31.1,-37.95 41.06,-61.59l214.63 0z"/>
   <polygon id="8" class="fil2" points="9436.81,1486.82 9138.19,1094.88 9138.19,1486.82 8923.56,1486.82 8923.56,311 9138.19,311 9138.19,982.89 9399.48,628.28 9642.12,628.28 9334.17,1038.88 9679.44,1486.82 "/>
   <path id="9" class="fil2" d="M10468 1225.52c-11.2,32.35 -28.31,64.71 -51.32,97.06 -23.02,32.35 -51.02,61.28 -83.99,86.79 -32.98,25.5 -70.3,46.34 -111.98,62.52 -41.69,16.18 -86.79,24.26 -135.31,24.26 -58.48,0 -113.54,-11.51 -165.18,-34.53 -51.63,-23.02 -97.06,-54.44 -136.24,-94.25 -39.2,-39.82 -70.31,-86.17 -93.32,-139.05 -23.02,-52.88 -34.53,-109.81 -34.53,-170.78 0,-60.97 11.51,-117.9 34.53,-170.78 23.02,-52.88 54.13,-99.22 93.32,-139.04 39.19,-39.82 84.61,-71.24 136.24,-94.25 51.63,-23.02 106.7,-34.53 165.18,-34.53 55.99,0 108.87,10.58 158.64,31.73 49.77,21.15 93.32,51.01 130.64,89.59 37.33,38.57 66.88,84.92 88.65,139.04 21.78,54.13 32.67,113.54 32.67,178.24 0,9.95 -0.63,19.59 -1.87,28.93 -1.25,9.33 -2.49,18.35 -3.73,27.07 -1.25,9.95 -2.49,19.28 -3.73,28l-597.24 0c9.95,42.3 31.1,77.76 63.45,106.38 32.35,28.62 76.52,42.93 132.52,42.93 28.62,0 52.57,-3.11 71.85,-9.33 19.28,-6.22 35.77,-13.68 49.46,-22.4 14.93,-9.95 27.38,-21.15 37.33,-33.6l223.97 0zm-382.61 -401.27c-55.99,0 -101.72,16.18 -137.18,48.53 -35.46,32.35 -58.17,72.16 -68.12,119.45l410.61 0c-9.96,-47.28 -32.67,-87.1 -68.13,-119.45 -35.46,-32.35 -81.19,-48.53 -137.17,-48.53z"/>
   <path id="10" class="fil2" d="M11013.91 618.95c9.95,0 18.66,0.63 26.12,1.87 7.47,1.25 14.31,2.49 20.53,3.73 6.23,1.25 12.45,2.49 18.66,3.73l0 223.97c-6.22,-1.25 -13.07,-2.49 -20.53,-3.73 -6.22,-1.25 -13.99,-2.49 -23.33,-3.73 -9.33,-1.25 -19.59,-1.87 -30.79,-1.87 -52.26,0 -94.88,17.11 -127.85,51.32 -32.98,34.22 -49.46,79.32 -49.46,135.31l0 457.27 -214.63 0 0 -858.54 158.64 0 37.33 93.32c14.92,-18.66 32.97,-35.46 54.12,-50.39 17.43,-13.68 38.89,-25.82 64.39,-36.39 25.51,-10.58 54.44,-15.87 86.79,-15.87z"/>
  </g>
 </g>
</svg>
