<?xml version="1.0" encoding="UTF-8"?>
<!DOCTYPE svg PUBLIC "-//W3C//DTD SVG 1.1//EN" "http://www.w3.org/Graphics/SVG/1.1/DTD/svg11.dtd">
<!-- Creator: CorelDRAW 2019 (64-Bit) -->
<svg xmlns="http://www.w3.org/2000/svg" xml:space="preserve" width="69.9024mm" height="69.9024mm" version="1.1" style="shape-rendering:geometricPrecision; text-rendering:geometricPrecision; image-rendering:optimizeQuality; fill-rule:evenodd; clip-rule:evenodd"
viewBox="0 0 7782.12 7782.12"
 xmlns:xlink="http://www.w3.org/1999/xlink">
 <defs>
  <style type="text/css">
   <![CDATA[
    .fil2 {fill:none}
    .fil1 {fill:white;fill-rule:nonzero}
    .fil0 {fill:url(#id0)}
   ]]>
  </style>
  <linearGradient id="id0" gradientUnits="userSpaceOnUse" x1="6258.88" y1="4724.12" x2="-15794.61" y2="-3378.38">
   <stop offset="0" style="stop-opacity:1; stop-color:#0092FB"/>
   <stop offset="1" style="stop-opacity:1; stop-color:#4BD1FB"/>
  </linearGradient>
 </defs>
 <g id="Слой_x0020_1">
  <metadata id="CorelCorpID_0Corel-Layer"/>
  <g id="_2964324956528">
   <polygon class="fil0" points="1079.96,3891.06 1782.72,2673.82 2485.52,1456.56 3891.06,1456.56 5296.6,1456.56 5999.4,2673.82 6702.16,3891.06 5999.4,5108.3 5296.6,6325.55 3891.06,6325.55 2485.52,6325.55 1782.72,5108.3 "/>
   <g>
    <g>
     <path class="fil1" d="M4303.42 2639.07c0,-82.04 -39.42,-126.79 -117.21,-134.25l-1295.58 0c-106.01,10.12 -135.84,61.8 -88.96,154.49l544.97 850.76 -688.28 349.47c-81.51,58.07 -76.94,131.84 27.7,199.78 714.45,463.91 1084.75,684 1217.93,684 50.08,0 134.51,-76.99 134.52,-133.43l0.29 -1889.85 141.95 -0.29c82.04,-0.18 122.66,5.62 122.66,-80.68zm-516.74 669.63l-320.17 146.51 -352.67 -691.48 674.43 -4.8 -1.59 549.77zm9.05 1087.82l-836.38 -430.96 499.7 -295.13 126.26 101.74 -38.9 -156.08 249.32 -151.3 0 931.73z"/>
     <path class="fil1" d="M3915.21 2504.82l1091.03 0c114.53,0 172.07,37.83 173.13,114 5.33,51.68 -13.85,95.36 -57.53,131.06l-725.56 678.69c0,77.25 189.65,514.62 569.48,1312.64l-757 -1143.77c-23.98,-37.82 -36.23,-78.31 -37.29,-121.99 1.07,-70.85 26.11,-132.11 74.58,-184.33l541.78 -572.67 -749.01 1.59c0,625.42 0,1250.84 0,1876.26 0,96.42 -41.55,145.43 -125.19,146.5 -80.98,6.39 -121.46,-40.48 -121.46,-140.63l0 -1975.88c4.25,-76.72 45.28,-117.21 123.05,-121.47z"/>
    </g>
    <g>
     <path class="fil1" d="M3407.69 4991.33c21.2,0 40.55,3.46 58.07,10.39 17.51,6.91 32.54,16.21 45.09,27.89 12.54,11.68 22.28,25.42 29.19,41.2 6.92,15.79 10.39,32.54 10.39,50.28 0,22.92 -4.01,42.17 -12,57.75 -8,15.57 -16.88,28.22 -26.61,37.95 -9.73,9.73 -18.7,16.75 -26.92,21.09 -8.22,4.33 -12.32,6.49 -12.32,6.49l90.82 155.7 -103.8 0 -74.61 -136.24 -48.65 0 0 136.24 -94.07 0 0 -408.73 165.43 0zm0 181.65c16.43,0 29.19,-4.32 38.27,-12.97 9.08,-8.65 13.63,-19.46 13.63,-32.44 0,-12.97 -4.54,-23.79 -13.63,-32.44 -9.08,-8.65 -21.84,-12.97 -38.27,-12.97l-71.36 0 0 90.82 71.36 0z"/>
     <polygon id="1" class="fil1" points="3706.13,5400.06 3612.06,5400.06 3612.06,4991.33 3706.13,4991.33 "/>
     <path id="2" class="fil1" d="M3965.64 5312.48c25.95,0 46.39,-6.17 61.31,-18.49 14.92,-12.32 24.76,-26.71 29.51,-43.14l97.32 6.48c-4.75,19.47 -12.55,38.06 -23.36,55.8 -10.81,17.73 -24.23,33.2 -40.22,46.39 -16.01,13.19 -34.5,23.79 -55.47,31.78 -20.97,8 -44.01,12 -69.09,12 -27.69,0 -53.74,-5.3 -78.17,-15.89 -24.44,-10.6 -45.74,-25.3 -63.91,-44.12 -18.16,-18.81 -32.54,-40.77 -43.14,-65.85 -10.6,-25.09 -15.9,-52.34 -15.9,-81.75 0,-28.98 5.3,-56.12 15.9,-81.43 10.6,-25.29 24.98,-47.36 43.14,-66.17 18.17,-18.81 39.48,-33.52 63.91,-44.11 24.44,-10.6 50.49,-15.9 78.17,-15.9 24.21,0 46.6,4 67.14,12 20.55,8 38.72,18.59 54.51,31.78 15.79,13.19 29.08,28.66 39.9,46.39 10.81,17.73 18.59,36.34 23.35,55.8l-97.31 6.49c-2.59,-8.23 -6.27,-16.01 -11.03,-23.36 -4.75,-7.36 -10.81,-13.85 -18.16,-19.47 -7.36,-5.62 -15.9,-10.16 -25.63,-13.62 -9.73,-3.46 -20.65,-5.2 -32.76,-5.2 -14.71,0 -28.54,2.93 -41.53,8.76 -12.97,5.84 -24.33,13.95 -34.06,24.33 -9.73,10.39 -17.41,22.71 -23.03,36.98 -5.62,14.27 -8.44,29.85 -8.44,46.71 0,16.87 2.82,32.44 8.44,46.71 5.62,14.27 13.3,26.6 23.03,36.98 9.73,10.38 21.09,18.49 34.06,24.33 12.98,5.83 26.82,8.76 41.53,8.76z"/>
     <polygon id="3" class="fil1" points="4432.75,5400.06 4299.76,5218.4 4299.76,5400.06 4205.68,5400.06 4205.68,4991.33 4299.76,4991.33 4299.76,5166.5 4423.02,4991.33 4530.07,4991.33 4386.04,5192.45 4539.8,5400.06 "/>
     <path class="fil1" d="M3756.12 5577.8c5.51,2.55 10.42,5.9 14.75,10.03 3.74,3.53 7.13,8.06 10.18,13.56 3.05,5.51 4.56,12.39 4.56,20.64 0,7.47 -1.47,14.51 -4.42,21.09 -2.95,6.59 -7.13,12.35 -12.54,17.26 -5.4,4.92 -11.79,8.85 -19.17,11.8 -7.37,2.95 -15.47,4.42 -24.33,4.42l-84.05 0 0 -185.8 79.63 0c8.45,0 16.22,1.38 23.29,4.13 7.08,2.75 13.13,6.49 18.15,11.21 5.01,4.72 8.94,10.18 11.79,16.37 2.85,6.19 4.28,12.83 4.28,19.91 0,6.29 -1.18,11.7 -3.54,16.22 -2.36,4.52 -4.91,8.16 -7.66,10.91 -3.35,3.34 -6.98,6.1 -10.92,8.26zm-72.25 -13.27l32.44 0c5.9,0 10.82,-1.91 14.75,-5.76 3.93,-3.83 5.9,-8.31 5.9,-13.42 0,-5.11 -1.97,-9.59 -5.9,-13.42 -3.93,-3.84 -8.85,-5.76 -14.75,-5.76l-32.44 0 0 38.34zm36.87 76.67c6.68,0 12.28,-2.2 16.81,-6.64 4.52,-4.42 6.78,-9.59 6.78,-15.49 0,-5.89 -2.26,-11.05 -6.78,-15.47 -4.53,-4.43 -10.13,-6.64 -16.81,-6.64l-36.87 0 0 44.23 36.87 0z"/>
     <path id="1" class="fil1" d="M3943.38 5583.7c0,-7.67 -1.27,-14.75 -3.83,-21.24 -2.56,-6.48 -6.05,-12.09 -10.46,-16.81 -4.43,-4.71 -9.59,-8.41 -15.49,-11.05 -5.9,-2.65 -12.19,-3.99 -18.87,-3.99 -6.69,0 -12.98,1.34 -18.88,3.99 -5.9,2.65 -11.05,6.35 -15.47,11.05 -4.43,4.72 -7.92,10.33 -10.48,16.81 -2.55,6.49 -3.83,13.57 -3.83,21.24 0,7.66 1.28,14.74 3.83,21.23 2.56,6.49 6.05,12.09 10.48,16.81 4.42,4.72 9.57,8.41 15.47,11.05 5.9,2.66 12.19,3.99 18.88,3.99 6.68,0 12.97,-1.32 18.87,-3.99 5.9,-2.65 11.05,-6.33 15.49,-11.05 4.42,-4.72 7.9,-10.32 10.46,-16.81 2.56,-6.49 3.83,-13.57 3.83,-21.23zm42.76 0c0,13.37 -2.4,25.75 -7.23,37.15 -4.81,11.41 -11.34,21.39 -19.6,29.94 -8.26,8.55 -17.95,15.24 -29.05,20.05 -11.11,4.82 -22.96,7.23 -35.54,7.23 -12.59,0 -24.44,-2.4 -35.54,-7.23 -11.11,-4.81 -20.8,-11.5 -29.06,-20.05 -8.25,-8.55 -14.8,-18.53 -19.6,-29.94 -4.82,-11.4 -7.23,-23.78 -7.23,-37.15 0,-13.18 2.4,-25.52 7.23,-37.02 4.81,-11.5 11.36,-21.53 19.6,-30.08 8.26,-8.55 17.95,-15.23 29.06,-20.05 11.1,-4.82 22.94,-7.23 35.54,-7.23 12.58,0 24.43,2.4 35.54,7.23 11.1,4.82 20.79,11.5 29.05,20.05 8.26,8.55 14.8,18.58 19.6,30.08 4.82,11.5 7.23,23.84 7.23,37.02z"/>
     <polygon id="2" class="fil1" points="4087.89,5676.59 4045.13,5676.59 4045.13,5532.08 3992.05,5532.08 3992.05,5490.79 4140.97,5490.79 4140.97,5532.08 4087.89,5532.08 "/>
    </g>
   </g>
  </g>
  <rect class="fil2" width="7782.12" height="7782.12"/>
 </g>
</svg>
