<?xml version="1.0" encoding="UTF-8"?>
<!DOCTYPE svg PUBLIC "-//W3C//DTD SVG 1.1//EN" "http://www.w3.org/Graphics/SVG/1.1/DTD/svg11.dtd">
<!-- Creator: CorelDRAW 2019 (64-Bit) -->
<svg xmlns="http://www.w3.org/2000/svg" xml:space="preserve" width="135.539mm" height="135.539mm" version="1.1" style="shape-rendering:geometricPrecision; text-rendering:geometricPrecision; image-rendering:optimizeQuality; fill-rule:evenodd; clip-rule:evenodd"
viewBox="0 0 13552.8 13552.8"
 xmlns:xlink="http://www.w3.org/1999/xlink">
 <defs>
  <style type="text/css">
   <![CDATA[
    .fil1 {fill:none}
    .fil0 {fill:#377EC0;fill-rule:nonzero}
   ]]>
  </style>
 </defs>
 <g id="Слой_x0020_1">
  <metadata id="CorelCorpID_0Corel-Layer"/>
  <g id="_1485048305040">
   <polygon class="fil0" points="3488.58,5938.95 3424.71,6411.6 3415.13,6411.6 3341.68,5938.95 3108.54,5143.74 2674.21,5143.74 2421.92,5935.76 2367.62,6411.6 2351.65,6411.6 2294.17,5932.57 2025.91,4849.94 1431.9,4849.94 2086.59,7111.01 2616.72,7111.01 2795.57,6481.87 2881.79,5967.7 2891.37,5967.7 2971.22,6485.06 3172.41,7111.01 3702.55,7111.01 4354.05,4849.94 3763.23,4849.94 "/>
   <path id="1" class="fil0" d="M4433.89 6366.9c0,517.37 469.46,776.05 938.93,776.05 469.45,0 935.73,-258.68 935.73,-776.05l0 -772.85c0,-517.37 -469.46,-776.05 -938.93,-776.05 -469.46,0 -935.73,255.49 -935.73,776.05l0 772.85zm571.65 -772.85c0,-166.07 178.85,-255.49 357.68,-255.49 185.24,0 373.66,79.83 373.66,255.49l0 772.85c0,162.88 -182.04,245.91 -364.07,245.91 -182.04,0 -367.27,-79.84 -367.27,-245.91l0 -772.85z"/>
   <path id="2" class="fil0" d="M7815.92 7111.01l712.17 0 -616.36 -776.05c274.65,-86.22 443.9,-322.55 443.9,-740.91 -12.77,-530.14 -373.65,-744.11 -839.91,-744.11l-903.79 0 0 2261.07 578.03 0 0 -718.56 102.2 0 523.75 718.56zm-625.95 -1210.37l0 -517.37 335.33 0c360.88,0 360.88,517.37 0,517.37l-335.33 0z"/>
   <polygon id="3" class="fil0" points="8675.01,7111.01 10169.61,7111.01 10169.61,6545.74 9249.85,6545.74 9249.85,4849.94 8675.01,4849.94 "/>
   <path id="4" class="fil0" d="M10396.36 4849.94l0 2261.07 846.3 0c453.49,3.19 878.24,-223.55 878.24,-744.11l0 -760.08c0,-526.94 -424.75,-756.88 -878.24,-756.88l-846.3 0zm574.84 1724.54l0 -1191.22 290.62 0c191.61,0 284.24,92.61 284.24,239.52l0 705.78c0,146.91 -89.42,245.91 -284.24,245.91l-290.62 0z"/>
   <path class="fil0" d="M5578.97 7829.68c7.21,-243.39 -171.29,-389.43 -414.69,-389.43l-512.04 0 0 1276.49 521.06 0c283.07,0 421.89,-124.4 454.34,-329.94 16.23,-97.35 -5.41,-261.43 -180.3,-349.77 91.95,-46.88 129.81,-149.65 131.62,-207.34l0 0zm-602.19 109.98l0 -227.17 187.51 0c162.27,0 156.86,227.17 0,227.17l-187.51 0zm0 494.01l0 -261.43 187.51 0c191.11,0 194.72,261.43 0,261.43l-187.51 0z"/>
   <path id="1" class="fil0" d="M5746.64 8296.66c0,292.08 265.04,438.12 530.07,438.12 265.04,0 528.27,-146.04 528.27,-438.12l0 -436.32c0,-292.08 -265.04,-438.13 -530.07,-438.13 -265.04,0 -528.27,144.24 -528.27,438.13l0 436.32zm322.73 -436.32c0,-93.75 100.96,-144.24 201.92,-144.24 104.57,0 210.95,45.08 210.95,144.24l0 436.32c0,91.95 -102.77,138.83 -205.54,138.83 -102.76,0 -207.33,-45.08 -207.33,-138.83l0 -436.32z"/>
   <polygon id="2" class="fil0" points="7893.96,7744.95 7893.96,7438.44 6889.71,7438.44 6889.71,7744.95 7228.67,7744.95 7228.67,8716.74 7555,8716.74 7555,7744.95 "/>
   <path id="3" class="fil0" d="M7958.86 8503.99c118.99,153.26 281.26,230.78 434.52,230.78 234.38,0 494,-135.22 504.82,-382.23 14.43,-313.72 -212.74,-393.04 -439.92,-434.51 -99.16,-21.64 -165.88,-57.7 -169.48,-119 5.4,-147.84 234.38,-153.25 367.8,-10.82l210.94 -162.27c-131.62,-160.46 -281.26,-203.73 -436.32,-203.73 -234.38,0 -461.55,131.62 -461.55,382.23 0,243.4 187.51,373.21 393.04,405.67 104.57,14.42 221.76,55.9 218.16,128.01 -9.02,137.02 -290.28,129.81 -418.29,-25.24l-203.73 191.1z"/>
  </g>
  <rect class="fil1" x="-0" y="-0" width="13552.8" height="13552.8"/>
 </g>
</svg>
