<?xml version="1.0" encoding="UTF-8"?>
<!DOCTYPE svg PUBLIC "-//W3C//DTD SVG 1.1//EN" "http://www.w3.org/Graphics/SVG/1.1/DTD/svg11.dtd">
<!-- Creator: CorelDRAW 2019 (64-Bit) -->
<svg xmlns="http://www.w3.org/2000/svg" xml:space="preserve" width="73.1415mm" height="22.1601mm" version="1.1" style="shape-rendering:geometricPrecision; text-rendering:geometricPrecision; image-rendering:optimizeQuality; fill-rule:evenodd; clip-rule:evenodd"
viewBox="0 0 2667.48 808.18"
 xmlns:xlink="http://www.w3.org/1999/xlink">
 <defs>
  <style type="text/css">
   <![CDATA[
    .fil0 {fill:#C35268}
    .fil1 {fill:#C35268;fill-rule:nonzero}
   ]]>
  </style>
 </defs>
 <g id="Слой_x0020_1">
  <metadata id="CorelCorpID_0Corel-Layer"/>
  <g id="_1737511015760">
   <path class="fil0" d="M115.66 0l231.86 0c63.61,0 115.65,52.04 115.65,115.66l0 231.86c0,63.61 -52.05,115.65 -115.65,115.65l-231.86 0c-63.61,0 -115.66,-52.05 -115.66,-115.65l0 -231.86c0,-63.61 52.05,-115.66 115.66,-115.66zm169.12 149.66l0 37.12 0.53 20.68 2.66 17.5c0.7,4.6 1.06,8.31 1.06,11.13l0 6.36c0.71,4.95 1.06,9.54 1.06,13.79 2.83,2.83 4.06,6.01 3.71,9.54l-0.53 10.61c1.77,1.77 4.24,8.04 7.42,18.83 3.18,10.78 5.31,16.17 6.36,16.17 3.18,0 8.13,-7.6 14.85,-22.8l24.39 -55.15c11.31,-25.1 18.56,-43.84 21.74,-56.22 0,-16.61 1.06,-27.93 3.18,-33.94 3.53,-10.26 10.78,-17.5 21.74,-21.74l7.95 -3.18c4.6,0.35 6.9,4.77 6.9,13.26 0,2.48 -1.06,9.02 -3.18,19.62 -2.83,14.14 -5.31,21.74 -7.43,22.8 0,3.89 -3.53,15.02 -10.6,33.41l-24.39 63.64c-8.48,22.28 -18.38,42.43 -29.7,60.46 1.06,2.47 1.59,5.12 1.59,7.95 0,4.24 -2.65,8.93 -7.95,14.06 -5.31,5.12 -8.31,8.22 -9.02,9.28 -6.72,8.13 -12.55,13.08 -17.5,14.85l-10.08 1.59c-10.61,0 -15.91,-4.25 -15.91,-12.73 0,-5.3 2.65,-10.61 7.95,-15.91l-9.01 -21.74 -3.18 -19.09c-2.12,-1.41 -4.24,-6.36 -6.36,-14.85 -1.77,-7.42 -2.65,-13.26 -2.65,-17.5 -3.89,-10.61 -6.19,-19.45 -6.9,-26.51l0 -0.48c-4.23,37.58 -9.11,66.72 -14.64,87.45 -0.71,3.89 -1.95,8.48 -3.72,13.79l-6.89 12.2 -13.26 6.36c-3.89,2.83 -7.95,4.25 -12.2,4.25 -8.49,0 -18.91,-14.5 -31.29,-43.49l-28.1 -66.29 -11.67 -26.51c-5.3,-12.02 -8.66,-18.73 -10.07,-20.15 -2.12,2.12 -5.12,9.72 -9.01,22.8l-11.67 39.77c-6.72,25.45 -11.31,43.13 -13.79,53.03l-14.32 49.32c-1.06,3.18 -3.27,5.13 -6.63,5.83 -3.36,0.71 -5.39,1.77 -6.1,3.18 -3.18,-1.42 -4.77,-4.25 -4.77,-8.49l1.59 -10.08c1.77,-11.67 3.36,-20.15 4.77,-25.45 0.35,-4.95 1.24,-11.49 2.65,-19.62 4.6,-31.11 7.6,-47.72 9.02,-49.85 3.18,-15.2 6.01,-35.18 8.48,-59.92 4.25,-42.07 7.43,-65.23 9.54,-69.47l-0.53 -5.83c0,-8.13 1.24,-15.38 3.71,-21.74 1.42,-5.66 3.54,-8.49 6.37,-8.49l1.06 0 10.61 -1.59c7.77,0 11.84,1.59 12.19,4.77l3.18 -2.12c3.89,-2.47 6.54,-4.42 7.95,-5.83 6.72,-6.01 11.49,-9.02 14.32,-9.02 3.18,0.35 4.77,3.36 4.77,9.02l-10.61 29.69c-1.41,3.89 -2.12,9.73 -2.12,17.5l11.14 35c3.89,12.02 8.31,23.33 13.26,33.94 2.47,8.84 4.24,15.38 5.3,19.62l17.5 42.42c10.96,26.87 18.56,41.19 22.8,42.95 1.77,-2.83 4.07,-13.26 6.89,-31.29l9.02 -57.27c0.71,-4.6 1.77,-29.52 3.18,-74.77 0.71,-19.12 3.7,-36.66 8.98,-52.62 1.52,-12.29 5.53,-23.03 12.02,-32.23l14.32 -6.89c4.24,-2.12 7.95,-3.18 11.13,-3.18 3.54,0 5.84,1.59 6.89,4.77 2.48,2.47 3.71,8.66 3.71,18.56l-2.12 23.33 -3.72 20.68 2.13 11.14z"/>
   <path class="fil1" d="M816.24 221.74c8.17,3.79 15.46,8.75 21.88,14.88 5.55,5.25 10.58,12.25 15.1,21.01 4.52,8.75 6.78,19.4 6.78,31.95 0,10.5 -2.19,20.5 -6.56,29.98 -4.38,9.48 -10.58,17.8 -18.6,24.95 -8.02,7.15 -17.51,12.91 -28.45,17.29 -10.94,4.38 -22.98,6.56 -36.11,6.56l-118.16 0 0 -275.72 113.79 0c11.96,0 23.05,2.04 33.26,6.13 10.21,4.08 19.04,9.63 26.48,16.63 7.44,7 13.2,15.1 17.29,24.29 4.08,9.19 6.13,19.04 6.13,29.54 0,9.34 -1.75,17.36 -5.25,24.07 -3.5,6.71 -7.3,12.11 -11.38,16.19 -4.96,4.96 -10.36,9.04 -16.19,12.25zm-111.6 -17.51l56.89 0c9.92,0 18.24,-3.28 24.95,-9.85 6.71,-6.56 10.07,-14.22 10.07,-22.98 0,-8.75 -3.36,-16.41 -10.07,-22.98 -6.71,-6.56 -15.03,-9.85 -24.95,-9.85l-56.89 0 0 65.65zm61.27 118.16c12.25,0 22.25,-3.79 29.98,-11.38 7.73,-7.59 11.6,-16.92 11.6,-28.01 0,-11.09 -3.87,-20.42 -11.6,-28.01 -7.73,-7.59 -17.72,-11.38 -29.98,-11.38l-61.27 0 0 78.78 61.27 0z"/>
   <path id="1" class="fil1" d="M968.33 370.54c-11.96,0 -22.9,-1.97 -32.82,-5.91 -9.92,-3.94 -18.45,-9.63 -25.6,-17.07 -7.15,-7.44 -12.69,-16.41 -16.63,-26.91 -3.94,-10.5 -5.91,-22.32 -5.91,-35.45l0 -118.16 50.33 0 0 111.6c0,13.13 3.87,23.71 11.6,31.73 7.73,8.02 17.72,12.04 29.98,12.04 12.25,0 22.25,-4.01 29.98,-12.04 7.73,-8.02 11.6,-18.6 11.6,-31.73l0 -111.6 50.33 0 0 201.32 -37.2 0 -8.75 -19.69c-4.96,4.08 -10.36,7.73 -16.19,10.94 -4.96,2.92 -10.94,5.47 -17.94,7.66 -7,2.19 -14.59,3.28 -22.76,3.28z"/>
   <path id="2" class="fil1" d="M1190.43 164.84c8.75,0 16.63,1.17 23.63,3.5 7,2.33 12.98,4.81 17.94,7.44 5.54,3.21 10.65,6.86 15.32,10.94l8.75 -19.69 37.2 0 0 188.19c0,26.26 -8.39,47.41 -25.16,63.46 -16.78,16.05 -40.48,24.07 -71.12,24.07 -18.67,0 -33.77,-3.36 -45.3,-10.07 -11.52,-6.71 -20.64,-14.3 -27.35,-22.76 -7.59,-9.63 -13.28,-20.57 -17.07,-32.82l50.33 0c2.04,3.79 4.81,7.15 8.32,10.07 3.21,2.33 7.29,4.52 12.25,6.56 4.96,2.04 11.23,3.06 18.82,3.06 14.3,0 25.53,-3.87 33.7,-11.6 8.17,-7.73 12.25,-17.72 12.25,-29.98l0 -15.32c-4.08,4.08 -8.75,7.73 -14,10.94 -4.67,2.92 -10.21,5.47 -16.63,7.66 -6.42,2.19 -13.71,3.28 -21.88,3.28 -12.55,0 -24.43,-2.48 -35.67,-7.44 -11.23,-4.96 -21.01,-11.82 -29.32,-20.57 -8.32,-8.75 -14.88,-19.11 -19.69,-31.07 -4.81,-11.96 -7.22,-25.09 -7.22,-39.39 0,-14.3 2.41,-27.43 7.22,-39.39 4.81,-11.96 11.38,-22.32 19.69,-31.07 8.32,-8.75 18.09,-15.61 29.32,-20.57 11.23,-4.96 23.12,-7.44 35.67,-7.44zm-41.58 98.47c0,7 1.24,13.57 3.72,19.69 2.48,6.13 5.91,11.45 10.28,15.97 4.38,4.52 9.48,8.1 15.32,10.72 5.84,2.63 12.11,3.94 18.82,3.94 6.42,0 12.55,-1.31 18.38,-3.94 5.84,-2.63 10.94,-6.2 15.32,-10.72 4.38,-4.52 7.88,-9.85 10.5,-15.97 2.63,-6.13 3.94,-12.69 3.94,-19.69 0,-7 -1.31,-13.57 -3.94,-19.69 -2.63,-6.13 -6.13,-11.45 -10.5,-15.97 -4.38,-4.52 -9.48,-8.1 -15.32,-10.72 -5.84,-2.63 -11.96,-3.94 -18.38,-3.94 -6.71,0 -12.98,1.31 -18.82,3.94 -5.84,2.63 -10.94,6.2 -15.32,10.72 -4.38,4.52 -7.8,9.85 -10.28,15.97 -2.48,6.13 -3.72,12.69 -3.72,19.69z"/>
   <polygon id="3" class="fil1" points="1454.12,278.63 1322.82,278.63 1322.82,234.87 1454.12,234.87 "/>
   <path id="4" class="fil1" d="M1505.54 118.89l43.76 0 0 48.14 43.76 0 0 45.95 -43.76 0 0 83.15c0,8.75 2.55,15.68 7.66,20.79 5.11,5.11 12.04,7.66 20.79,7.66 2.33,0 4.23,-0.07 5.69,-0.22 1.46,-0.15 2.77,-0.36 3.94,-0.66 1.17,-0.29 2.33,-0.73 3.5,-1.31l0 43.76c-2.04,0.88 -4.38,1.6 -7,2.19 -4.96,1.46 -10.65,2.19 -17.07,2.19 -9.92,0 -19.04,-1.68 -27.35,-5.03 -8.32,-3.36 -15.46,-8.24 -21.44,-14.66 -5.98,-6.42 -10.65,-14 -14,-22.76 -3.36,-8.75 -5.03,-18.67 -5.03,-29.76l0 -85.34 -30.63 0 0 -41.58 13.13 0c16.05,0 24.07,-8.02 24.07,-24.07l0 -28.45z"/>
   <path id="5" class="fil1" d="M1718.89 164.84c2.33,0 4.38,0.15 6.13,0.44 1.75,0.29 3.36,0.58 4.81,0.88 1.46,0.29 2.92,0.58 4.38,0.88l0 52.52c-1.46,-0.29 -3.06,-0.58 -4.81,-0.88 -1.46,-0.29 -3.28,-0.58 -5.47,-0.88 -2.19,-0.29 -4.6,-0.44 -7.22,-0.44 -12.25,0 -22.25,4.01 -29.98,12.04 -7.73,8.02 -11.6,18.6 -11.6,31.73l0 107.22 -50.33 0 0 -201.32 37.2 0 8.75 21.88c3.5,-4.38 7.73,-8.32 12.69,-11.82 4.08,-3.21 9.12,-6.05 15.1,-8.53 5.98,-2.48 12.76,-3.72 20.35,-3.72z"/>
   <path id="6" class="fil1" d="M1838.15 164.84c11.38,0 21.88,1.97 31.51,5.91 9.63,3.94 17.94,9.41 24.95,16.41 7,7 12.47,15.32 16.41,24.95 3.94,9.63 5.91,20.13 5.91,31.51l0 124.73 -37.2 0 -8.75 -19.69c-4.67,4.08 -9.77,7.73 -15.32,10.94 -4.96,2.92 -10.94,5.47 -17.94,7.66 -7,2.19 -14.88,3.28 -23.63,3.28 -21.88,0 -38.66,-5.32 -50.33,-15.97 -11.67,-10.65 -17.51,-24.29 -17.51,-40.92 0,-9.92 1.97,-19.04 5.91,-27.35 3.94,-8.32 10.58,-15.46 19.91,-21.44 9.34,-5.98 21.66,-10.65 36.98,-14 15.32,-3.36 34.5,-5.03 57.55,-5.03 0,-11.09 -2.99,-19.69 -8.97,-25.82 -5.98,-6.13 -13.93,-9.19 -23.85,-9.19 -6.71,0 -12.04,1.17 -15.97,3.5 -3.94,2.33 -7.08,4.81 -9.41,7.44 -2.63,3.21 -4.38,6.86 -5.25,10.94l-50.33 0c1.17,-9.34 3.87,-18.09 8.1,-26.26 4.23,-8.17 9.99,-15.32 17.29,-21.44 7.29,-6.13 15.97,-11.01 26.04,-14.66 10.07,-3.65 21.37,-5.47 33.92,-5.47zm-15.32 166.3c13.13,0 23.71,-3.87 31.73,-11.6 8.02,-7.73 12.04,-17.72 12.04,-29.98l0 -8.75c-14.88,0 -26.84,0.66 -35.89,1.97 -9.04,1.31 -16.12,3.21 -21.23,5.69 -5.11,2.48 -8.53,5.47 -10.28,8.97 -1.75,3.5 -2.63,7.44 -2.63,11.82 0,5.54 2.48,10.58 7.44,15.1 4.96,4.52 11.23,6.78 18.82,6.78z"/>
   <path id="7" class="fil1" d="M2136.84 293.95c-2.33,9.92 -6.27,19.48 -11.82,28.67 -5.54,9.19 -12.4,17.36 -20.57,24.51 -8.17,7.15 -17.51,12.84 -28.01,17.07 -10.5,4.23 -21.74,6.35 -33.7,6.35 -13.71,0 -26.62,-2.7 -38.73,-8.1 -12.11,-5.4 -22.76,-12.76 -31.95,-22.1 -9.19,-9.34 -16.48,-20.2 -21.88,-32.6 -5.4,-12.4 -8.1,-25.75 -8.1,-40.04 0,-14.3 2.7,-27.64 8.1,-40.04 5.4,-12.4 12.69,-23.27 21.88,-32.6 9.19,-9.34 19.84,-16.7 31.95,-22.1 12.11,-5.4 25.02,-8.1 38.73,-8.1 11.96,0 23.2,2.12 33.7,6.35 10.5,4.23 19.84,9.92 28.01,17.07 8.17,7.15 15.03,15.32 20.57,24.51 5.54,9.19 9.48,18.75 11.82,28.67l-50.33 0c-2.33,-5.25 -5.54,-9.92 -9.63,-14 -3.5,-3.5 -8.02,-6.78 -13.57,-9.85 -5.54,-3.06 -12.4,-4.6 -20.57,-4.6 -14.3,0 -26.26,4.96 -35.89,14.88 -9.63,9.92 -14.44,23.2 -14.44,39.83 0,16.63 4.81,29.91 14.44,39.83 9.63,9.92 21.59,14.88 35.89,14.88 8.17,0 15.03,-1.46 20.57,-4.38 5.54,-2.92 10.07,-6.13 13.57,-9.63 4.08,-4.08 7.29,-8.9 9.63,-14.44l50.33 0z"/>
   <polygon id="8" class="fil1" points="2282.35,368.35 2212.33,276.44 2212.33,368.35 2162,368.35 2162,92.63 2212.33,92.63 2212.33,250.19 2273.6,167.03 2330.49,167.03 2258.28,263.31 2339.25,368.35 "/>
   <path id="9" class="fil1" d="M2524.15 307.08c-2.63,7.59 -6.64,15.17 -12.04,22.76 -5.4,7.59 -11.96,14.37 -19.69,20.35 -7.73,5.98 -16.48,10.87 -26.26,14.66 -9.77,3.79 -20.35,5.69 -31.73,5.69 -13.71,0 -26.62,-2.7 -38.73,-8.1 -12.11,-5.4 -22.76,-12.76 -31.95,-22.1 -9.19,-9.34 -16.48,-20.2 -21.88,-32.6 -5.4,-12.4 -8.1,-25.75 -8.1,-40.04 0,-14.3 2.7,-27.64 8.1,-40.04 5.4,-12.4 12.69,-23.27 21.88,-32.6 9.19,-9.34 19.84,-16.7 31.95,-22.1 12.11,-5.4 25.02,-8.1 38.73,-8.1 13.13,0 25.53,2.48 37.2,7.44 11.67,4.96 21.88,11.96 30.63,21.01 8.75,9.04 15.68,19.91 20.79,32.6 5.11,12.69 7.66,26.62 7.66,41.79 0,2.33 -0.15,4.6 -0.44,6.78 -0.29,2.19 -0.58,4.3 -0.88,6.35 -0.29,2.33 -0.58,4.52 -0.88,6.56l-140.05 0c2.33,9.92 7.29,18.24 14.88,24.95 7.59,6.71 17.94,10.07 31.07,10.07 6.71,0 12.33,-0.73 16.85,-2.19 4.52,-1.46 8.39,-3.21 11.6,-5.25 3.5,-2.33 6.42,-4.96 8.75,-7.88l52.52 0zm-89.72 -94.09c-13.13,0 -23.85,3.79 -32.17,11.38 -8.32,7.59 -13.64,16.92 -15.97,28.01l96.28 0c-2.33,-11.09 -7.66,-20.42 -15.97,-28.01 -8.32,-7.59 -19.04,-11.38 -32.17,-11.38z"/>
   <path id="10" class="fil1" d="M2652.16 164.84c2.33,0 4.38,0.15 6.13,0.44 1.75,0.29 3.36,0.58 4.81,0.88 1.46,0.29 2.92,0.58 4.38,0.88l0 52.52c-1.46,-0.29 -3.06,-0.58 -4.81,-0.88 -1.46,-0.29 -3.28,-0.58 -5.47,-0.88 -2.19,-0.29 -4.6,-0.44 -7.22,-0.44 -12.25,0 -22.25,4.01 -29.98,12.04 -7.73,8.02 -11.6,18.6 -11.6,31.73l0 107.22 -50.33 0 0 -201.32 37.2 0 8.75 21.88c3.5,-4.38 7.73,-8.32 12.69,-11.82 4.08,-3.21 9.12,-6.05 15.1,-8.53 5.98,-2.48 12.76,-3.72 20.35,-3.72z"/>
   <polygon id="11" class="fil1" points="750.6,805.99 713.4,805.99 625.87,530.28 678.38,530.28 733.09,709.71 789.98,530.28 820.62,530.28 877.52,709.71 932.22,530.28 984.74,530.28 897.21,805.99 860.01,805.99 805.3,633.13 "/>
   <path id="12" class="fil1" d="M1169.64 659.38c8.17,3.79 15.46,8.75 21.88,14.88 5.55,5.25 10.58,12.25 15.1,21.01 4.52,8.75 6.78,19.4 6.78,31.95 0,10.5 -2.19,20.5 -6.56,29.98 -4.38,9.48 -10.58,17.8 -18.6,24.95 -8.02,7.15 -17.51,12.91 -28.45,17.29 -10.94,4.38 -22.98,6.56 -36.11,6.56l-118.16 0 0 -275.72 113.79 0c11.96,0 23.05,2.04 33.26,6.13 10.21,4.08 19.04,9.63 26.48,16.63 7.44,7 13.2,15.1 17.29,24.29 4.08,9.19 6.13,19.04 6.13,29.54 0,9.34 -1.75,17.36 -5.25,24.07 -3.5,6.71 -7.3,12.11 -11.38,16.19 -4.96,4.96 -10.36,9.04 -16.19,12.25zm-111.6 -17.51l56.89 0c9.92,0 18.24,-3.28 24.95,-9.85 6.71,-6.56 10.07,-14.22 10.07,-22.98 0,-8.75 -3.36,-16.41 -10.07,-22.98 -6.71,-6.56 -15.03,-9.85 -24.95,-9.85l-56.89 0 0 65.65zm61.27 118.16c12.25,0 22.25,-3.79 29.98,-11.38 7.73,-7.59 11.6,-16.92 11.6,-28.01 0,-11.09 -3.87,-20.42 -11.6,-28.01 -7.73,-7.59 -17.72,-11.38 -29.98,-11.38l-61.27 0 0 78.78 61.27 0z"/>
   <polygon id="13" class="fil1" points="1548.21,755.66 1548.21,805.99 1353.45,805.99 1353.45,530.28 1543.83,530.28 1543.83,580.6 1405.97,580.6 1405.97,639.69 1532.89,639.69 1532.89,690.02 1405.97,690.02 1405.97,755.66 "/>
   <path id="14" class="fil1" d="M1660.9 808.18c-12.55,0 -24.51,-2.55 -35.89,-7.66 -11.38,-5.11 -21.37,-12.25 -29.98,-21.44 -8.61,-9.19 -15.46,-20.06 -20.57,-32.6 -5.11,-12.55 -7.66,-26.26 -7.66,-41.14 0,-14.88 2.55,-28.59 7.66,-41.14 5.11,-12.55 11.96,-23.41 20.57,-32.6 8.61,-9.19 18.6,-16.34 29.98,-21.44 11.38,-5.11 23.34,-7.66 35.89,-7.66 8.17,0 15.46,1.09 21.88,3.28 6.42,2.19 11.96,4.45 16.63,6.78 5.25,2.92 9.92,6.13 14,9.63l0 -91.91 50.33 0 0 275.72 -37.2 0 -8.75 -19.69c-4.67,4.08 -9.77,7.73 -15.32,10.94 -4.96,2.92 -10.94,5.47 -17.94,7.66 -7,2.19 -14.88,3.28 -23.63,3.28zm56.89 -102.85c0,-16.63 -4.81,-29.91 -14.44,-39.83 -9.63,-9.92 -21.59,-14.88 -35.89,-14.88 -14.3,0 -26.26,4.96 -35.89,14.88 -9.63,9.92 -14.44,23.2 -14.44,39.83 0,16.63 4.81,29.91 14.44,39.83 9.63,9.92 21.59,14.88 35.89,14.88 14.3,0 26.26,-4.96 35.89,-14.88 9.63,-9.92 14.44,-23.2 14.44,-39.83z"/>
   <path id="15" class="fil1" d="M1852.37 805.99l-50.33 0 0 -201.32 50.33 0 0 201.32zm-24.07 -227.58c-7.59,0 -14.22,-2.84 -19.91,-8.53 -5.69,-5.69 -8.53,-12.33 -8.53,-19.91 0,-7.59 2.84,-14.22 8.53,-19.91 5.69,-5.69 12.33,-8.53 19.91,-8.53 7.59,0 14.22,2.84 19.91,8.53 5.69,5.69 8.53,12.33 8.53,19.91 0,7.59 -2.84,14.22 -8.53,19.91 -5.69,5.69 -12.33,8.53 -19.91,8.53z"/>
   <path id="16" class="fil1" d="M1912.55 556.53l43.76 0 0 48.14 43.76 0 0 45.95 -43.76 0 0 83.15c0,8.75 2.55,15.68 7.66,20.79 5.11,5.11 12.04,7.66 20.79,7.66 2.33,0 4.23,-0.07 5.69,-0.22 1.46,-0.15 2.77,-0.36 3.94,-0.66 1.17,-0.29 2.33,-0.73 3.5,-1.31l0 43.76c-2.04,0.88 -4.38,1.6 -7,2.19 -4.96,1.46 -10.65,2.19 -17.07,2.19 -9.92,0 -19.04,-1.68 -27.35,-5.03 -8.32,-3.36 -15.46,-8.24 -21.44,-14.66 -5.98,-6.42 -10.65,-14 -14,-22.76 -3.36,-8.75 -5.03,-18.67 -5.03,-29.76l0 -85.34 -30.63 0 0 -41.58 13.13 0c16.05,0 24.07,-8.02 24.07,-24.07l0 -28.45z"/>
   <path id="17" class="fil1" d="M2082.13 805.99l-50.33 0 0 -201.32 50.33 0 0 201.32zm-24.07 -227.58c-7.59,0 -14.22,-2.84 -19.91,-8.53 -5.69,-5.69 -8.53,-12.33 -8.53,-19.91 0,-7.59 2.84,-14.22 8.53,-19.91 5.69,-5.69 12.33,-8.53 19.91,-8.53 7.59,0 14.22,2.84 19.91,8.53 5.69,5.69 8.53,12.33 8.53,19.91 0,7.59 -2.84,14.22 -8.53,19.91 -5.69,5.69 -12.33,8.53 -19.91,8.53z"/>
   <path id="18" class="fil1" d="M2159.82 705.34c0,16.63 4.81,29.91 14.44,39.83 9.63,9.92 21.59,14.88 35.89,14.88 14.3,0 26.26,-4.96 35.89,-14.88 9.63,-9.92 14.44,-23.2 14.44,-39.83 0,-16.63 -4.81,-29.91 -14.44,-39.83 -9.63,-9.92 -21.59,-14.88 -35.89,-14.88 -14.3,0 -26.26,4.96 -35.89,14.88 -9.63,9.92 -14.44,23.2 -14.44,39.83zm150.99 0c0,14.3 -2.7,27.64 -8.1,40.04 -5.4,12.4 -12.69,23.27 -21.88,32.6 -9.19,9.34 -19.84,16.7 -31.95,22.1 -12.11,5.4 -25.02,8.1 -38.73,8.1 -13.71,0 -26.62,-2.7 -38.73,-8.1 -12.11,-5.4 -22.76,-12.76 -31.95,-22.1 -9.19,-9.34 -16.48,-20.2 -21.88,-32.6 -5.4,-12.4 -8.1,-25.75 -8.1,-40.04 0,-14.3 2.7,-27.64 8.1,-40.04 5.4,-12.4 12.69,-23.27 21.88,-32.6 9.19,-9.34 19.84,-16.7 31.95,-22.1 12.11,-5.4 25.02,-8.1 38.73,-8.1 13.71,0 26.62,2.7 38.73,8.1 12.11,5.4 22.76,12.76 31.95,22.1 9.19,9.34 16.48,20.2 21.88,32.6 5.4,12.4 8.1,25.75 8.1,40.04z"/>
   <path id="19" class="fil1" d="M2441 602.49c11.96,0 22.9,1.97 32.82,5.91 9.92,3.94 18.45,9.63 25.6,17.07 7.15,7.44 12.69,16.41 16.63,26.91 3.94,10.5 5.91,22.32 5.91,35.45l0 118.16 -50.33 0 0 -111.6c0,-13.13 -3.87,-23.71 -11.6,-31.73 -7.73,-8.02 -17.72,-12.04 -29.98,-12.04 -12.25,0 -22.25,4.01 -29.98,12.04 -7.73,8.02 -11.6,18.6 -11.6,31.73l0 111.6 -50.33 0 0 -201.32 37.2 0 8.75 19.69c4.96,-4.08 10.36,-7.73 16.19,-10.94 4.96,-2.63 10.87,-5.11 17.72,-7.44 6.86,-2.33 14.52,-3.5 22.98,-3.5z"/>
  </g>
 </g>
</svg>
