<?xml version="1.0" encoding="UTF-8"?>
<!DOCTYPE svg PUBLIC "-//W3C//DTD SVG 1.1//EN" "http://www.w3.org/Graphics/SVG/1.1/DTD/svg11.dtd">
<!-- Creator: CorelDRAW 2019 (64-Bit) -->
<svg xmlns="http://www.w3.org/2000/svg" xml:space="preserve" width="114.841mm" height="19.9406mm" version="1.1" style="shape-rendering:geometricPrecision; text-rendering:geometricPrecision; image-rendering:optimizeQuality; fill-rule:evenodd; clip-rule:evenodd"
viewBox="0 0 7370.44 1279.78"
 xmlns:xlink="http://www.w3.org/1999/xlink">
 <defs>
  <style type="text/css">
   <![CDATA[
    .fil0 {fill:#53599C}
    .fil2 {fill:#53599C;fill-rule:nonzero}
    .fil1 {fill:white;fill-rule:nonzero}
   ]]>
  </style>
 </defs>
 <g id="Слой_x0020_1">
  <metadata id="CorelCorpID_0Corel-Layer"/>
  <g id="_1737404253216">
   <g>
    <path class="fil0" d="M319.56 0l640.65 0c175.76,0 319.56,143.8 319.56,319.56l0 640.65c0,175.76 -143.8,319.57 -319.56,319.57l-640.65 0c-175.76,0 -319.56,-143.81 -319.56,-319.57l0 -640.65c0,-175.76 143.8,-319.56 319.56,-319.56z"/>
    <path class="fil1" d="M786.85 413.51l0 102.57 1.46 57.15 7.33 48.35c1.95,12.7 2.93,22.96 2.93,30.77l0 17.59c1.96,13.68 2.93,26.37 2.93,38.1 7.82,7.82 11.23,16.61 10.26,26.37l-1.46 29.3c4.88,4.88 11.72,22.23 20.51,52.02 8.79,29.79 14.65,44.69 17.58,44.69 8.79,0 22.47,-21 41.03,-63l67.4 -152.38c31.26,-69.35 51.29,-121.13 60.08,-155.32 0,-45.91 2.93,-77.16 8.79,-93.77 9.76,-28.33 29.79,-48.36 60.07,-60.08l21.98 -8.79c12.7,0.98 19.05,13.19 19.05,36.63 0.01,6.84 -2.93,24.91 -8.79,54.21 -7.81,39.07 -14.65,60.08 -20.51,63 0,10.74 -9.77,41.51 -29.3,92.31l-67.4 175.83c-23.44,61.54 -50.79,117.22 -82.05,167.04 2.93,6.84 4.4,14.16 4.4,21.98 0,11.73 -7.33,24.66 -21.98,38.83 -14.65,14.16 -22.96,22.71 -24.91,25.65 -18.56,22.46 -34.68,36.14 -48.35,41.02l-27.84 4.4c-29.3,0 -43.96,-11.73 -43.96,-35.16 0,-14.65 7.33,-29.3 21.98,-43.96l-24.91 -60.08 -8.79 -52.75c-5.87,-3.9 -11.73,-17.58 -17.59,-41.02 -4.88,-20.51 -7.33,-36.63 -7.33,-48.35 -10.74,-29.3 -17.09,-53.72 -19.05,-73.26l0.01 -1.32c-11.69,103.81 -25.18,184.36 -40.45,241.62 -1.96,10.74 -5.37,23.44 -10.26,38.1l-19.05 33.7 -36.63 17.59c-10.75,7.82 -21.98,11.72 -33.71,11.72 -23.44,0 -52.25,-40.05 -86.45,-120.15l-77.65 -183.16 -32.24 -73.25c-14.65,-33.21 -23.93,-51.77 -27.84,-55.68 -5.86,5.86 -14.16,26.87 -24.91,63l-32.24 109.89c-18.55,70.33 -31.26,119.17 -38.09,146.52l-39.57 136.27c-2.93,8.79 -9.03,14.16 -18.31,16.12 -9.29,1.96 -14.9,4.88 -16.85,8.79 -8.79,-3.91 -13.19,-11.73 -13.19,-23.44l4.4 -27.83c4.89,-32.24 9.28,-55.68 13.19,-70.33 0.98,-13.68 3.42,-31.75 7.32,-54.21 12.7,-85.96 21.01,-131.87 24.91,-137.74 8.79,-42 16.6,-97.19 23.44,-165.56 11.73,-116.25 20.52,-180.22 26.38,-191.95l-1.47 -16.12c0,-22.47 3.43,-42.49 10.26,-60.08 3.91,-15.63 9.77,-23.44 17.59,-23.44l2.93 0 29.3 -4.4c21.49,0 32.73,4.4 33.7,13.19l8.79 -5.87c10.74,-6.83 18.07,-12.2 21.98,-16.11 18.56,-16.61 31.75,-24.91 39.56,-24.91 8.79,0.97 13.19,9.27 13.19,24.91l-29.3 82.05c-3.9,10.75 -5.86,26.87 -5.86,48.36l30.77 96.7c10.75,33.21 22.96,64.47 36.63,93.78 6.84,24.42 11.72,42.49 14.65,54.21l48.35 117.22c30.28,74.24 51.28,113.8 63,118.69 4.88,-7.82 11.23,-36.63 19.05,-86.45l24.91 -158.25c1.95,-12.69 4.88,-81.57 8.79,-206.59 1.95,-52.83 10.22,-101.29 24.81,-145.4 4.22,-33.96 15.29,-63.64 33.21,-89.04l39.57 -19.05c11.72,-5.86 21.98,-8.79 30.77,-8.79 9.77,0 16.12,4.39 19.05,13.18 6.84,6.84 10.26,23.93 10.26,51.29l-5.86 64.47 -10.26 57.14 5.86 30.77z"/>
   </g>
   <path class="fil2" d="M2255.32 612.68c22.57,10.48 42.72,24.18 60.46,41.11 15.31,14.51 29.22,33.85 41.72,58.04 12.5,24.18 18.75,53.61 18.75,88.27 0,29.02 -6.05,56.63 -18.14,82.84 -12.09,26.2 -29.22,49.17 -51.39,68.92 -22.17,19.75 -48.37,35.68 -78.6,47.77 -30.23,12.09 -63.49,18.14 -99.77,18.14l-326.49 0 0 -761.82 314.4 0c33.05,0 63.69,5.64 91.9,16.93 28.21,11.28 52.6,26.6 73.16,45.95 20.56,19.34 36.48,41.72 47.76,67.11 11.29,25.39 16.93,52.6 16.93,81.62 0,25.79 -4.83,47.97 -14.51,66.51 -9.67,18.54 -20.15,33.45 -31.44,44.74 -13.7,13.7 -28.62,24.99 -44.74,33.86zm-308.36 -48.37l157.2 0c27.41,0 50.39,-9.07 68.93,-27.21 18.54,-18.14 27.81,-39.3 27.81,-63.49 0,-24.19 -9.27,-45.35 -27.81,-63.49 -18.54,-18.14 -41.52,-27.21 -68.93,-27.21l-157.2 0 0 181.38zm169.29 326.49c33.86,0 61.47,-10.48 82.84,-31.44 21.36,-20.96 32.04,-46.76 32.04,-77.39 0,-30.63 -10.69,-56.43 -32.04,-77.39 -21.37,-20.96 -48.98,-31.44 -82.84,-31.44l-169.29 0 0 217.66 169.29 0z"/>
   <path id="1" class="fil2" d="M2675.54 1023.82c-33.05,0 -63.29,-5.44 -90.69,-16.33 -27.41,-10.88 -50.99,-26.6 -70.74,-47.16 -19.75,-20.56 -35.07,-45.34 -45.95,-74.36 -10.88,-29.02 -16.32,-61.68 -16.32,-97.95l0 -326.49 139.06 0 0 308.36c0,36.27 10.68,65.5 32.04,87.67 21.36,22.17 48.98,33.25 82.83,33.25 33.86,0 61.47,-11.08 82.84,-33.25 21.36,-22.17 32.04,-51.39 32.04,-87.67l0 -308.36 139.06 0 0 556.25 -102.79 0 -24.18 -54.42c-13.7,11.29 -28.62,21.37 -44.74,30.23 -13.71,8.06 -30.23,15.11 -49.59,21.16 -19.34,6.05 -40.3,9.07 -62.88,9.07z"/>
   <path id="2" class="fil2" d="M3289.23 455.47c24.18,0 45.95,3.22 65.3,9.67 19.35,6.45 35.88,13.3 49.58,20.56 15.32,8.87 29.43,18.95 42.33,30.23l24.18 -54.41 102.79 0 0 519.98c0,72.55 -23.18,131 -69.53,175.34 -46.36,44.34 -111.86,66.51 -196.5,66.51 -51.59,0 -93.31,-9.27 -125.16,-27.82 -31.85,-18.54 -57.04,-39.5 -75.58,-62.88 -20.96,-26.61 -36.68,-56.84 -47.16,-90.7l139.06 0c5.64,10.48 13.3,19.75 22.98,27.82 8.86,6.45 20.15,12.5 33.85,18.14 13.71,5.64 31.04,8.47 52,8.47 39.5,0 70.54,-10.68 93.11,-32.04 22.57,-21.37 33.86,-48.98 33.86,-82.83l0 -42.33c-11.29,11.29 -24.19,21.37 -38.7,30.23 -12.89,8.06 -28.21,15.12 -45.95,21.17 -17.74,6.05 -37.89,9.07 -60.46,9.07 -34.66,0 -67.52,-6.85 -98.55,-20.56 -31.04,-13.71 -58.04,-32.65 -81.02,-56.84 -22.98,-24.18 -41.11,-52.8 -54.42,-85.85 -13.3,-33.05 -19.95,-69.33 -19.95,-108.84 0,-39.5 6.66,-75.78 19.95,-108.83 13.3,-33.05 31.44,-61.67 54.42,-85.86 22.98,-24.18 49.98,-43.13 81.02,-56.83 31.04,-13.71 63.89,-20.56 98.55,-20.56zm-114.88 272.08c0,19.35 3.43,37.49 10.28,54.42 6.85,16.93 16.32,31.64 28.42,44.14 12.09,12.5 26.2,22.37 42.32,29.63 16.12,7.26 33.46,10.88 52,10.88 17.74,0 34.66,-3.63 50.79,-10.88 16.12,-7.25 30.23,-17.13 42.32,-29.63 12.09,-12.5 21.77,-27.21 29.02,-44.14 7.26,-16.93 10.88,-35.07 10.88,-54.42 0,-19.34 -3.63,-37.49 -10.88,-54.42 -7.25,-16.92 -16.93,-31.64 -29.02,-44.14 -12.09,-12.5 -26.2,-22.37 -42.32,-29.63 -16.13,-7.25 -33.05,-10.88 -50.79,-10.88 -18.54,0 -35.88,3.63 -52,10.88 -16.12,7.26 -30.23,17.13 -42.32,29.63 -12.1,12.5 -21.56,27.21 -28.42,44.14 -6.85,16.93 -10.28,35.07 -10.28,54.42z"/>
   <polygon id="3" class="fil2" points="4017.79,769.88 3655.02,769.88 3655.02,648.95 4017.79,648.95 "/>
   <path id="4" class="fil2" d="M4159.88 328.5l120.92 0 0 133.02 120.93 0 0 126.97 -120.93 0 0 229.76c0,24.19 7.05,43.33 21.17,57.44 14.11,14.11 33.25,21.16 57.43,21.16 6.45,0 11.69,-0.2 15.72,-0.6 4.03,-0.4 7.66,-1.01 10.88,-1.81 3.23,-0.81 6.45,-2.02 9.68,-3.63l0 120.93c-5.64,2.42 -12.09,4.43 -19.35,6.05 -13.7,4.03 -29.43,6.05 -47.16,6.05 -27.41,0 -52.6,-4.63 -75.58,-13.91 -22.98,-9.27 -42.72,-22.77 -59.25,-40.51 -16.53,-17.73 -29.43,-38.69 -38.7,-62.88 -9.27,-24.19 -13.91,-51.59 -13.91,-82.23l0 -235.8 -84.65 0 0 -114.87 36.28 0c44.34,0 66.51,-22.17 66.51,-66.51l0 -78.6z"/>
   <path id="5" class="fil2" d="M4749.39 455.47c6.45,0 12.09,0.4 16.93,1.21 4.84,0.81 9.27,1.61 13.3,2.42 4.03,0.8 8.06,1.61 12.09,2.42l0 145.11c-4.03,-0.81 -8.47,-1.62 -13.3,-2.42 -4.03,-0.81 -9.07,-1.61 -15.11,-2.42 -6.05,-0.81 -12.69,-1.21 -19.95,-1.21 -33.85,0 -61.47,11.09 -82.83,33.26 -21.37,22.17 -32.04,51.39 -32.04,87.67l0 296.26 -139.06 0 0 -556.25 102.78 0 24.19 60.46c9.67,-12.09 21.36,-22.97 35.07,-32.65 11.28,-8.87 25.19,-16.73 41.72,-23.58 16.53,-6.85 35.27,-10.28 56.23,-10.28z"/>
   <path id="6" class="fil2" d="M5078.91 455.47c31.44,0 60.46,5.44 87.07,16.32 26.6,10.88 49.58,26 68.93,45.35 19.34,19.34 34.46,42.32 45.34,68.92 10.88,26.61 16.33,55.63 16.33,87.07l0 344.64 -102.79 0 -24.18 -54.42c-12.9,11.29 -27.01,21.37 -42.32,30.23 -13.71,8.06 -30.23,15.11 -49.58,21.16 -19.35,6.05 -41.12,9.07 -65.3,9.07 -60.46,0 -106.81,-14.71 -139.06,-44.14 -32.24,-29.43 -48.37,-67.11 -48.37,-113.06 0,-27.41 5.44,-52.6 16.32,-75.58 10.88,-22.98 29.23,-42.72 55.02,-59.25 25.8,-16.53 59.86,-29.43 102.18,-38.7 42.33,-9.27 95.33,-13.9 159.02,-13.9 0,-30.64 -8.27,-54.42 -24.79,-71.35 -16.53,-16.93 -38.49,-25.4 -65.9,-25.4 -18.54,0 -33.26,3.23 -44.14,9.68 -10.88,6.44 -19.55,13.3 -26,20.56 -7.26,8.86 -12.1,18.94 -14.51,30.23l-139.06 0c3.22,-25.8 10.68,-49.98 22.37,-72.55 11.69,-22.57 27.62,-42.32 47.77,-59.25 20.15,-16.93 44.14,-30.43 71.95,-40.51 27.81,-10.08 59.05,-15.11 93.71,-15.11zm-42.33 459.51c36.28,0 65.5,-10.69 87.68,-32.04 22.17,-21.37 33.25,-48.98 33.25,-82.84l0 -24.18c-41.11,0 -74.17,1.81 -99.16,5.44 -24.99,3.63 -44.54,8.86 -58.65,15.72 -14.11,6.85 -23.58,15.11 -28.42,24.79 -4.84,9.67 -7.26,20.56 -7.26,32.65 0,15.31 6.85,29.22 20.56,41.72 13.71,12.5 31.04,18.75 52,18.75z"/>
   <path id="7" class="fil2" d="M5904.23 812.2c-6.45,27.41 -17.33,53.81 -32.65,79.21 -15.31,25.39 -34.26,47.96 -56.83,67.72 -22.57,19.75 -48.37,35.47 -77.39,47.16 -29.02,11.69 -60.06,17.53 -93.11,17.53 -37.89,0 -73.56,-7.46 -107.02,-22.37 -33.45,-14.91 -62.88,-35.27 -88.27,-61.07 -25.4,-25.79 -45.55,-55.82 -60.46,-90.09 -14.92,-34.26 -22.37,-71.14 -22.37,-110.65 0,-39.5 7.46,-76.38 22.37,-110.65 14.92,-34.26 35.07,-64.29 60.46,-90.09 25.4,-25.79 54.82,-46.15 88.27,-61.07 33.46,-14.92 69.13,-22.37 107.02,-22.37 33.05,0 64.09,5.84 93.11,17.53 29.02,11.69 54.82,27.4 77.39,47.16 22.57,19.75 41.52,42.32 56.83,67.72 15.32,25.4 26.2,51.8 32.65,79.2l-139.06 0c-6.45,-14.51 -15.32,-27.4 -26.6,-38.69 -9.68,-9.67 -22.17,-18.74 -37.49,-27.21 -15.32,-8.47 -34.27,-12.7 -56.84,-12.7 -39.5,0 -72.55,13.71 -99.16,41.11 -26.6,27.41 -39.91,64.1 -39.91,110.04 0,45.95 13.3,82.63 39.91,110.04 26.6,27.41 59.65,41.11 99.16,41.11 22.57,0 41.52,-4.03 56.84,-12.09 15.31,-8.06 27.81,-16.93 37.49,-26.6 11.28,-11.29 20.15,-24.59 26.6,-39.91l139.06 0z"/>
   <polygon id="8" class="fil2" points="6306.3,1017.77 6112.82,763.83 6112.82,1017.77 5973.76,1017.77 5973.76,255.95 6112.82,255.95 6112.82,691.28 6282.12,461.52 6439.32,461.52 6239.79,727.55 6463.5,1017.77 "/>
   <path id="9" class="fil2" d="M6974.41 848.48c-7.25,20.96 -18.34,41.92 -33.25,62.88 -14.92,20.96 -33.05,39.71 -54.42,56.23 -21.36,16.53 -45.55,30.03 -72.55,40.51 -27.01,10.48 -56.23,15.72 -87.67,15.72 -37.89,0 -73.56,-7.46 -107.02,-22.37 -33.45,-14.91 -62.88,-35.27 -88.27,-61.07 -25.4,-25.79 -45.55,-55.82 -60.46,-90.09 -14.92,-34.26 -22.37,-71.14 -22.37,-110.65 0,-39.5 7.46,-76.38 22.37,-110.65 14.92,-34.26 35.07,-64.29 60.46,-90.09 25.4,-25.79 54.82,-46.15 88.27,-61.07 33.46,-14.92 69.13,-22.37 107.02,-22.37 36.28,0 70.54,6.85 102.79,20.56 32.24,13.7 60.46,33.05 84.65,58.04 24.18,24.99 43.33,55.02 57.43,90.09 14.11,35.07 21.17,73.56 21.17,115.48 0,6.45 -0.4,12.7 -1.21,18.75 -0.8,6.05 -1.61,11.89 -2.42,17.53 -0.8,6.45 -1.61,12.5 -2.41,18.14l-386.96 0c6.45,27.41 20.16,50.39 41.12,68.93 20.96,18.54 49.58,27.81 85.85,27.81 18.54,0 34.06,-2.02 46.56,-6.05 12.5,-4.03 23.18,-8.86 32.04,-14.51 9.68,-6.45 17.74,-13.7 24.19,-21.76l145.1 0zm-247.89 -259.99c-36.27,0 -65.91,10.48 -88.88,31.44 -22.98,20.96 -37.69,46.76 -44.14,77.39l266.04 0c-6.45,-30.63 -21.16,-56.43 -44.14,-77.39 -22.98,-20.96 -52.6,-31.44 -88.88,-31.44z"/>
   <path id="10" class="fil2" d="M7328.11 455.47c6.45,0 12.09,0.4 16.93,1.21 4.84,0.81 9.27,1.61 13.3,2.42 4.03,0.8 8.06,1.61 12.09,2.42l0 145.11c-4.03,-0.81 -8.47,-1.62 -13.3,-2.42 -4.03,-0.81 -9.07,-1.61 -15.11,-2.42 -6.05,-0.81 -12.69,-1.21 -19.95,-1.21 -33.85,0 -61.47,11.09 -82.83,33.26 -21.37,22.17 -32.04,51.39 -32.04,87.67l0 296.26 -139.06 0 0 -556.25 102.78 0 24.19 60.46c9.67,-12.09 21.36,-22.97 35.07,-32.65 11.28,-8.87 25.19,-16.73 41.72,-23.58 16.53,-6.85 35.27,-10.28 56.23,-10.28z"/>
  </g>
 </g>
</svg>
