<?xml version="1.0" encoding="UTF-8"?>
<!DOCTYPE svg PUBLIC "-//W3C//DTD SVG 1.1//EN" "http://www.w3.org/Graphics/SVG/1.1/DTD/svg11.dtd">
<!-- Creator: CorelDRAW 2019 (64-Bit) -->
<svg xmlns="http://www.w3.org/2000/svg" xml:space="preserve" width="45.6696mm" height="25.2261mm" version="1.1" style="shape-rendering:geometricPrecision; text-rendering:geometricPrecision; image-rendering:optimizeQuality; fill-rule:evenodd; clip-rule:evenodd"
viewBox="0 0 1137.38 628.25"
 xmlns:xlink="http://www.w3.org/1999/xlink">
 <defs>
  <style type="text/css">
   <![CDATA[
    .fil1 {fill:#53599C;fill-rule:nonzero}
    .fil0 {fill:#C35268;fill-rule:nonzero}
   ]]>
  </style>
 </defs>
 <g id="Слой_x0020_1">
  <metadata id="CorelCorpID_0Corel-Layer"/>
  <g id="_1773765149968">
   <path class="fil0" d="M574.85 96.3c0.34,1.43 0.5,2.77 0.5,3.87 0,4.79 -2.94,7.98 -8.82,9.58 -0.34,0.17 -5.97,1.09 -16.97,2.69 -28.99,4.12 -58.82,7.48 -89.41,10.08 -12.94,27.73 -28.82,72.77 -47.65,135.05 -17.39,56.81 -30.17,104.29 -38.32,142.44 -2.77,12.35 -6.89,18.49 -12.27,18.49 -3.44,0 -10.42,-1.85 -20.92,-5.46 -3.78,-1.09 -5.8,-3.36 -6.13,-6.64 0.34,3.28 0.51,-1.68 0.51,-15.04 0,-24.2 3.87,-46.22 11.51,-66.13 2.94,-7.4 6.22,-11.09 9.83,-11.09 1.01,0 2.94,0.34 5.8,1.09 2.86,0.76 5.21,1.26 6.97,1.43 4.46,-16.72 14.88,-49.83 31.43,-99.24 18.66,-55.8 28.82,-86.47 30.51,-91.85 -25.38,1.93 -50.67,5.88 -75.97,11.85 -28.07,6.89 -46.47,14.2 -55.21,21.85 -9.83,8.91 -14.79,17.65 -14.79,26.39 0,9.33 5.46,23.95 16.39,43.78 1.18,2.18 1.77,4.12 1.77,5.97 0,4.12 -1.93,6.13 -5.72,6.13 -2.61,0 -4.96,-1.6 -7.14,-4.71 -12.94,-18.49 -21.43,-32.94 -25.38,-43.28 -2.77,-7.23 -4.79,-17.65 -5.97,-31.34 -1.77,-20 14.71,-34.79 49.5,-44.29 45.29,-12.35 90.92,-20.5 137.06,-24.62 5.21,-10.42 9.08,-15.63 11.51,-15.63 3.78,0 10.17,4.03 19.24,12.1 4.29,0 17.48,-1.68 39.58,-4.96 3.95,-0.59 7.98,-3.53 12.1,-8.57 3.61,-4.79 12.19,-7.48 25.8,-8.15 7.39,-0.34 12.52,2.44 15.29,8.32 0.51,0.84 2.27,7.48 5.38,19.92z"/>
   <path id="1" class="fil0" d="M643.93 340.34c-40,51.09 -68.07,76.64 -84.37,76.64 -7.73,0 -17.48,-5.38 -29.33,-16.05 -12.35,-5.8 -18.49,-13.53 -18.49,-23.19 0,-1.85 0.17,-3.7 0.5,-5.71 2.94,-22.52 8.99,-47.48 18.15,-74.79 -6.05,-3.11 -9.08,-6.13 -9.08,-8.91 0,-2.27 1.68,-3.45 5.13,-3.45 2.69,0 5.38,0.76 8.15,2.27 14.54,-32.69 27.65,-55.97 39.24,-69.75 7.56,-9.16 14.29,-13.7 20.34,-13.7 2.77,0 9.66,2.35 20.67,7.14 -0.84,-4.96 0.59,-7.82 4.2,-8.66 0.17,0 4.03,0 11.6,0 7.14,0 10.67,1.26 10.67,3.7 0,0.5 -0.25,1.85 -0.75,4.2 -0.51,2.27 -0.76,4.45 -0.76,6.39 0,5.88 0.08,13.19 0.25,21.93 0.17,8.66 0.25,14.54 0.25,17.48 0,20.34 -5.55,34.54 -16.72,42.61 -10.17,7.39 -21.68,11.09 -34.46,11.09 -6.72,0 -17.81,-1.85 -33.45,-5.46 -2.77,5.04 -5.88,14.96 -9.33,29.75 -4.62,18.66 -6.72,35.21 -6.39,49.66 0.17,8.49 2.86,12.77 8.15,12.77 1.93,0 4.45,-0.5 7.65,-1.51 18.99,-6.64 45.55,-27.14 79.5,-61.34 2.18,-2.1 4.29,-3.2 6.39,-3.2 3.11,0 4.71,1.51 4.71,4.46 0,1.76 -0.84,3.7 -2.44,5.63zm-28.82 -108.91c0,-6.39 -1.43,-9.58 -4.2,-9.58 -1.76,0 -4.45,1.34 -7.9,3.95 -16.14,12.94 -30.25,35.72 -42.44,68.15 3.27,0.51 8.99,1.01 17.23,1.51 13.28,0.5 23.19,-2.52 29.75,-9.08 4.87,-4.96 7.56,-13.11 8.07,-24.37 -0.34,8.32 -0.5,-1.85 -0.5,-30.59z"/>
   <path id="2" class="fil0" d="M882.42 436.98c-15.3,23.61 -27.65,35.46 -36.98,35.46 -11.51,0 -27.99,-15.46 -49.41,-46.3 -21.43,-30.92 -39.83,-65.55 -55.04,-103.95 -19.58,24.2 -33.11,52.52 -40.67,84.96 -1.85,7.23 -3.95,10.84 -6.39,10.84 -1.01,0 -2.94,-0.59 -5.97,-1.77 -13.62,-5.88 -20.42,-11.85 -20.42,-17.9 0,-0.84 1.01,-6.39 2.94,-16.55 18.91,-104.29 43.53,-193.37 73.95,-267.23 22.69,-55.21 43.11,-91.18 61.34,-107.9 4.62,-4.46 9.16,-6.64 13.62,-6.64 4.54,0 10.5,2.69 17.73,8.15 8.15,6.72 16.39,13.53 24.62,20.25 2.27,1.68 3.44,3.53 3.44,5.46 0,2.94 -1.85,4.46 -5.63,4.46 -1.85,0 -3.61,-0.51 -5.46,-1.43 -7.56,-3.78 -13.19,-5.63 -16.97,-5.63 -10.34,0 -21.68,10 -33.95,30 -44.2,72.02 -75.97,165.88 -95.29,281.69 3.95,-8.07 12.86,-23.36 26.89,-46.05 -1.77,-5.71 -2.69,-9.16 -2.69,-10.08 0,-3.95 5.55,-6.97 16.64,-9.16 22.18,-32.52 40.34,-54.37 54.54,-65.55 5.04,-3.95 8.99,-5.88 11.76,-5.88 2.77,0 7.9,4.03 15.38,12.1 11.76,4.7 17.65,10.59 17.65,17.65 0,2.35 -0.34,5.29 -1.01,8.91 -3.11,13.61 -7.48,25.54 -13.28,35.88 -2.94,5.46 -6.05,8.15 -9.33,8.15 -2.27,0 -5.88,-0.92 -10.76,-2.69 -9.33,-3.28 -14.03,-6.72 -14.03,-10.17 0,-2.1 1.51,-3.78 4.45,-4.96 6.81,-5.88 11.09,-17.56 12.69,-35.04 0.33,-4.12 -0.76,-6.14 -3.2,-6.14 -1.43,0 -3.36,0.93 -5.8,2.69 -17.98,13.19 -33.36,32.35 -46.22,57.4 24.96,77.31 53.45,125.72 85.3,145.21 3.95,2.27 7.98,3.45 12.1,3.45 5.88,0 10.42,-1.77 13.53,-5.29 3.11,-3.53 5.97,-5.29 8.4,-5.29 2.27,0 3.45,1.26 3.45,3.7 0,1.51 -0.67,3.19 -1.93,5.21z"/>
   <path id="3" class="fil0" d="M1055.19 28.49c2.1,1.68 3.2,3.36 3.2,5.13 0,3.11 -1.85,4.71 -5.63,4.71 -1.68,0 -3.36,-0.51 -5.21,-1.43 -7.56,-3.78 -13.19,-5.63 -16.97,-5.63 -10.34,0 -21.68,10 -34.03,30 -44.62,72.69 -76.39,166.56 -95.3,281.69 -0.5,3.19 -1.34,7.31 -2.44,12.6 3.78,-3.95 9.33,-10.34 16.72,-19.16 4.29,-5.13 7.39,-7.65 9.41,-7.65 4.29,0 4.54,2.52 0.92,7.65 -15.71,22.44 -26.22,45.88 -31.26,70.5 -1.85,6.05 -4.12,9.08 -6.89,9.08 -1.34,0 -3.11,-0.76 -5.21,-2.18 -8.4,-5.63 -13.19,-8.91 -14.29,-9.83 -3.28,-3.28 -4.96,-7.56 -4.96,-12.86 0,-2.61 0.42,-5.8 1.26,-9.58 18.99,-104.45 43.61,-193.45 73.62,-266.89 22.69,-55.46 42.94,-91.34 60.84,-107.73 4.96,-4.62 9.92,-6.81 14.79,-6.64 4.45,0.17 10.25,2.94 17.31,8.32 7.98,6.55 16.05,13.19 24.12,19.92z"/>
   <path id="4" class="fil0" d="M1135.11 240.01c-22.86,105.21 -44.29,183.87 -64.29,236.05 -38.74,101.43 -83.28,152.19 -133.53,152.19 -29.41,0 -61.01,-15.97 -94.79,-47.81 -2.94,-2.77 -4.45,-5.72 -4.45,-8.82 0,-4.96 2.27,-7.4 6.89,-7.4 2.27,0 4.54,0.93 6.64,2.69 26.81,22.77 50.67,34.12 71.68,34.12 38.57,0 73.62,-32.19 105.13,-96.47 24.79,-50.42 46.39,-117.99 64.79,-202.86 1.18,-6.05 3.03,-15.38 5.63,-27.82 -17.23,28.07 -36.47,55.63 -57.82,82.86 -20.59,26.3 -36.72,44.29 -48.57,54.12 -6.55,5.46 -11.76,8.15 -15.71,8.15 -3.11,0 -6.39,-1.77 -9.67,-5.21 -3.44,-4.37 -6.97,-8.74 -10.59,-13.03 -1.6,-1.94 -2.44,-3.78 -2.44,-5.46 0,-0.08 0,-0.25 0,-0.42 0.34,-2.02 1.77,-3.36 4.46,-4.2 7.82,-10.67 15.21,-33.78 22.1,-69.24 5.21,-27.98 8.82,-54.45 10.76,-79.58 0.34,-5.97 -0.42,-8.91 -2.18,-8.91 -0.51,0 -4.37,3.03 -11.51,8.99 -11.43,9.83 -17.65,14.71 -18.66,14.71 -2.27,0 -3.44,-1.18 -3.44,-3.45 0,-1.18 0.5,-2.35 1.51,-3.44 2.77,-3.53 8.91,-12.19 18.57,-25.97 8.66,-12.35 14.45,-18.57 17.4,-18.57 2.27,0 5.38,1.01 9.33,3.03 8.32,-1.34 12.94,-2.02 13.95,-2.02 5.55,0 8.32,4.29 8.32,12.77 0,14.29 -4.12,42.27 -12.27,83.87 -8.15,41.68 -14.79,68.57 -20,80.67 16.39,-12.94 37.82,-38.4 64.12,-76.3 25.63,-36.98 41.6,-64.79 47.81,-83.53 0.34,-11.01 2.69,-16.47 7.14,-16.47 3.45,0 9.92,3.53 19.25,10.59 5.29,3.95 6.72,11.35 4.45,22.19z"/>
   <path class="fil1" d="M23.26 489.81l0 22.65 10.66 0 0 15.14 -10.66 0 0 30.29 10.66 0 0 15.14 -20.35 0c-1.62,0 -3.03,-0.59 -4.24,-1.76 -1.21,-1.17 -1.82,-2.57 -1.82,-4.18l0 -39.49 -7.51 0 0 -15.14 7.51 0 0 -22.65 15.75 0z"/>
   <path id="1" class="fil1" d="M46.03 518.52c0,-1.7 0.59,-3.13 1.76,-4.3 1.17,-1.17 2.61,-1.76 4.3,-1.76l49.06 0c1.61,0 3.01,0.59 4.18,1.76 1.17,1.17 1.76,2.61 1.76,4.3l0 25.8c0,1.61 -0.59,3.03 -1.76,4.24 -1.17,1.21 -2.61,1.82 -4.3,1.82l-39.37 0 0 7.51 45.43 0 0 15.14 -55 0c-1.7,0 -3.13,-0.59 -4.3,-1.76 -1.17,-1.17 -1.76,-2.61 -1.76,-4.3l0 -48.46zm15.63 9.09l0 7.63 29.8 0 0 -7.63 -29.8 0z"/>
   <path id="2" class="fil1" d="M121.63 518.52c0,-1.7 0.59,-3.13 1.76,-4.3 1.17,-1.17 2.61,-1.76 4.3,-1.76l48.94 0c1.7,0 3.13,0.59 4.3,1.76 1.17,1.17 1.76,2.61 1.76,4.3l0 12.84 -15.63 0 0 -3.76 -29.8 0 0 30.29 29.8 0 0 -3.76 15.63 0 0 12.84c0,1.7 -0.59,3.13 -1.76,4.3 -1.17,1.17 -2.61,1.76 -4.3,1.76l-48.94 0c-1.7,0 -3.13,-0.59 -4.3,-1.76 -1.17,-1.17 -1.76,-2.61 -1.76,-4.3l0 -48.46z"/>
   <path id="3" class="fil1" d="M212.84 573.03l-15.63 0 0 -83.22 15.63 0 0 28.71c0,-1.61 0.61,-3.03 1.82,-4.24 1.21,-1.21 2.62,-1.82 4.24,-1.82l28.22 0c1.7,0 3.13,0.61 4.3,1.82 1.17,1.21 1.76,2.62 1.76,4.24l0 54.51 -15.63 0 0 -45.43 -18.65 0c-1.62,0 -3.03,0.59 -4.24,1.76 -1.21,1.17 -1.82,2.6 -1.82,4.3l0 39.37z"/>
   <path id="4" class="fil1" d="M283.35 573.03l-15.63 0 0 -60.57 15.63 0 0 6.06c0,-1.61 0.61,-3.03 1.82,-4.24 1.21,-1.21 2.62,-1.82 4.24,-1.82l28.22 0c1.7,0 3.13,0.61 4.3,1.82 1.17,1.21 1.76,2.62 1.76,4.24l0 54.51 -15.63 0 0 -45.43 -18.65 0c-1.62,0 -3.03,0.59 -4.24,1.76 -1.21,1.17 -1.82,2.6 -1.82,4.3l0 39.37z"/>
   <path id="5" class="fil1" d="M383.65 527.6l-29.8 0 0 30.29 29.8 0 0 -30.29zm15.63 39.37c0,1.7 -0.59,3.13 -1.76,4.3 -1.17,1.17 -2.61,1.76 -4.3,1.76l-48.94 0c-1.7,0 -3.13,-0.59 -4.3,-1.76 -1.17,-1.17 -1.76,-2.61 -1.76,-4.3l0 -48.33c0,-1.7 0.59,-3.15 1.76,-4.36 1.17,-1.21 2.61,-1.82 4.3,-1.82l48.94 0c1.7,0 3.13,0.61 4.3,1.82 1.17,1.21 1.76,2.62 1.76,4.24l0 48.46z"/>
   <path id="6" class="fil1" d="M429.45 489.81l0 68.08 5.45 0 0 15.14 -15.02 0c-1.7,0 -3.13,-0.59 -4.3,-1.76 -1.17,-1.17 -1.76,-2.57 -1.76,-4.18l0 -77.29 15.63 0z"/>
   <path id="7" class="fil1" d="M494.86 527.6l-29.8 0 0 30.29 29.8 0 0 -30.29zm15.63 39.37c0,1.7 -0.59,3.13 -1.76,4.3 -1.17,1.17 -2.61,1.76 -4.3,1.76l-48.94 0c-1.7,0 -3.13,-0.59 -4.3,-1.76 -1.17,-1.17 -1.76,-2.61 -1.76,-4.3l0 -48.33c0,-1.7 0.59,-3.15 1.76,-4.36 1.17,-1.21 2.61,-1.82 4.3,-1.82l48.94 0c1.7,0 3.13,0.61 4.3,1.82 1.17,1.21 1.76,2.62 1.76,4.24l0 48.46z"/>
   <path id="8" class="fil1" d="M559.19 557.89c1.7,0 3.15,-0.61 4.36,-1.82 1.21,-1.21 1.82,-2.62 1.82,-4.24l0 -24.23 -24.71 0 0 30.29 18.54 0zm-28.35 37.8c-1.61,0 -2.99,-0.59 -4.12,-1.76 -1.13,-1.17 -1.7,-2.61 -1.7,-4.3l0 -12.84 15.63 0 0 3.76 24.71 0 0 -13.57c0,1.61 -0.61,3.03 -1.82,4.24 -1.21,1.21 -2.62,1.82 -4.24,1.82l-28.22 0c-1.7,0 -3.13,-0.61 -4.3,-1.82 -1.17,-1.21 -1.76,-2.62 -1.76,-4.24l0 -48.46c0,-1.61 0.59,-3.03 1.76,-4.24 1.17,-1.21 2.61,-1.82 4.3,-1.82l28.22 0c1.62,0 3.03,0.59 4.24,1.76 1.21,1.17 1.82,2.61 1.82,4.3l0 -6.06 15.63 0 0 77.17c0,1.7 -0.61,3.13 -1.82,4.3 -1.21,1.17 -2.62,1.76 -4.24,1.76l-44.1 0z"/>
   <path id="9" class="fil1" d="M595.54 491.26c0,-0.97 0.48,-1.45 1.45,-1.45l12.72 0c0.97,0 1.45,0.49 1.45,1.45l0 12.23c0,0.97 -0.48,1.45 -1.45,1.45l-12.72 0c-0.97,0 -1.45,-0.48 -1.45,-1.45l0 -12.23zm15.63 81.77l-15.63 0 0 -60.57 15.63 0 0 60.57z"/>
   <path id="10" class="fil1" d="M625.7 518.52c0,-1.7 0.59,-3.13 1.76,-4.3 1.17,-1.17 2.61,-1.76 4.3,-1.76l49.06 0c1.61,0 3.01,0.59 4.18,1.76 1.17,1.17 1.76,2.61 1.76,4.3l0 25.8c0,1.61 -0.59,3.03 -1.76,4.24 -1.17,1.21 -2.61,1.82 -4.3,1.82l-39.37 0 0 7.51 45.43 0 0 15.14 -55 0c-1.7,0 -3.13,-0.59 -4.3,-1.76 -1.17,-1.17 -1.76,-2.61 -1.76,-4.3l0 -48.46zm15.63 9.09l0 7.63 29.8 0 0 -7.63 -29.8 0z"/>
   <path id="11" class="fil1" d="M707.35 573.03c-1.7,0 -3.13,-0.59 -4.3,-1.76 -1.17,-1.17 -1.76,-2.61 -1.76,-4.3l0 -12.84 15.63 0 0 3.76 29.8 0 0 -7.51 -39.37 0c-1.7,0 -3.13,-0.61 -4.3,-1.82 -1.17,-1.21 -1.76,-2.62 -1.76,-4.24l0 -25.8c0,-1.61 0.59,-3.03 1.76,-4.24 1.17,-1.21 2.61,-1.82 4.3,-1.82l9.57 0 39.37 0c1.7,0 3.13,0.61 4.3,1.82 1.17,1.21 1.76,2.62 1.76,4.24l0 12.96 -15.63 0 0 -3.88 -29.8 0 0 7.63 39.37 0c1.7,0 3.13,0.59 4.3,1.76 1.17,1.17 1.76,2.57 1.76,4.18l0 25.93c0,1.61 -0.59,3.01 -1.76,4.18 -1.17,1.17 -2.61,1.76 -4.3,1.76l-48.94 0z"/>
  </g>
 </g>
</svg>
