<?xml version="1.0" encoding="UTF-8"?>
<!DOCTYPE svg PUBLIC "-//W3C//DTD SVG 1.1//EN" "http://www.w3.org/Graphics/SVG/1.1/DTD/svg11.dtd">
<!-- Creator: CorelDRAW 2019 (64-Bit) -->
<svg xmlns="http://www.w3.org/2000/svg" xml:space="preserve" width="84.2483mm" height="84.2483mm" version="1.1" style="shape-rendering:geometricPrecision; text-rendering:geometricPrecision; image-rendering:optimizeQuality; fill-rule:evenodd; clip-rule:evenodd"
viewBox="0 0 17827.43 17827.43"
 xmlns:xlink="http://www.w3.org/1999/xlink">
 <defs>
  <style type="text/css">
   <![CDATA[
    .fil0 {fill:#53599C;fill-rule:nonzero}
    .fil1 {fill:white;fill-rule:nonzero}
   ]]>
  </style>
 </defs>
 <g id="Слой_x0020_1">
  <metadata id="CorelCorpID_0Corel-Layer"/>
  <g id="_1737502810112">
   <path class="fil0" d="M6062.78 470.63c2331.09,-787.11 4761.3,-554.77 6805.09,457.22 2043.84,1012.13 3701.79,2803.86 4488.92,5134.95 787.11,2331.09 554.77,4761.3 -457.22,6805.09 -1011.96,2043.77 -2803.86,3701.79 -5134.95,4488.92 -2331.09,787.11 -4761.15,554.7 -6805.09,-457.22 -2043.77,-1011.96 -3701.79,-2803.86 -4488.92,-5134.95 -787.11,-2331.09 -554.7,-4761.15 457.22,-6805.09 1012.13,-2043.84 2803.86,-3701.79 5134.95,-4488.92zm6294.64 1488.14c-1779.6,-881.15 -3895.87,-1083.4 -5926.44,-397.76 -2030.42,685.58 -3591.01,2129.58 -4472.22,3908.99 -880.98,1779.54 -1083.36,3896.04 -397.76,5926.44 685.65,2030.59 2129.41,3591.06 3908.99,4472.22 1779.54,880.98 3896.04,1083.36 5926.44,397.76 2030.59,-685.65 3591.06,-2129.41 4472.22,-3908.99 881.15,-1779.6 1083.4,-3895.87 397.76,-5926.44 -685.58,-2030.42 -2129.58,-3591.01 -3908.99,-4472.22z"/>
   <g>
    <path class="fil0" d="M8252.22 6756.11c8.1,12.87 14.18,25.52 17.82,36.31 15.87,47 -2.35,88.11 -54.87,123.24 -2.67,2.69 -54.83,30.34 -157.52,82.59 -270.77,136.44 -552.44,268.32 -843.88,395.05 -35.08,315.08 -41.71,809.54 -20.19,1482.95 17.56,614.88 49.62,1122.99 96.05,1524.41 13.71,130.39 -6.35,204.24 -59.16,222.08 -33.79,11.41 -108.34,16.31 -223.33,15.68 -40.82,1.78 -68.12,-13.75 -82.21,-44.86 14.09,31.11 -0.72,-18.05 -45.01,-149.22 -80.18,-237.42 -115.11,-466.27 -106.1,-687.02 4.3,-82.31 24.27,-129.4 59.67,-141.35 9.99,-3.39 30.07,-6.58 60.63,-8.46 30.51,-2.05 55.17,-4.99 73.15,-9.1 -11.83,-178.91 -19.13,-538.3 -20.42,-1077.96 -1.84,-609.26 -3.62,-943.78 -5.04,-1002.12 -242.61,103.07 -477.76,225.51 -706.02,367.86 -252.59,160.61 -408.95,293.37 -469.41,397.35 -66.91,119.96 -86.61,222.02 -57.64,307.8 30.94,91.58 132.95,216.92 305.88,375.33 18.66,17.54 30.85,34.58 37.01,52.77 13.63,40.4 1.27,66.44 -35.74,78.95 -25.6,8.63 -53.9,0.8 -85.74,-22.35 -188.1,-138.56 -319.36,-252.23 -392.23,-340.58 -51.17,-61.81 -105.49,-157.33 -162.45,-287.83 -83.65,-190.34 28.99,-389.95 338.93,-598.42 403.51,-271.28 824.14,-502.44 1263.12,-695.68 16.67,-119.49 37.22,-183.44 61.22,-191.55 37.01,-12.51 113.17,5.9 228.92,55.04 42,-14.2 165.84,-74.46 371.83,-179.72 36.84,-18.9 66.66,-61.24 90.36,-124.3 19.55,-58.95 94.82,-113.78 226.04,-165.43 71.5,-27.74 131.07,-17.54 177.73,30.89 7.66,6.75 47,65.89 118.63,177.64zm1486.3 2165.47c-223.18,633.76 -413.9,977.53 -573.9,1031.56 -75.82,25.6 -189.26,5.1 -341.02,-60.39 -140.4,-15.89 -226.04,-71.44 -258.1,-166.41 -6.09,-18.03 -10.62,-36.76 -14.09,-57.64 -45.64,-230.8 -69.09,-495.62 -69.6,-794.01 -69.66,-10.37 -109.44,-29.92 -118.69,-57.3 -7.49,-22.2 5.16,-39.4 38.98,-50.81 26.39,-8.91 55.33,-10.26 87.54,-4.63 34.3,-368.96 85.78,-640.81 153.92,-814.43 43.89,-114.88 94.82,-181.75 154.05,-201.77 27.21,-9.18 102.65,-8.82 226.52,1.71 -24.63,-45.85 -20.14,-78.74 12.68,-98.97 1.61,-0.55 39.42,-13.31 113.63,-38.36 70.19,-23.7 108.98,-23 117.08,0.99 1.63,4.82 3.66,18.83 6.5,43.7 2.52,23.91 7.32,46.13 13.73,65.13 19.53,57.77 44.52,129.14 75.1,214.38 30.3,84.45 50.57,141.8 60.29,170.62 67.4,199.61 60.07,357.36 -22.87,473.4 -75.27,106.29 -175.89,180.63 -301.28,222.95 -65.98,22.3 -180.88,41.01 -346.29,57.24 -10.47,58.76 -8.06,166.26 7.15,322.85 16.42,198.36 50.66,367.73 101.91,508.38 29.71,82.67 70.3,115.79 122.14,98.29 18.98,-6.43 42.15,-19.62 70.17,-40.21 164.27,-127.92 356.94,-417.12 576.65,-865.17 14.45,-27.85 31.42,-45.58 52.01,-52.54 30.6,-10.33 51.25,-0.63 60.98,28.19 5.82,17.22 4.02,39 -5.18,63.25zm-643.6 -972.98c-21.14,-62.61 -45.75,-89.28 -72.94,-80.09 -17.39,5.88 -39.34,28 -64.5,65.01 -115.39,180.27 -178.49,450.64 -190.47,809.2 33.67,-5.99 91.52,-19.98 174,-42.28 131.92,-38.98 219.08,-101.57 261.78,-187.55 31.34,-64.92 30.77,-153.67 -1.57,-265.92 24.17,82.74 -11.09,-16.36 -106.31,-298.36zm3303.74 1131.12c-71.97,282.35 -153.94,439.48 -245.36,470.36 -113,38.15 -325.81,-58.91 -638.2,-290.53 -312.69,-232.43 -607.96,-511.09 -884.43,-837.51 -111.85,302.26 -150.83,624.91 -117.59,968.2 5.78,77.13 -2.86,119.49 -26.68,127.56 -9.99,3.36 -30.94,3.98 -64.48,2.39 -153.05,-12.51 -239.62,-48.54 -259.68,-107.94 -2.77,-8.21 -11.17,-66 -25.88,-172.2 -160.02,-1085.71 -213.55,-2041.32 -159.8,-2866.75 39.72,-616.83 120.93,-1037.48 244.36,-1261.89 30.66,-58.95 67.97,-95.58 111.6,-110.31 44.59,-15.05 111.92,-8.38 201,21.25 102.29,38.98 205.66,78.51 308.73,117.21 27.76,8.93 45.5,23.19 51.91,42.19 9.73,28.82 -3.45,49.77 -40.65,62.32 -18.03,6.09 -37.09,6.96 -58.32,4.08 -86.76,-12.13 -148.06,-11.51 -185.09,0.99 -101.4,34.24 -179.7,169.88 -233.82,406.75 -195.04,853.07 -195.67,1879.33 -1.67,3079.46 12.06,-92.3 48.8,-271.83 111.26,-540.93 -36.31,-50.13 -56.73,-80.9 -59.82,-90.08 -13.06,-38.62 31.3,-86.78 132.89,-144.93 110.06,-392.57 215.69,-667.09 318.06,-823.76 36.31,-55.48 68.69,-87.58 95.9,-96.77 27.21,-9.18 90.8,13.46 190.93,67.86 131.01,7.24 208.26,45.35 231.62,114.56 7.83,23.17 14.18,53.13 19.53,90.78 14.71,143.87 11.24,275.4 -11.34,396 -10.71,63.33 -32.38,100.05 -64.58,110.92 -22.22,7.49 -60.67,10.43 -114.35,9.2 -102.4,-1.12 -160.02,-19.32 -171.42,-53.11 -6.96,-20.61 2.41,-42.24 27.32,-63.57 47.34,-80.18 50.66,-208.96 8.38,-385.67 -10.26,-41.54 -27.72,-57.7 -51.55,-49.64 -14.01,4.72 -29.96,20.14 -48.12,45.47 -132.68,189.13 -220.01,428.08 -263.26,716.33 500.91,675.78 940.91,1056.38 1317.92,1142.12 46.28,9.1 89.78,7.32 130.2,-6.31 57.62,-19.47 96.34,-51.91 115.07,-96.79 18.9,-44.92 41.09,-71.61 64.92,-79.65 22.37,-7.55 37.92,0.8 46.02,24.8 4.99,14.81 4,33.6 -1.54,57.54zm341.81 -4580.23c26.15,9.46 42.53,22.39 48.35,39.61 10.33,30.58 -2.58,52.33 -39.78,64.9 -16.4,5.54 -34.51,6.09 -55.74,3.22 -86.76,-12.13 -148.06,-11.51 -185.24,1.04 -101.42,34.26 -179.55,169.83 -234.5,406.98 -196.98,861.07 -197.62,1887.33 -1.82,3079.5 5.61,33.07 11.05,76.24 17.92,131.66 23.91,-51.29 57.18,-132.27 100.53,-243.39 25.05,-64.41 47.27,-99.52 67.08,-106.2 42,-14.2 52.8,9.78 34.34,71.97 -79.86,272.25 -105.21,537.06 -73.05,795.36 1.86,65.53 -10.35,102.65 -37.54,111.83 -13.2,4.46 -33.1,2.92 -58.42,-4.13 -101.06,-27.38 -158.94,-43.7 -172.75,-49.07 -43.06,-21.33 -73.66,-57.79 -91.22,-109.78 -8.63,-25.58 -15.07,-58.4 -19.34,-98.19 -159.83,-1087.76 -213.02,-2042.4 -161.96,-2862.45 38.85,-619.39 118.63,-1038.5 239.94,-1258.59 33.33,-61.64 74.82,-99.69 123.24,-114.06 44.16,-13.12 110.33,-5.16 197.36,24.27 100.07,37.75 201.13,76.24 302.6,115.52zm1484.77 1810.39c124.34,1107.99 174.72,1950.79 151.19,2528.96 -43.99,1123.58 -312.84,1769.17 -805.88,1935.64 -288.44,97.4 -651.41,45.3 -1088.33,-155.21 -38.15,-17.42 -62.7,-41.24 -73.03,-71.82 -16.4,-48.61 -2.24,-79.92 43.15,-95.26 22.22,-7.49 47.63,-6.03 74.06,4.23 338.51,134.77 610.1,166.96 816.31,97.34 378.41,-127.77 615.6,-559.68 711.86,-1294.75 76.2,-576.77 64.16,-1311.32 -36.42,-2204.97 -8.46,-63.31 -21.31,-160.82 -36.97,-291.64 -76.01,332.47 -173.52,666.66 -292.69,1004.58 -114.9,326.23 -213.55,556.08 -297.33,691.95 -46.11,75.29 -88.45,118.82 -127.07,131.85 -30.6,10.33 -68.6,3.98 -112.05,-19 -48.27,-31.4 -97.53,-62.66 -147.13,-92.7 -22.03,-13.71 -36.4,-29.14 -41.94,-45.56 -0.25,-0.8 -0.8,-2.41 -1.4,-4.19 -3.47,-20.89 6.14,-38.64 29.71,-55.93 41.28,-130.5 37.28,-381.82 -12.55,-752.49 -41.54,-291.89 -93.85,-563.63 -158.07,-816.48 -16.57,-59.69 -33.71,-86 -50.93,-80.18 -4.97,1.67 -32.97,44.12 -83.2,126.35 -79.63,134.31 -124.51,202.72 -134.33,206.04 -22.2,7.49 -37.64,-0.02 -45.2,-22.39 -3.87,-11.45 -2.79,-24.72 3.39,-38.81 15.51,-43.8 47.08,-148.95 96.24,-316.18 44.06,-149.9 80.28,-230.1 109.08,-239.81 22.39,-7.55 56.12,-8.02 101.59,-1.31 77.15,-40.76 120.32,-62.68 130.14,-66 54.4,-18.37 95.79,14.45 123.94,97.83 47.29,140.04 99.62,428.29 157.46,863.52 58.21,435.8 82.1,721.64 71.04,857.72 117.91,-181.3 243.79,-502.12 376.43,-961.11 128.91,-447.72 193.41,-773.44 192.33,-977.85 -33.07,-109.15 -28.16,-170.53 15.47,-185.26 33.79,-11.41 109.06,1.74 223.86,40.08 65.09,21.22 103.56,88.94 117.27,202.82z"/>
    <path class="fil0" d="M4144.11 12444.37l75.06 222.29 104.62 -35.32 50.17 148.57 -104.62 35.32 100.32 297.16 104.64 -35.34 50.15 148.57 -199.76 67.46c-15.76,5.31 -31.72,4.25 -47.34,-3.22 -15.76,-7.41 -26.34,-19.07 -31.72,-35l-130.84 -387.45 -73.72 24.91 -50.15 -148.59 73.7 -24.88 -75.06 -222.29 154.54 -52.18zm318.53 206.25c-5.59,-16.57 -4.59,-32.69 2.98,-47.99 7.72,-15.34 19.79,-25.86 36.52,-31.51l481.28 -162.51c15.93,-5.37 31.42,-4.15 46.87,3.36 15.28,7.55 25.86,19.76 31.47,36.35l85.49 253.19c5.33,15.79 4.25,31.74 -3.2,47.36 -7.58,15.83 -19.57,26.51 -36.14,32.1l-386.33 130.45 24.91 73.72 445.71 -150.52 50.17 148.57 -539.55 182.19c-16.74,5.65 -32.71,4.59 -48.16,-2.92 -15.28,-7.58 -25.86,-19.79 -31.44,-36.35l-160.57 -475.5zm183.5 37.37l25.29 74.87 292.31 -98.71 -25.29 -74.84 -292.31 98.69zm558.22 -287.83c-5.59,-16.57 -4.57,-32.69 2.98,-47.99 7.74,-15.34 19.79,-25.86 36.52,-31.51l480.15 -162.13c16.59,-5.61 32.54,-4.53 47.99,2.98 15.28,7.58 25.86,19.79 31.47,36.35l42.55 126.03 -153.39 51.8 -12.44 -36.86 -292.31 98.71 100.32 297.14 292.31 -98.71 -12.44 -36.86 153.39 -51.8 42.55 126.05c5.61,16.57 4.59,32.69 -2.98,47.97 -7.72,15.34 -19.76,25.88 -36.35,31.47l-480.15 162.13c-16.74,5.65 -32.69,4.59 -48.14,-2.92 -15.3,-7.58 -25.88,-19.79 -31.47,-36.35l-160.57 -475.5zm1075.74 232.64l-153.39 51.8 -275.72 -816.59 153.39 -51.78 95.12 281.69c-5.33,-15.79 -4.04,-31.64 3.85,-47.57 7.72,-15.89 19.72,-26.56 35.49,-31.89l277.01 -93.55c16.59,-5.59 32.61,-4.36 48.2,3.64 15.47,8.04 25.92,19.93 31.25,35.7l180.61 534.9 -153.39 51.8 -150.49 -445.73 -183.02 61.81c-15.79,5.33 -27.83,15.85 -35.72,31.25 -8.06,15.45 -9.23,31.61 -3.62,48.2l130.43 386.31zm691.68 -233.55l-153.41 51.8 -200.67 -594.29 153.41 -51.78 20.04 59.38c-5.31,-15.76 -4.04,-31.61 3.85,-47.55 7.72,-15.89 19.72,-26.56 35.51,-31.89l277.01 -93.55c16.57,-5.59 32.59,-4.36 48.2,3.64 15.45,8.04 25.92,19.93 31.25,35.7l180.61 534.9 -153.39 51.8 -150.52 -445.73 -183.02 61.81c-15.76,5.33 -27.83,15.85 -35.7,31.25 -8.06,15.45 -9.23,31.61 -3.64,48.2l130.45 386.31zm833.47 -777.97l-292.31 98.71 100.32 297.14 292.31 -98.71 -100.32 -297.14zm283.85 334.53c5.59,16.57 4.57,32.69 -2.98,47.99 -7.74,15.34 -19.79,25.86 -36.35,31.44l-480.18 162.13c-16.74,5.67 -32.69,4.59 -48.14,-2.92 -15.28,-7.58 -25.86,-19.79 -31.47,-36.35l-160.12 -474.21c-5.65,-16.74 -4.63,-32.86 2.77,-48.63 7.55,-15.83 19.55,-26.51 36.29,-32.16l480.18 -162.13c16.57,-5.61 32.59,-4.38 48.2,3.62 15.45,8.06 25.92,19.95 31.23,35.72l160.57 475.5zm40.33 -857.13l225.57 668 53.43 -18.05 50.17 148.57 -147.28 49.75c-16.74,5.65 -32.71,4.57 -48.16,-2.94 -15.28,-7.58 -25.69,-19.3 -31.08,-35.23l-256.04 -758.29 153.39 -51.8zm767.01 154.15l-292.31 98.69 100.32 297.16 292.31 -98.71 -100.32 -297.14zm283.83 334.53c5.61,16.57 4.59,32.69 -2.98,47.97 -7.72,15.34 -19.76,25.88 -36.35,31.47l-480.15 162.13c-16.74,5.65 -32.69,4.59 -48.14,-2.92 -15.3,-7.58 -25.88,-19.79 -31.47,-36.35l-160.12 -474.21c-5.65,-16.74 -4.63,-32.86 2.77,-48.63 7.55,-15.83 19.55,-26.51 36.29,-32.16l480.15 -162.13c16.59,-5.61 32.61,-4.38 48.2,3.62 15.45,8.06 25.92,19.95 31.25,35.72l160.55 475.5zm447.8 -250.56c16.59,-5.59 28.91,-16.38 36.63,-32.27 7.89,-15.93 9.16,-31.78 3.83,-47.55l-80.26 -237.76 -242.42 81.87 100.32 297.14 181.9 -61.43zm-152.93 464.79c-15.93,5.37 -31.25,4.11 -46.21,-3.58 -15.02,-7.85 -25.37,-19.95 -30.98,-36.52l-42.55 -126.03 153.39 -51.8 12.46 36.86 242.39 -81.85 -44.95 -133.12c5.33,15.76 4.04,31.61 -3.83,47.55 -7.74,15.89 -19.72,26.58 -35.51,31.91l-276.86 93.47c-16.74,5.67 -32.76,4.44 -48.35,-3.55 -15.47,-8.06 -25.92,-19.95 -31.25,-35.72l-160.55 -475.5c-5.33,-15.76 -4.21,-31.57 3.2,-47.34 7.55,-15.83 19.55,-26.51 36.29,-32.16l276.86 -93.49c15.76,-5.33 31.74,-4.25 47.34,3.2 15.79,7.41 26.51,19.57 32.12,36.14l-20.06 -59.4 153.39 -51.78 255.68 757.17c5.59,16.59 4.36,32.59 -3.64,48.2 -8.04,15.45 -19.93,25.92 -35.7,31.25l-432.69 146.09zm288.59 -1238.8c-3.22,-9.48 -0.02,-15.96 9.48,-19.15l124.74 -42.13c9.5,-3.2 15.96,0 19.17,9.5l40.54 120.07c3.22,9.5 -0.04,15.81 -9.54,19l-124.74 42.13c-9.5,3.2 -15.91,0.17 -19.11,-9.33l-40.54 -120.09zm424.29 750.46l-153.41 51.8 -200.67 -594.29 153.41 -51.78 200.67 594.27zm-38 -583.04c-5.61,-16.59 -4.59,-32.71 2.98,-47.99 7.72,-15.34 19.79,-25.86 36.52,-31.53l481.28 -162.51c15.93,-5.37 31.42,-4.15 46.87,3.36 15.28,7.58 25.86,19.79 31.47,36.38l85.49 253.19c5.33,15.79 4.25,31.74 -3.2,47.36 -7.58,15.81 -19.57,26.49 -36.14,32.1l-386.33 130.43 24.91 73.72 445.71 -150.49 50.17 148.57 -539.55 182.19c-16.74,5.65 -32.71,4.59 -48.16,-2.94 -15.28,-7.55 -25.86,-19.76 -31.47,-36.35l-160.55 -475.48zm183.5 37.37l25.29 74.84 292.31 -98.69 -25.29 -74.84 -292.31 98.69zm798.39 226.95c-16.74,5.65 -32.69,4.59 -48.14,-2.92 -15.3,-7.58 -25.88,-19.79 -31.47,-36.38l-42.55 -126.03 153.39 -51.8 12.44 36.86 292.31 -98.69 -24.88 -73.72 -386.16 130.39c-16.74,5.65 -32.76,4.42 -48.37,-3.58 -15.38,-7.89 -25.92,-19.93 -31.23,-35.72l-85.51 -253.19c-5.31,-15.79 -4.19,-31.57 3.22,-47.36 7.55,-15.81 19.55,-26.49 36.29,-32.14l93.85 -31.7 386.31 -130.43c16.59,-5.61 32.59,-4.38 48.2,3.62 15.45,8.06 25.92,19.93 31.25,35.72l42.93 127.15 -153.39 51.8 -12.82 -37.98 -292.31 98.69 25.27 74.84 386.31 -130.43c16.59,-5.61 32.54,-4.53 47.99,2.98 15.34,7.72 25.75,19.45 31.08,35.23l85.87 254.33c5.4,15.93 4.21,31.57 -3.36,46.85 -7.72,15.34 -19.76,25.86 -36.35,31.47l-480.15 162.13z"/>
   </g>
   <path class="fil1" d="M3606.59 2216.49l-124.02 104.28 307.76 365.55 -52.2 43.97 -307.76 -365.53 -123.98 104.45 -38.36 -45.69 300.21 -252.7 38.36 45.66zm529.1 71.5c3.17,14.71 5.02,30.22 5.12,46.51 0.38,16.55 -1.8,32.33 -6.41,47.89 -4.57,15.7 -11.7,30.66 -20.99,45.64 -9.56,14.71 -22.56,28.23 -38.53,40.44 -19.55,14.85 -40.63,25.2 -64.14,30.98 -23.19,5.69 -46.45,6.37 -69.83,2.43 -23.66,-3.68 -46.15,-12.4 -68.05,-25.79 -21.92,-13.39 -41.71,-31.66 -59.42,-54.89 -17.46,-22.98 -29.96,-46.74 -36.82,-71.31 -7.09,-24.69 -9.59,-48.58 -7.47,-72.07 2.26,-23.55 8.74,-45.81 19.87,-66.42 11,-20.57 25.92,-37.98 44.46,-52.14 18.54,-14.14 38.75,-23.83 60.75,-29.29 22.11,-5.14 44.29,-5.82 66.83,-1.78 22.26,3.79 44.37,12.46 65.75,25.86 21.5,13.18 41.22,31.28 58.68,54.26 3.51,4.55 6.09,8.51 8,12 1.95,3.64 3.68,6.64 4.91,9.27 1.52,2.9 3.05,5.8 4.51,8.53l-217 165.62c9.16,10.18 20.38,18.41 33.52,24.91 13.01,6.18 26.41,10.26 40.18,12.25 13.8,1.61 27.72,0.87 41.67,-2.41 14.11,-3.34 26.73,-9.04 37.43,-17.12 9.71,-7.41 16.82,-15 22.32,-23.68 5.12,-8.19 9.44,-16.63 12.95,-24.82 3.62,-8.4 5.63,-16.25 6.41,-23.51 0.89,-7.47 1.12,-14.18 1.16,-19.93l54.15 -41.41zm-265.92 -81.28c-10.24,7.94 -18.54,17.9 -24.5,29.43 -6.14,11.57 -9.8,24.1 -11.66,37.64 -1.78,13.33 -0.93,27.57 2.09,42.34 3.22,14.85 8.65,29.35 16.51,43.55l165.94 -126.69c-24.23,-24.46 -49.85,-38.75 -77.11,-43 -27.09,-4.3 -50.87,1.23 -71.27,16.72zm461.83 71.97l-52.63 36.42 -304.88 -442.53 52.67 -36.25 304.84 442.36zm133.59 -91.9l-247.16 -72.92 15.19 -233.76 59.65 -41.12 -17.75 229.95 253.17 74.29 -63.1 43.55zm165.54 -105.04l-54.45 33.62 -281.96 -457.45 54.45 -33.62 281.96 457.45zm-143.57 -362.52l58.15 -35.95 253.04 190.17 -56.92 -310.89 58.32 -36.02 77.96 443.31c7.26,41.12 8.08,72.77 2.16,95.56 -5.71,22.39 -19.19,40.37 -40.59,53.52 -2.84,1.67 -5.57,3.13 -8.19,4.38 -2.79,1.31 -5.27,2.5 -7.94,3.58 -2.58,0.87 -5.37,1.63 -8,1.8l-26.87 -43.46c16.61,-10.26 26.62,-21.54 30.39,-33.75 3.49,-12.46 3.7,-27.78 0.85,-45.83l-7.87 -45.03 -324.48 -241.38zm840.94 -557.77l-145.63 71.06 209.36 429.43 -61.28 29.84 -209.55 -429.37 -145.63 71.06 -26.15 -53.58 352.73 -171.99 26.15 53.56zm494.67 195.21c-0.49,15.05 -2.62,30.47 -6.6,46.34 -3.58,15.91 -9.65,30.87 -18.03,44.82 -8.17,14.05 -18.92,26.83 -31.72,38.85 -12.78,12.04 -28.65,21.88 -47.32,29.79 -22.43,9.54 -45.56,14.3 -69.68,14.03 -23.91,-0.19 -46.6,-5.25 -68.35,-14.94 -21.84,-9.48 -41.45,-23.49 -59.52,-41.94 -17.86,-18.37 -32.5,-41.03 -43.89,-67.86 -11.34,-26.64 -17.39,-52.58 -18.13,-78.15 -0.63,-25.79 2.81,-49.54 10.73,-71.76 7.91,-22.22 19.83,-42.22 35.72,-59.4 15.72,-17.16 34.58,-30.34 56.03,-39.55 21.35,-9.01 43.53,-13.44 66.19,-13.2 22.58,0.44 44.29,5.31 65.07,14.79 20.72,9.31 39.91,23.11 57.22,41.45 17.75,18.05 32.19,40.61 43.46,67.1 2.26,5.14 3.79,9.65 4.89,13.42 0.8,4.02 1.8,7.47 2.39,10.31 0.72,3.17 1.42,6.33 2.24,9.29l-251.39 106.76c6.37,12.02 15.24,22.83 26.34,32.35 11.05,9.35 23,16.61 36.08,21.88 12.8,5.02 26.45,7.74 40.76,8.13 14.6,0.25 28.14,-2.16 40.69,-7.47 11.09,-4.82 20,-10.35 27.32,-17.31 7.07,-6.69 13.29,-13.8 18.73,-21.01 5.5,-7.07 9.56,-14.18 12.06,-21.12 2.67,-6.98 4.46,-13.33 6.01,-18.88l62.7 -26.73zm-237.51 -144.67c-11.89,5.1 -22.24,12.72 -30.79,22.41 -8.95,9.65 -15.55,20.86 -20.72,33.73 -4.95,12.42 -7.81,26.28 -8.61,41.45 -0.47,15.05 1.14,30.45 5.25,46.28l192.29 -81.6c-17.42,-29.82 -38.77,-50.04 -64.12,-60.84 -25.2,-10.88 -49.58,-11.43 -73.3,-1.44zm395.89 -158.43c-13.9,5.06 -26.24,13.16 -37.26,24.06 -10.79,11 -19.55,23.83 -25.63,38.79 -5.9,14.9 -9.01,31.19 -9.27,49.03 -0.25,17.84 3.32,36.35 10.33,55.5 6.94,19.53 16.25,35.95 27.85,49.6 11.83,13.75 24.55,24.36 38.77,31.93 14.37,7.51 29.27,11.81 44.63,13.25 15.43,1.08 29.92,-0.59 43.82,-5.65 11.85,-4.19 22.09,-10.52 31.04,-18.56 8.78,-7.98 16.25,-17.14 21.92,-26.94 5.54,-10.11 9.69,-20.67 12.23,-31.74 2.65,-11.3 3.62,-22.75 3.41,-33.98l60.03 -21.88c2.18,19.72 1.93,39.17 -1.48,58.78 -3.22,19.19 -9.42,37.43 -18.71,54.55 -9.23,16.74 -21.14,31.89 -36.04,45.16 -14.88,13.29 -32.29,23.3 -52.1,30.51 -22.96,8.46 -46.15,12 -70.34,10.47 -23.81,-1.46 -46.34,-7.66 -67.4,-18.49 -21.37,-10.71 -40.23,-25.67 -57.18,-45.05 -17.1,-19.34 -30.37,-42.66 -40.35,-70.13 -9.88,-27.15 -14.6,-53.35 -13.94,-79.03 0.66,-25.67 5.4,-49.33 14.88,-71.18 9.31,-21.8 22.45,-41.28 39.78,-57.92 17.35,-16.61 37.56,-28.99 60.58,-37.31 19.64,-7.15 39.44,-10.62 59.38,-10.01 19.93,0.63 38.81,4.49 56.88,11.83 18.03,7.17 34.45,17.06 49.28,29.62 15.02,12.68 27.87,27.34 38.89,44.06l-60.03 21.88c-6.86,-9.16 -14.88,-17.01 -24.38,-23.87 -9.1,-6.77 -19.17,-12.17 -29.92,-16.42 -10.66,-3.94 -22.16,-6.14 -33.98,-6.64 -12.08,-0.21 -23.91,1.44 -35.7,5.78zm399.47 -200.33c19.81,-6.16 39.23,-8.06 58.81,-5.33 19.51,2.56 37.92,8.72 55.42,18.58 17.06,9.67 32.86,22.98 46.57,40.23 13.65,17.08 24.25,37.35 31.66,60.86l65.94 211.73 -61.32 19.11 -65.94 -211.75c-4.74,-15.07 -11.45,-28.04 -20.25,-39.23 -8.76,-11.05 -18.66,-19.7 -29.5,-26.28 -10.98,-6.5 -22.56,-10.5 -34.85,-11.89 -12.48,-1.35 -24.67,-0.28 -36.48,3.53 -29.07,8.93 -49.64,25.54 -62.13,49.66 -12.42,24.27 -13.75,51.63 -4.19,82.65l66.11 211.69 -61.18 19.04 -159.95 -513 61.18 -19.04 59.59 191.29c4.82,-11.68 11.34,-22.66 19.53,-32.95 7.43,-8.78 16.59,-17.8 28,-27.02 11.24,-9.18 25.6,-16.55 43,-21.88zm433.66 -124.55c19.98,-5.14 39.63,-5.86 59.14,-2.22 19.36,3.68 37.33,10.71 54.23,21.5 16.65,10.52 31.53,24.84 44.18,42.64 12.8,17.73 22.01,38.64 28.12,62.59l54.93 214.74 -61.73 15.83 -54.93 -214.76c-3.77,-15.4 -9.9,-28.76 -18.11,-40.33 -8.36,-11.51 -17.75,-20.72 -28.57,-27.83 -10.62,-6.98 -22.03,-11.55 -34.01,-13.61 -12.21,-2.16 -24.74,-1.52 -36.8,1.48 -29.37,7.58 -50.85,23.09 -64.46,46.51 -13.46,23.36 -16.19,50.83 -8.13,82.17l54.78 214.8 -62.21 15.98 -95.03 -372.26 45.56 -11.62 27.34 37.39c5.65,-10.35 12.76,-20.1 21.33,-29.27 7.74,-8.36 17.82,-16.78 29.82,-24.78 11.96,-8.15 26.7,-14.39 44.52,-18.96zm344.03 118.73c4.02,20.34 10.64,37.84 20.1,53.11 9.5,15.43 20.67,27.8 33.56,37.26 12.97,9.78 27.19,16.27 42.09,20.04 15.11,3.32 29.67,3.96 44.27,0.99 14.28,-2.84 27.8,-9.01 40.06,-17.82 12.34,-9.18 22.43,-20.67 30.49,-34.51 8.06,-13.84 13.69,-29.54 16.63,-47.4 3.15,-17.73 2.71,-36.59 -1.29,-56.94 -4.06,-19.98 -11.05,-37.52 -20.67,-52.73 -9.56,-15.05 -20.67,-27.25 -33.52,-37.09 -12.7,-9.52 -26.43,-16.19 -41.33,-19.93 -14.85,-3.6 -29.73,-4.13 -44.01,-1.29 -14.43,2.92 -27.78,9.04 -40.33,18.11 -12.48,9.23 -22.92,20.82 -31.19,34.56 -8.21,13.9 -13.69,29.54 -16.51,47.19 -3.05,17.52 -2.39,36.48 1.65,56.46zm288.71 -57.85c5.71,28.55 6.18,55.46 1.82,80.79 -4.68,25.44 -12.97,48.14 -25.52,68.33 -12.23,20.08 -28.48,37.24 -47.93,50.81 -19.57,13.78 -41.39,22.94 -65.45,27.64 -24,4.89 -47.46,4.93 -71.14,-0.36 -23.38,-5.02 -44.69,-14.49 -63.93,-28.44 -19.51,-13.67 -35.91,-31.44 -49.64,-52.99 -13.94,-21.67 -23.7,-46.87 -29.41,-75.44 -5.63,-28.4 -6.39,-55.04 -1.8,-80.26 4.36,-25.31 12.7,-47.87 25.56,-68.16 12.4,-20.14 28.29,-37.35 47.99,-51.17 19.72,-13.84 41.39,-22.96 65.39,-27.83 24.06,-4.72 47.74,-4.63 71.18,0.53 23.13,5.29 44.71,15.02 63.74,28.86 19.49,13.69 35.74,31.51 49.85,53.11 13.82,21.33 23.7,46.32 29.29,74.57zm188.79 163.44l-63.31 9.54 -80.56 -531.19 63.25 -9.71 80.62 531.36zm122.94 -213.13c3.05,20.67 8.87,38.43 17.56,54.15 8.76,15.87 19.34,28.61 31.74,38.77 12.46,10.33 26.34,17.48 41.14,21.99 14.85,4.13 29.41,5.31 44.08,3.05 14.49,-2.2 28.27,-7.58 40.86,-15.96 12.87,-8.65 23.57,-19.43 32.06,-33.05 8.93,-13.42 15.05,-28.76 18.94,-46.38 3.91,-17.65 4.55,-36.5 1.4,-56.96 -3.03,-20.14 -9.29,-38.11 -18.09,-53.6 -8.82,-15.49 -19.45,-28.4 -31.91,-38.72 -12.23,-10.22 -25.58,-17.35 -40.37,-21.86 -14.52,-4.25 -29.31,-5.54 -43.8,-3.32 -14.66,2.24 -28.23,7.72 -41.14,16.21 -12.87,8.65 -23.89,19.55 -32.82,32.97 -8.87,13.56 -15.13,28.95 -18.77,46.32 -3.81,17.42 -3.89,36.29 -0.87,56.41zm291.02 -44.1c4.36,28.82 3.77,55.74 -1.95,80.79 -5.86,25.12 -15.17,47.46 -28.63,67.06 -13.31,19.55 -30.22,35.85 -50.32,48.56 -20.21,12.91 -42.47,20.78 -66.68,24.48 -24.23,3.68 -47.7,2.65 -70.99,-3.64 -23.07,-6.2 -44.01,-16.72 -62.44,-31.47 -18.92,-14.6 -34.45,-33.01 -47.38,-55.36 -12.72,-22.26 -21.31,-47.7 -25.71,-76.69 -4.25,-28.5 -3.6,-55.27 1.99,-80.11 5.65,-25.22 15.02,-47.38 28.65,-67.06 13.35,-19.38 30.15,-35.99 50.43,-48.75 20.36,-12.97 42.51,-21.18 66.57,-24.82 24.27,-3.53 47.97,-2.39 71.1,3.98 22.9,6.24 43.89,16.91 62.32,31.68 18.77,14.64 34.3,33.05 47.23,55.42 12.89,22.18 21.56,47.4 25.82,75.92zm367.07 99.84c-6.41,10.24 -14.33,19.72 -24.02,28.19 -8.46,7.34 -19.38,14.26 -32.69,21.08 -13.35,6.67 -29.5,10.88 -48.63,12.65 -24.1,2.41 -47.65,0.15 -69.49,-6.64 -22.22,-6.86 -42.02,-17.73 -59.12,-32.76 -17.18,-14.83 -31.44,-33.14 -43.02,-55.23 -11.15,-21.88 -18.13,-46.79 -20.82,-74.38 -2.73,-27.76 -0.85,-53.52 5.71,-77.62 6.79,-23.97 17.18,-44.71 31.19,-62.7 13.84,-17.94 30.87,-32.31 51.25,-43.68 20.25,-11.13 42.53,-17.94 67.18,-20.34 19.38,-2.07 36.14,-1.27 50.62,2.26 14.2,3.28 26.2,8.02 35.44,13.14 11.15,5.9 20.63,12.76 28.93,20.36l12.63 -44.44 46.49 -4.59 36.86 369.34c2.22,22.01 0.21,43.15 -5.99,63 -6.26,20.21 -16.04,38.05 -29.52,53.9 -13.25,15.4 -30.03,28.42 -50.17,38.28 -20.12,10.01 -42.87,16.44 -68.22,18.9 -22.03,2.24 -42.11,1.14 -60.35,-2.92 -18.28,-4.23 -34.26,-11.22 -48.2,-20.12 -14.07,-9.25 -26.26,-20.38 -36.5,-33.22 -10.16,-13.08 -17.94,-27.11 -23.49,-42.47l63.48 -6.37c7.96,13.99 19.28,25.77 34.51,35.34 15.3,9.71 36.76,13.23 64.69,10.43 32.27,-3.2 56.99,-14.94 74.36,-35.7 17.44,-20.59 24.86,-44.8 22.07,-72.73l-5.18 -50.95zm-234.48 -113.42c2.01,19.23 6.54,36.35 14.11,51.36 7.32,14.75 17.03,27.06 28.52,37.18 11.81,10.01 24.88,17.42 39.08,22.3 14.52,4.78 29.79,6.43 45.75,4.82 15.79,-1.57 30.39,-6.14 43.4,-13.75 13.18,-7.68 24.59,-17.46 33.94,-29.58 9.35,-12.13 16.29,-26.11 20.63,-42.47 4.4,-16.19 5.67,-33.65 3.87,-52.77 -1.9,-19.45 -6.79,-36.61 -14.22,-51.67 -7.58,-15.02 -17.18,-27.55 -28.71,-37.28 -11.6,-9.9 -24.53,-17.37 -39,-21.99 -14.41,-4.99 -29.52,-6.71 -45.3,-5.14 -15.79,1.57 -30.32,6.31 -43.51,13.97 -13.46,7.43 -24.65,17.29 -34.22,29.31 -9.42,11.98 -16.46,26.18 -20.74,42.15 -4.34,16.36 -5.52,34.13 -3.62,53.58zm475.54 171l-64.07 2.98 -18.52 -383.58 64.18 -3.22 18.41 383.81zm-96.07 -488.49c-0.59,-11.81 2.81,-21.92 10.03,-29.75 7.17,-7.98 16.44,-12.36 27.89,-12.99 12.04,-0.49 21.82,3.03 30.03,10.31 8.08,6.96 12.1,16.72 12.68,28.52 0.42,11.34 -2.65,21.35 -9.82,29.33 -7.45,8.25 -16.93,12.53 -28.97,13.01 -11.45,0.63 -21.18,-2.73 -28.88,-10.16 -8.08,-7.49 -12.53,-16.93 -12.95,-28.27zm518.12 383.64c-6.35,13.61 -14.2,27.02 -24.12,40.06 -9.67,13.31 -21.14,24.53 -34.2,34.13 -13.08,9.63 -27.89,17.31 -44.46,23.45 -16.46,5.92 -34.89,8.74 -55.19,8.59 -24.4,0 -47.46,-4.59 -69.58,-14.35 -21.86,-9.48 -40.99,-23.09 -57.07,-40.44 -16.44,-17.39 -28.93,-37.92 -38.32,-62.02 -9.33,-23.91 -13.8,-50.38 -13.8,-79.61 0.11,-28.91 4.68,-55.21 14.03,-78.99 9.48,-24 22.07,-44.56 37.96,-61.77 16.06,-17.25 34.7,-31.08 56.2,-40.67 21.29,-9.69 43.74,-14.41 66.89,-14.33 23.32,0 45.47,4.55 66.13,13.71 20.74,9.31 38.72,22.24 54.11,39.1 15.47,16.65 27.7,36.9 36.38,60.52 9.23,23.59 13.86,50.02 13.75,78.93 -0.08,5.59 -0.44,10.37 -0.97,14.14 -0.57,4.13 -1.21,7.58 -1.67,10.41 -0.7,3.28 -1.21,6.52 -1.63,9.52l-273.1 -0.49c1.18,13.59 5.06,27.15 11.45,40.25 6.64,12.8 14.81,24.23 24.63,34.17 9.86,9.59 21.35,17.54 34.47,23.51 13.29,5.9 26.68,8.93 40.16,9.04 12.21,0 22.56,-1.71 31.95,-5.23 9.23,-3.49 17.75,-7.45 25.58,-11.87 7.83,-4.44 14.26,-9.29 19.38,-14.79 5.21,-5.35 9.37,-10.52 12.84,-15.11l68.18 0.13zm-161.73 -226.21c-12.91,0.04 -25.41,2.84 -37.16,8.42 -11.96,5.46 -22.41,13.29 -32.25,22.9 -9.52,9.5 -17.44,21.14 -24.1,34.85 -6.5,13.67 -10.83,28.42 -13.25,44.65l208.83 0.32c-4.55,-34.15 -16.21,-61.24 -35.13,-81.21 -19.04,-19.74 -41.28,-29.82 -66.95,-29.92zm511.66 233.38c-0.78,15.68 -4.61,30.43 -11.53,43.89 -6.88,13.61 -16.34,25.41 -28.23,35.36 -11.89,9.92 -25.88,17.33 -42.51,22.77 -16.21,5.12 -34.75,7.07 -55.17,6.07 -42.87,-2.2 -75.92,-15.07 -99.12,-39.15 -23.13,-23.93 -35.17,-52.69 -35.74,-86.74l64.01 3.13c1.46,17.08 8.13,31.51 20.1,43.59 11.91,11.93 29.94,18.6 53.64,19.74 21.71,1.08 38.55,-3.7 51.19,-14.07 12.38,-10.62 19.04,-23.28 19.68,-37.84 0.76,-14.24 -3.6,-24.97 -13.39,-32.78 -9.48,-7.91 -21.6,-14.05 -36.02,-19.04 -14.54,-4.78 -30.45,-9.44 -47.65,-14.22 -17.16,-4.59 -32.88,-10.77 -47.29,-18.98 -14.6,-8.17 -26.26,-19.3 -35.87,-33.45 -9.14,-14.3 -13.29,-33.52 -12.04,-57.96 0.74,-14.79 4.72,-28.5 11.6,-41.58 6.77,-12.87 15.98,-24.4 27.8,-33.96 11.47,-9.61 25.24,-17.12 41.39,-22.41 15.83,-5.16 33.39,-7.32 52.73,-6.33 40.84,1.99 72.05,14.24 93.4,36.61 21.44,22.54 32.29,50.95 33.05,85.13l-64.16 -3.09c-1.46,-17.08 -7.36,-30.85 -17.56,-41.39 -10.35,-10.5 -26.01,-16.51 -47.67,-17.44 -19.34,-1.02 -35.23,3.47 -47.17,13.23 -12.27,9.88 -18.62,21.35 -19.21,34.47 -0.8,14.07 3.6,24.97 13.35,32.61 9.65,7.85 21.65,14.2 36.08,19.19 14.62,5.1 30.53,9.78 47.65,14.22 17.14,4.61 32.97,10.56 47.23,18.83 14.43,8.21 26.3,19.45 35.49,33.92 9.35,14.43 13.14,33.58 11.93,57.66z"/>
   <path class="fil1" d="M7992.24 17375.2l-57.13 -5.63 -71.25 -130.35 95.62 -112.98 57.11 5.65 -95.94 113.08 71.59 130.22zm140.51 14.07l-56.99 -5.69 -71.25 -130.33 95.62 -113 56.96 5.69 -95.62 112.98 71.27 130.35zm336.54 -274.14l-117.23 342.1 -41.6 -2.09 -124.83 -488.11 65.3 3.24 88.94 352.64 117.02 -342.21 38 2.05 81.57 352.07 124.38 -341.64 64.92 3.2 -172.92 472.96 -42.3 -2.03 -81.26 -352.18zm592.83 267.13c-5.54,12.27 -12.65,24.17 -21.35,36.08 -8.78,11.74 -18.94,21.99 -30.51,30.73 -11.79,8.65 -25.08,15.47 -39.72,20.95 -14.88,5.37 -31.36,8.08 -49.3,8.04 -21.86,0.04 -42.77,-4.02 -62.57,-12.76 -19.55,-8.46 -36.67,-20.42 -51.23,-35.95 -14.58,-15.53 -26.03,-34.07 -34.49,-55.42 -8.32,-21.41 -12.55,-45.07 -12.59,-71.25 -0.11,-25.79 4,-49.22 12.36,-70.7 8.19,-21.41 19.45,-40.1 33.79,-55.53 14.28,-15.57 30.87,-28 50.02,-36.61 19.09,-8.78 39.02,-12.99 59.97,-13.08 20.95,-0.08 40.63,4.02 59.29,12.06 18.41,8.32 34.53,19.91 48.5,34.75 13.86,15.05 24.95,32.99 32.99,54.13 8.23,21.25 12.25,44.82 12.36,70.59 0.06,5.02 -0.3,9.25 -0.87,12.84 -0.42,3.55 -0.99,6.62 -1.42,9.1 -0.57,3.07 -1.06,5.9 -1.52,8.76l-244.38 0.57c1.06,12.19 4.55,24.1 10.45,35.74 5.9,11.64 13.39,21.65 21.99,30.6 8.99,8.61 19.23,15.55 31.02,20.72 11.89,5.48 23.93,8.23 36.29,8.19 10.37,-0.08 19.87,-1.69 28.36,-4.74 8.25,-3.13 15.83,-6.77 22.9,-10.77 7.13,-3.85 12.76,-8.42 17.25,-13.18 4.61,-4.95 8.4,-9.65 11.49,-13.73l60.94 -0.13zm-145.48 -201.94c-11.66,0 -22.81,2.52 -33.29,7.66 -10.66,5.04 -20.21,11.83 -28.76,20.46 -8.57,8.63 -15.72,19.3 -21.48,31.47 -5.92,12.21 -9.69,25.5 -11.77,40.01l186.85 -0.51c-3.94,-30.77 -14.49,-54.64 -31.61,-72.35 -16.99,-17.94 -37.01,-26.79 -59.95,-26.75zm438.55 109.78c0.89,18.54 4.66,35 11.28,49.81 6.77,14.75 15.13,27.34 25.22,37.56 9.92,10.28 21.67,17.97 35.06,23.13 13.35,4.99 27.06,7.36 41.18,6.71 14.14,-0.63 27.61,-4.3 40.37,-10.58 12.87,-6.5 23.74,-15.17 32.88,-26.34 9.14,-11.15 16.51,-24.4 21.5,-39.89 5.04,-15.34 7.11,-31.99 6.24,-50.53 -0.83,-18.37 -4.59,-34.85 -10.94,-49.39 -6.56,-14.64 -15.09,-27.17 -25.35,-37.35 -10.07,-10.22 -21.82,-17.9 -34.89,-23.17 -13.25,-5.21 -27.11,-7.53 -41.6,-6.94 -13.92,0.76 -27.4,4.42 -40.27,10.92 -12.7,6.43 -23.74,15.17 -32.71,26.28 -8.99,11.11 -16.12,24.46 -21.39,39.68 -5.31,15.07 -7.55,31.78 -6.58,50.11zm0.63 172.29l-42.02 1.99 -22.92 -480.54 57.3 -2.86 8.55 179.29c6.83,-8.93 15.19,-17.14 25.05,-24.06 8.36,-6.03 18.75,-11.89 31.3,-17.2 12.44,-5.63 27.21,-8.63 44.35,-9.42 21.86,-1.1 42.66,2.09 62.85,9.82 20.02,7.77 37.84,19.13 52.94,34.11 15.19,14.77 27.68,32.61 37.12,53.64 9.59,20.97 14.73,44.16 15.89,69.94 1.29,26.11 -1.57,50.02 -9.12,71.76 -7.39,21.69 -18.05,41.07 -31.78,57.2 -13.69,16.27 -30.13,29.18 -49.39,38.55 -18.98,9.63 -39.49,14.75 -61.73,15.81 -17.29,0.83 -32.61,-0.47 -45.41,-3.85 -12.87,-3.55 -23.51,-8.02 -32.33,-12.93 -10.41,-5.82 -19.45,-12.44 -27.21,-20.04l-13.44 38.79zm622.69 -144.1c-4.3,12.76 -10.33,25.18 -18.01,38 -7.43,12.55 -16.57,23.7 -27.42,33.48 -10.71,9.71 -23.26,17.71 -37.41,24.65 -14.26,6.6 -30.37,10.96 -48.25,12.7 -21.86,2.18 -43.04,0 -63.59,-6.69 -20.34,-6.58 -38.47,-16.78 -54.38,-30.94 -16.02,-13.97 -29.24,-31.38 -39.53,-51.76 -10.5,-20.48 -16.93,-43.76 -19.62,-69.77 -2.41,-25.73 -0.57,-49.47 5.59,-71.63 6.14,-22.16 15.53,-41.64 28.5,-58.4 12.57,-16.97 28,-30.79 46.15,-41.22 18.13,-10.6 37.71,-16.86 58.55,-18.88 20.67,-1.97 40.71,0.04 60.1,6.43 19.04,6.48 36.38,16.4 51.7,29.88 15.19,13.69 27.89,30.56 37.9,50.68 10.14,20.42 16.51,43.55 19.09,69.22 0.55,4.85 0.57,9.14 0.36,12.8 -0.04,3.6 -0.3,6.54 -0.66,9.18 -0.21,3.11 -0.3,6.01 -0.61,8.8l-243.11 24c2.24,11.98 6.86,23.51 13.82,34.6 6.92,10.94 15.3,20.31 24.84,28.38 9.59,7.7 20.74,13.63 32.82,17.61 12.38,4.25 24.59,5.88 36.71,4.63 10.58,-1.06 19.83,-3.45 27.87,-7.24 7.94,-4.13 15.28,-8.4 21.82,-12.93 6.69,-4.59 11.79,-9.71 15.96,-14.9 4.06,-5.5 7.43,-10.39 10.09,-14.71l60.73 -5.99zm-164.31 -187.12c-11.45,1.16 -22.28,4.66 -32.35,10.92 -10.2,5.95 -18.92,13.56 -26.45,23.11 -7.91,9.48 -13.84,20.63 -18.52,33.33 -4.68,12.7 -7.26,26.3 -7.89,40.86l186.02 -18.35c-6.94,-30.11 -19.7,-53.07 -38.36,-69 -18.71,-16.08 -39.53,-23.04 -62.44,-20.86zm316.63 255.85l-56.86 8.42 -70.74 -476.05 56.71 -8.38 70.89 476.01zm158.45 -23.57l-56.86 8.44 -50.49 -340.16 56.86 -8.44 50.49 340.16zm-129.04 -426.77c-1.54,-10.41 0.51,-19.72 6.33,-27.42 5.84,-7.7 13.71,-12.53 23.81,-13.97 10.58,-1.59 19.62,0.74 27.59,6.28 7.7,5.84 12.25,13.99 13.8,24.4 1.65,10.2 -0.53,19.19 -6.28,27.04 -5.73,8.04 -13.88,12.57 -24.46,14.18 -10.09,1.44 -19,-0.57 -26.77,-6.56 -7.87,-5.78 -12.57,-13.86 -14.01,-23.95zm481.87 266.75c-2.9,13.16 -7.62,26.24 -13.86,39.65 -6.12,13.18 -14.09,25.18 -23.87,36.04 -9.8,10.83 -21.37,20.12 -34.87,28.44 -13.39,8.1 -28.95,14.07 -46.62,17.54 -21.48,4.38 -42.81,4.4 -63.88,-0.13 -20.86,-4.44 -40.01,-12.84 -57.3,-25.31 -17.42,-12.23 -32.25,-28.02 -44.67,-47.32 -12.48,-19.45 -21.33,-41.94 -26.54,-67.44 -5.16,-25.33 -5.67,-49.18 -1.84,-71.82 4,-22.68 11.28,-43.08 22.26,-60.96 10.9,-18.2 24.91,-33.5 41.9,-45.88 16.82,-12.32 35.76,-20.5 56.27,-24.55 20.44,-4.23 40.54,-4.19 60.5,0.19 19.62,4.49 37.75,12.53 54.36,24.5 16.59,11.96 30.94,27.38 42.93,46.47 12.21,19.17 20.84,41.56 26.15,66.83 0.93,4.89 1.44,9.04 1.61,12.74 0.28,3.49 0.3,6.71 0.42,9.18 0,3.22 0.06,6.07 0.13,8.91l-239.47 48.58c3.43,11.77 9.27,22.71 17.44,33.03 7.94,10.24 17.27,18.75 27.49,25.69 10.35,6.73 21.96,11.41 34.45,14.37 12.8,2.86 25.1,3.17 37.18,0.72 10.24,-2.03 19.32,-5.46 26.87,-10.16 7.51,-4.87 14.26,-9.84 20.36,-15.13 6.16,-5.12 10.71,-10.77 14.39,-16.34 3.41,-5.8 6.31,-11.09 8.53,-15.6l59.69 -12.27zm-182.51 -169.33c-11.22,2.35 -21.67,6.96 -31.11,14.09 -9.48,6.96 -17.35,15.53 -23.97,25.67 -6.73,10.33 -11.72,22.07 -14.85,35.13 -3.43,13.18 -4.68,27.04 -3.7,41.6l183.06 -37.24c-9.95,-29.46 -25.01,-50.72 -45.22,-64.88 -20.21,-14.18 -41.71,-18.92 -64.2,-14.37zm472.88 -157.16l-48.48 367.28 -51.7 13.16 -218.31 -299.27 59.29 -15 165.31 229.85 34.47 -280.8 59.42 -15.21zm387.66 161.37c-2.37,13.18 -6.35,26.37 -11.93,40.08 -5.48,13.5 -12.95,25.9 -22.05,37.22 -9.25,11.36 -20.44,21.25 -33.39,30.11 -13.03,8.7 -28.31,15.47 -45.81,19.93 -21.14,5.35 -42.47,6.45 -63.76,2.88 -21.08,-3.45 -40.61,-10.86 -58.49,-22.39 -18.05,-11.47 -33.52,-26.51 -47.02,-45.26 -13.29,-18.64 -23.28,-40.73 -29.65,-66.02 -6.5,-25.08 -8.21,-48.69 -5.33,-71.54 2.71,-22.79 8.95,-43.55 19.19,-62.06 10.03,-18.64 23.09,-34.7 39.63,-47.82 16.23,-13.01 34.68,-22.11 54.81,-27.28 20.29,-5.25 40.44,-6.14 60.54,-2.88 19.83,3.53 38.24,10.75 55.42,21.82 17.08,11.26 32.27,26.03 45.3,44.42 13.08,18.54 22.83,40.52 29.27,65.43 1.25,4.78 1.97,9.01 2.31,12.68 0.44,3.43 0.61,6.6 0.78,9.23 0.34,3.11 0.4,5.97 0.61,8.76l-236.74 60.39c4.08,11.53 10.35,22.16 18.94,32.16 8.46,9.69 18.18,17.71 28.78,24.17 10.73,6.24 22.49,10.35 35.13,12.72 12.97,2.24 25.2,1.88 37.14,-1.06 10.18,-2.73 18.98,-6.41 26.39,-11.62 7.22,-5.12 13.71,-10.37 19.53,-15.91 6.01,-5.61 10.33,-11.38 13.59,-17.14 3.2,-5.92 5.86,-11.3 7.68,-16.04l59.14 -14.96zm-190.59 -160.31c-11.07,2.84 -21.31,8.08 -30.24,15.6 -9.16,7.39 -16.7,16.38 -22.83,26.9 -6.31,10.54 -10.56,22.39 -13.2,35.82 -2.69,13.29 -3.22,27.09 -1.54,41.58l180.92 -46.19c-11.34,-28.82 -27.42,-49.39 -48.37,-62.57 -20.74,-13.08 -42.47,-16.86 -64.73,-11.13zm503.52 154.01l-54.89 16.91 -101.32 -328.71 54.89 -16.93 101.32 328.73zm-191.97 -402.3c-3.05,-10.09 -2.5,-19.59 2.16,-28.16 4.46,-8.51 11.64,-14.33 21.35,-17.44 10.26,-3.11 19.51,-2.29 28.16,2.16 8.51,4.46 14.28,12.02 17.5,22.05 2.94,9.78 2.26,18.96 -2.16,27.64 -4.57,8.72 -11.91,14.6 -22.18,17.71 -9.76,2.94 -18.79,2.22 -27.34,-2.43 -8.72,-4.57 -14.62,-11.91 -17.5,-21.52zm312.1 -11.43c17.39,-6.41 34.89,-8.74 52.35,-7.45 17.75,1.54 34.36,6.14 50.24,14.41 15.89,7.72 30.49,19.11 43.34,33.79 13.06,14.77 23.34,32.46 30.87,53.22l68.48 186.32 -53.43 19.66 -68.48 -186.32c-4.89,-13.42 -11.6,-24.78 -20,-34.3 -8.59,-9.48 -17.69,-16.8 -27.93,-22.13 -10.01,-5.23 -20.72,-8.25 -31.72,-9.01 -10.81,-0.66 -21.92,0.95 -32.65,4.74 -25.33,9.46 -43,25.1 -52.9,47.27 -9.97,22.03 -9.82,46.89 0.3,74.15l68.41 186.17 -53.92 19.81 -118.65 -322.7 39.55 -14.6 27.61 30.83c4.04,-9.78 9.65,-19.21 16.4,-27.93 6.2,-8.19 14.26,-16.67 24.19,-25.03 9.95,-8.21 22.66,-15.19 37.94,-20.89zm346.97 -232.09l45.64 -19.36 35.78 84.2 70.44 -29.88 20.97 49.41 -70.42 29.88 70.1 165.14c7.66,17.86 18.22,29.54 31.99,35.3 14.01,5.84 28.88,5.31 44.86,-1.52 4.4,-1.84 8.49,-4.13 12.06,-6.77 1.57,-1.23 3.11,-2.48 4.02,-4.04l19.36 45.64c-1.71,2.37 -3.85,4.53 -5.99,6.69 -5.35,4.87 -12.76,9.5 -22.68,13.59 -12.23,5.21 -24.74,7.45 -38,6.9 -13.23,-0.36 -25.86,-3.28 -38.19,-8.97 -12.42,-5.48 -23.78,-13.67 -34.05,-24.38 -10.41,-10.64 -19.04,-24.04 -25.88,-40.01l-70.1 -165.16 -56.33 23.87 -20.99 -49.41 24.63 -10.47c26.01,-11.11 33.1,-29.46 22.2,-54.83l-19.43 -45.79zm356.45 -63.88c16.61,-8.13 33.69,-12.27 51.29,-12.65 17.84,-0.3 35,2.71 51.74,9.25 16.23,6.18 31.97,16.1 46.47,29.31 14.39,13.44 26.34,30.22 36.08,50.04l86.34 178.68 -51.63 24.97 -86.5 -178.62c-6.12,-12.82 -13.84,-23.49 -23.07,-32.21 -9.37,-8.68 -19.23,-15.02 -29.84,-19.34 -10.28,-4.4 -21.35,-6.41 -32.48,-5.88 -10.94,0.47 -21.73,3.05 -31.76,7.85 -24.36,11.81 -40.5,29.29 -48.2,52.14 -7.98,23.15 -5.4,47.74 7.22,73.96l86.5 178.64 -51.65 24.97 -209.7 -433.07 51.8 -25.03 78.04 161.58c2.92,-11.02 7.07,-21.58 12.99,-31.66 5.4,-8.99 12.44,-18.37 21.27,-27.8 8.57,-9.69 20.46,-18.03 35.11,-25.12zm559 0.25c0.97,13.48 0.42,27.28 -1.61,41.96 -1.93,14.45 -5.84,28.33 -11.98,41.52 -6.07,13.35 -14.3,25.63 -24.63,37.54 -10.54,11.81 -23.55,22.13 -39.46,30.73 -19.19,10.6 -39.49,16.93 -60.86,18.94 -21.2,1.97 -42.07,-0.32 -62.3,-7.11 -20.27,-6.43 -39.13,-17.1 -56.86,-31.91 -17.52,-14.71 -32.8,-33.41 -45.39,-56.39 -12.51,-22.68 -20.12,-45.22 -23.11,-67.88 -3.05,-22.81 -2.09,-44.48 2.98,-65.03 5.06,-20.53 13.65,-39.21 26.37,-56.24 12.44,-16.76 28.04,-30.09 46.32,-40.21 18.28,-10.11 37.43,-16.04 57.79,-17.9 20.08,-1.57 39.7,0.76 59.23,7.09 19.32,6.75 37.67,17.03 54.83,31.7 17.35,14.75 32.42,33.35 44.9,56.01 2.33,4.23 4.02,8.15 5.37,11.64 1.29,3.32 2.29,6.22 3.09,8.63 1.04,3.07 1.97,5.8 2.84,8.38l-213.91 117.95c6.71,10.31 15.38,19.02 26.32,26.45 10.56,7.36 22.03,12.63 33.96,16.15 11.89,3.32 24.25,4.36 37.18,3.39 12.95,-0.95 24.86,-4.44 35.59,-10.39 9.23,-5.08 16.78,-10.86 22.54,-17.65 5.78,-6.79 10.81,-13.69 14.98,-20.48 4.32,-6.83 7.09,-13.52 8.82,-20.02 1.59,-6.45 2.81,-12.42 3.49,-17.31l53.49 -29.54zm-224.83 -107.18c-10.11,5.59 -18.64,13.29 -25.48,22.77 -6.83,9.48 -11.89,19.98 -15.3,31.72 -3.39,11.72 -4.46,24.46 -3.66,37.98 0.63,13.59 3.77,27.06 8.87,40.59l163.61 -90.04c-18.2,-25.22 -38.96,-40.99 -62.47,-48.48 -23.49,-7.49 -45.47,-5.63 -65.58,5.46zm456.05 -257.46l-65.03 40.08 152.25 246.97 -48.5 30.01 -152.4 -246.92 -35.76 22.11 -28.33 -45.66 35.91 -22.16 -13.88 -22.56c-9.14,-14.85 -15.17,-29.5 -18.07,-44.48 -2.79,-14.66 -2.69,-28.67 -0.17,-41.9 2.69,-13.29 7.6,-25.35 14.96,-36.44 7.22,-11.05 16.21,-20 27.51,-26.85 4.89,-3.09 9.33,-5.31 13.31,-6.83 4.06,-1.74 7.66,-2.77 10.98,-3.53 3.24,-0.55 6.28,-1.04 8.87,-1.38l26.18 42.45c-1.5,0.34 -3.34,0.76 -5.42,1.48 -1.35,0.28 -3.45,0.97 -6.01,1.84 -2.37,0.97 -4.72,1.95 -6.98,3.26 -14.69,9.08 -23.72,21.1 -27.04,35.68 -3.11,14.66 0.13,30.07 10.39,46.68l13.9 22.58 65.17 -40.12 28.16 45.71zm323.4 145.8c-15.53,9.73 -32.06,15.49 -49.79,17.71 -17.33,2.26 -34.81,0.99 -52.18,-3.72 -17.31,-4.55 -33.73,-12.8 -49.41,-24.74 -15.64,-11.74 -29.22,-27.06 -40.69,-45.6l-104.3 -169.22 48.84 -30.11 104.45 169.16c7.36,12.21 16,21.86 25.9,29.43 9.82,7.81 20.1,13.31 31.02,16.44 10.81,3.34 21.99,4.04 32.99,2.67 11.17,-1.44 21.58,-5.14 31.49,-11.36 23.17,-14.26 37.39,-33.24 42.93,-56.63 5.44,-23.72 0.61,-48.1 -14.75,-72.86l-104.28 -169.2 48.39 -29.79 180.58 292.65 -35.49 21.84 -32.97 -24.38c-1.9,10.86 -5.5,21.41 -10.58,31.36 -4.32,9.52 -10.62,19.02 -18.79,28.78 -8.19,9.76 -19.28,18.88 -33.37,27.57zm-8.21 -525.14l40.92 -27.97 51.86 75.54 63.02 -43.34 30.37 44.27 -63.02 43.34 101.42 147.93c10.92,15.87 23.81,25.33 38.43,28.27 14.56,2.79 29.22,-0.55 43.46,-10.37 4.08,-2.81 7.55,-5.78 10.6,-8.97 1.23,-1.67 2.52,-3.17 3.05,-4.78l28 40.92c-1.12,2.54 -2.77,5.08 -4.59,7.66 -4.17,5.71 -10.54,11.81 -19.43,17.86 -10.94,7.45 -22.79,12.17 -35.89,14.26 -13.1,2.09 -25.94,1.78 -39.34,-1.25 -13.01,-2.96 -25.92,-8.8 -38.05,-17.1 -12.4,-8.55 -23.4,-19.89 -33.29,-34.3l-101.57 -147.89 -50.38 34.58 -30.37 -44.25 22.13 -15.19c23.32,-15.93 26.62,-35.34 10.83,-58.17l-28.19 -41.05zm523.58 161.94c-14.52,11.17 -30.43,18.71 -47.57,22.71 -17.16,3.81 -34.68,4.53 -52.37,1.54 -17.8,-2.79 -35.06,-9.33 -51.65,-19.68 -16.84,-10.09 -31.89,-23.85 -45.11,-41.24l-121.02 -157.65 45.58 -34.94 120.85 157.69c8.87,11.36 18.3,20.19 28.97,26.81 10.5,6.67 21.25,10.92 32.54,13.03 11.13,2.16 22.13,1.84 33.1,-0.78 10.79,-2.56 20.86,-7.22 30.3,-14.35 21.48,-16.59 33.65,-36.82 36.82,-60.86 2.81,-24.08 -4.46,-47.8 -22.13,-70.89l-121.02 -157.65 45.16 -34.6 209.36 272.7 -33.05 25.33 -35.38 -20.89c-0.55,11.13 -3.03,21.84 -7.17,32.38 -3.3,9.9 -8.68,19.98 -15.85,30.64 -7.09,10.28 -17.2,20.7 -30.34,30.68zm138.67 -486.86l-11.57 9.82c-20.67,17.39 -32.08,38.28 -33.98,62.4 -1.74,24.08 6.64,47.25 25.48,69.58l125.44 148.99 -43.87 36.86 -221.51 -263.05 32.29 -27.04 36.33 19.47c0.4,-10.52 2.5,-21.27 5.95,-31.76 2.92,-9.95 7.77,-20.55 14.18,-31.87 6.67,-11.05 16.08,-21.92 28.67,-32.46l5.73 -4.8 36.86 43.87zm388.38 -67.48c3.49,12.99 5.8,26.73 6.67,41.5 0.97,14.56 -0.28,28.97 -3.77,43.06 -3.26,14.18 -9.01,27.95 -16.97,41.58 -7.79,13.59 -18.75,26.24 -32.42,37.86 -16.76,14.07 -35.51,24.36 -56.22,30.45 -20.34,6.16 -41.28,7.85 -62.42,5.29 -21.05,-2.37 -41.67,-9.23 -61.92,-20.34 -20.19,-10.92 -38.66,-26.39 -55.5,-46.51 -16.67,-19.66 -28.52,-40.4 -36.04,-62.09 -7.32,-21.73 -10.64,-43.21 -9.65,-64.16 0.89,-21.29 5.76,-41.39 14.81,-60.22 9.01,-19 21.67,-35.13 37.58,-48.56 16.06,-13.48 33.65,-23.02 53.18,-28.88 19.49,-5.5 39.25,-6.98 59.46,-4.49 20.27,2.67 40.44,9.31 60.1,20.23 19.87,11.05 38.19,26.56 54.87,46.21 3.07,3.81 5.67,7.24 7.62,10.35 1.88,2.94 3.34,5.67 4.66,7.91 1.61,2.69 3.03,5.27 4.38,7.68l-186.78 157.39c8.68,8.72 18.85,15.49 31.02,20.72 11.79,5.16 24.06,8.02 36.46,9.2 12.36,1.04 24.61,-0.42 37.05,-3.89 12.61,-3.55 23.62,-9.23 32.99,-17.06 8.08,-6.86 14.22,-14.14 18.66,-21.73 4.32,-7.91 7.83,-15.55 10.71,-22.98 2.98,-7.64 4.34,-14.73 4.63,-21.29 0.4,-6.77 0.49,-12.91 0.11,-17.8l46.74 -39.44zm-241.42 -61.22c-8.78,7.45 -15.72,16.61 -20.53,27.36 -4.99,10.66 -7.85,21.84 -8.78,33.98 -1.08,12.21 0.32,24.82 3.7,38.03 3.32,13.06 8.85,25.71 16.63,38.13l142.98 -120.36c-22.85,-20.97 -46.32,-32.59 -70.74,-35.27 -24.55,-2.65 -45.64,3.39 -63.27,18.13zm389.52 -193.22l-144.59 -32.04 41.86 -39.06 144.59 32.04 22.01 146.96 -41.86 39.06 -22.01 -146.96zm-103.58 96.3l-144.44 -32.1 41.75 -38.85 144.7 31.85 21.92 147.17 -41.77 38.85 -22.16 -146.92z"/>
   <path class="fil1" d="M15612.17 3608.7l-104.53 -123.75 -364.72 308.56 -44.16 -52.16 364.72 -308.56 -104.7 -123.7 45.45 -38.47 253.57 299.55 -45.62 38.53zm-71.8 530.81c-14.56,3.13 -30.07,4.95 -46.55,4.97 -16.4,0.32 -32.21,-1.86 -47.74,-6.48 -15.7,-4.57 -30.66,-11.7 -45.54,-21.22 -14.71,-9.54 -28.25,-22.56 -40.44,-38.51 -14.85,-19.55 -25.03,-40.69 -30.83,-64.2 -5.67,-23.17 -6.41,-46.6 -2.26,-69.87 3.83,-23.72 12.61,-46.05 26.03,-67.97 13.39,-21.92 31.64,-41.71 54.93,-59.25 23.15,-17.5 46.79,-29.79 71.31,-36.82 24.91,-6.96 48.8,-9.48 72.18,-7.15 23.49,2.12 45.81,8.74 66.42,19.89 20.63,11.15 37.88,26.11 52.03,44.65 14.14,18.54 23.83,38.77 29.14,60.82 5.14,22.11 5.82,44.31 1.71,66.68 -3.89,22.47 -12.61,44.42 -26.03,65.81 -13.35,21.54 -31.49,41.12 -54.47,58.55 -4.55,3.51 -8.51,6.09 -12,8 -3.64,1.95 -6.64,3.68 -9.27,4.93 -2.96,1.35 -5.8,3.03 -8.59,4.32l-165.18 -217.32c-10.01,9.12 -18.41,20.38 -24.91,33.52 -6.18,13.03 -10.43,26.47 -12.25,40.18 -1.84,13.71 -1.08,27.61 2.24,41.73 3.17,14.18 8.97,26.56 17.14,37.43 7.34,9.54 14.98,16.82 23.45,22.22 8.23,5.27 16.7,9.59 24.86,13.12 8.4,3.62 16.1,5.67 23.57,6.56 7.41,0.72 13.97,1.02 19.87,0.99l41.16 54.43zm81.87 -265.78c-7.79,-10.28 -17.58,-18.62 -29.27,-24.55 -11.43,-6.18 -24.12,-9.8 -37.67,-11.66 -13.33,-1.78 -27.45,-1.14 -42.22,1.88 -14.92,3.05 -29.41,8.49 -43.78,16.38l126.41 166.22c24.53,-24.04 38.98,-49.73 43.23,-76.98 4.3,-27.11 -1.23,-50.87 -16.72,-71.29zm-72.77 461.58l-36.27 -52.67 442.53 -304.9 36.31 52.84 -442.57 304.73zm92.05 133.52l72.92 -247.16 233.76 15.21 41.12 59.63 -229.95 -17.75 -74.29 253.19 -43.55 -63.12zm104.94 165.77l-33.62 -54.47 457.45 -281.94 33.62 54.45 -457.45 281.96zm380.62 -131.39l32.8 59.93 -202.95 242.82 313.49 -40.76 32.84 60.1 -446.62 54.87c-41.45,5.21 -73.11,4.42 -95.43,-2.75 -22.22,-6.83 -39.46,-21.27 -51.53,-43.19 -1.52,-2.9 -2.81,-5.69 -3.89,-8.38 -1.14,-2.84 -2.18,-5.35 -3.15,-8.25 -0.87,-2.58 -1.42,-5.27 -1.44,-7.96l44.78 -24.61c9.35,17.1 20.31,27.74 32.31,31.95 12.15,4.13 27.4,5.25 45.56,3.26l45.33 -5.44 257.91 -311.59zm539.36 828.86l-71.06 -145.65 -429.43 209.38 -29.84 -61.3 429.37 -209.53 -71.06 -145.63 53.58 -26.18 171.99 352.75 -53.56 26.15zm-195.52 494.78c-14.98,-0.32 -30.43,-2.48 -46.28,-6.43 -15.98,-3.75 -30.94,-9.82 -44.88,-18.2 -13.9,-8.23 -26.83,-18.92 -38.85,-31.72 -11.87,-12.84 -21.71,-28.71 -29.65,-47.38 -9.52,-22.41 -14.3,-45.56 -14.01,-69.68 0.17,-23.89 5.25,-46.6 14.94,-68.33 9.48,-21.86 23.47,-41.47 41.94,-59.55 18.35,-17.84 41.03,-32.5 67.84,-43.89 26.7,-11.17 52.65,-17.22 78.21,-17.97 25.73,-0.8 49.54,2.81 71.76,10.73 22.22,7.91 42.22,19.83 59.4,35.72 17.16,15.72 30.34,34.58 39.4,56.1 9.16,21.29 13.59,43.46 13.31,65.96 -0.57,22.79 -5.42,44.52 -14.75,65.24 -9.31,20.72 -23.26,39.95 -41.45,57.22 -18.26,17.63 -40.61,32.19 -67.27,43.51 -5.21,2.12 -9.71,3.64 -13.46,4.72 -3.98,0.99 -7.3,1.76 -10.26,2.58 -3.22,0.55 -6.33,1.42 -9.33,2.07l-106.54 -251.28c-12.02,6.37 -22.9,15.07 -32.4,26.18 -9.31,11.22 -16.57,23.17 -21.9,36.08 -4.99,12.8 -7.74,26.47 -8.06,40.92 -0.32,14.45 2.09,27.97 7.41,40.52 4.68,11.15 10.35,20 17.31,27.34 6.69,7.07 13.8,13.27 20.86,18.77 7.07,5.5 14.18,9.56 21.16,12.23 6.94,2.5 13.35,4.46 19.04,5.95l26.51 62.59zm144.72 -237.34c-4.93,-11.96 -12.55,-22.3 -22.3,-31.02 -9.59,-8.78 -20.95,-15.34 -33.65,-20.55 -12.48,-5.12 -26.3,-7.81 -41.47,-8.61 -15.26,-0.57 -30.45,1.14 -46.28,5.25l81.38 192.18c29.82,-17.42 50.09,-38.62 60.9,-63.97 11.02,-25.24 11.57,-49.62 1.42,-73.28zm158.15 395.6c-5.06,-13.88 -13.16,-26.22 -24.06,-37.24 -10.98,-10.79 -23.91,-19.34 -38.94,-25.58 -14.9,-5.9 -31.19,-9.01 -49.03,-9.25 -17.77,-0.11 -36.35,3.3 -55.5,10.31 -19.49,7.11 -35.89,16.42 -49.54,28.02 -13.82,11.66 -24.36,24.55 -31.76,38.7 -7.68,14.43 -11.98,29.33 -13.42,44.69 -1.08,15.43 0.59,29.94 5.65,43.82 4.34,11.81 10.5,22.09 18.71,30.98 7.98,8.78 17.1,16.1 26.9,21.77 9.95,5.59 20.55,9.9 31.8,12.38 11.24,2.5 22.73,3.62 33.9,3.26l21.88 60.03c-19.81,2.39 -39.1,2.09 -58.72,-1.33 -19.23,-3.36 -37.48,-9.56 -54.55,-18.68 -16.91,-9.18 -31.89,-21.16 -45.33,-35.99 -13.1,-14.94 -23.28,-32.29 -30.49,-52.1 -8.32,-23.02 -11.85,-46.21 -10.5,-70.34 1.48,-23.81 7.83,-46.41 18.49,-67.4 10.66,-21.52 25.69,-40.23 45.01,-57.32 19.38,-16.95 42.66,-30.37 70.13,-40.35 27.15,-9.88 53.35,-14.62 79.03,-13.97 25.67,0.66 49.33,5.4 71.18,14.88 21.8,9.31 41.28,22.45 57.92,39.8 16.61,17.33 28.99,37.54 37.31,60.56 7.22,19.81 10.62,39.44 10.16,59.33 -0.78,19.98 -4.46,38.81 -11.81,56.88 -7.17,18.03 -17.22,34.51 -29.62,49.28 -12.61,15.19 -27.34,27.87 -44.06,38.89l-21.9 -60.03c9.23,-6.69 17.03,-14.9 23.93,-24.21 6.73,-9.27 12.13,-19.34 16.38,-30.09 3.94,-10.66 6.14,-22.18 6.62,-33.98 0.23,-12.08 -1.59,-23.85 -5.78,-35.72zm200.35 400.02c6.14,19.81 7.89,39.3 5.33,58.81 -2.73,19.57 -8.89,37.96 -18.75,55.46 -9.67,17.08 -22.98,32.86 -40.06,46.53 -17.25,13.71 -37.52,24.31 -61.07,31.55l-211.75 65.94 -19.09 -61.32 211.73 -65.94c15.13,-4.57 28.12,-11.28 39.32,-20.08 11.13,-8.97 19.85,-18.73 26.37,-29.71 6.39,-10.77 10.39,-22.35 11.72,-34.81 1.42,-12.32 0.3,-24.65 -3.36,-36.52 -9.01,-28.86 -25.5,-49.49 -49.77,-61.92 -24.12,-12.46 -51.67,-13.92 -82.65,-4.19l-211.56 65.89 -19.04 -61.18 513.04 -159.78 19.04 61.18 -191.29 59.57c11.66,4.85 22.6,11.19 32.74,19.43 8.99,7.53 17.84,16.74 27.09,28.14 9.12,11.09 16.53,25.63 22.03,42.96zm123.92 433.35c5.12,19.98 6.01,39.57 2.37,59.1 -3.68,19.34 -10.88,37.37 -21.5,54.23 -10.52,16.63 -24.86,31.53 -42.64,44.16 -17.73,12.8 -38.6,22.18 -62.53,28.29l-214.76 54.93 -15.81 -61.73 214.74 -54.93c15.34,-3.94 28.69,-10.05 40.27,-18.26 11.53,-8.38 20.74,-17.75 27.89,-28.42 6.77,-10.73 11.51,-22.18 13.42,-34.11 2.14,-12.21 1.71,-24.61 -1.5,-36.8 -7.41,-29.41 -22.92,-50.89 -46.51,-64.46 -23.36,-13.44 -50.62,-16.08 -82.17,-8.1l-214.74 54.93 -16 -62.21 372.21 -95.2 11.68 45.73 -37.45 27.17c10.5,5.61 20.1,12.76 29.43,21.27 8.23,7.98 16.76,17.84 24.76,29.84 8.17,11.96 14.45,26.85 18.83,44.56zm-118.52 344.16c-20.29,4.15 -37.84,10.62 -53.11,20.08 -15.45,9.52 -27.8,20.67 -37.26,33.56 -9.8,12.99 -16.29,27.19 -20.04,42.09 -3.32,15.11 -3.98,29.67 -1.02,44.27 2.86,14.28 9.04,27.8 17.84,40.08 9.18,12.32 20.65,22.43 34.49,30.49 13.84,8.04 29.56,13.69 47.4,16.61 17.75,3.17 36.61,2.71 56.94,-1.29 19.98,-4.04 37.56,-10.88 52.58,-20.61 15.05,-9.56 27.42,-20.74 37.26,-33.56 9.5,-12.72 16.17,-26.45 19.91,-41.35 3.6,-14.83 4.15,-29.73 1.29,-44.01 -2.9,-14.43 -9.04,-27.78 -18.09,-40.31 -9.42,-12.44 -20.84,-22.92 -34.58,-31.19 -13.88,-8.23 -29.54,-13.69 -47.17,-16.53 -17.54,-3.05 -36.5,-2.39 -56.46,1.67zm57.68 288.76c-28.4,5.65 -55.31,6.12 -80.62,1.76 -25.44,-4.68 -48.14,-12.97 -68.35,-25.52 -20.08,-12.21 -37.22,-28.48 -50.79,-47.93 -13.78,-19.55 -22.94,-41.39 -27.66,-65.45 -4.87,-24 -4.91,-47.46 0.36,-71.12 5.02,-23.4 14.49,-44.71 28.44,-63.95 13.69,-19.49 31.47,-35.91 53.01,-49.62 21.65,-13.94 46.7,-23.66 75.42,-29.41 28.4,-5.65 55.1,-6.24 80.26,-1.82 25.37,4.51 47.87,12.7 68.18,25.58 20.12,12.38 37.33,28.27 51.17,47.99 13.82,19.7 22.94,41.37 27.8,65.37 4.72,24.06 4.66,47.76 -0.53,71.21 -5.23,23.28 -15.02,44.69 -28.86,63.71 -13.67,19.51 -31.44,35.91 -53.11,49.85 -21.48,13.88 -46.32,23.7 -74.72,29.35zm-163.44 188.77l-9.54 -63.29 531.34 -80.62 9.54 63.31 -531.34 80.6zm212.96 123.03c-20.67,3.03 -38.43,8.85 -54.15,17.56 -15.85,8.76 -28.61,19.34 -38.77,31.74 -10.33,12.44 -17.46,26.32 -21.96,41.12 -4.15,14.85 -5.31,29.41 -3.07,44.08 2.22,14.49 7.74,28.23 15.96,40.88 8.65,12.84 19.59,23.51 33.07,32.04 13.39,8.93 28.74,15.05 46.53,18.9 17.48,3.96 36.33,4.59 56.79,1.44 20.29,-3.07 38.11,-9.27 53.6,-18.09 15.6,-9.04 28.4,-19.45 38.72,-31.91 10.22,-12.23 17.35,-25.58 21.88,-40.37 4.4,-14.58 5.52,-29.31 3.32,-43.8 -2.26,-14.64 -7.74,-28.23 -16.23,-41.14 -8.65,-12.87 -19.55,-23.89 -32.95,-32.8 -13.59,-8.87 -28.97,-15.15 -46.34,-18.79 -17.42,-3.81 -36.33,-4.04 -56.41,-0.85zm44.12 291.02c-28.84,4.34 -55.59,3.7 -80.81,-1.95 -25.12,-5.86 -47.44,-15.19 -67.06,-28.65 -19.55,-13.29 -35.85,-30.22 -48.54,-50.32 -12.76,-20.25 -20.8,-42.47 -24.5,-66.68 -3.68,-24.21 -2.65,-47.7 3.66,-70.99 6.18,-23.07 16.7,-43.99 31.4,-62.59 14.64,-18.75 33.05,-34.3 55.42,-47.23 22.24,-12.72 47.82,-21.35 76.66,-25.71 28.5,-4.25 55.21,-3.77 80.11,2.01 25.22,5.65 47.4,15 67.06,28.63 19.38,13.35 35.99,30.15 48.75,50.43 12.97,20.36 21.12,42.36 24.82,66.57 3.68,24.21 2.39,47.97 -3.81,71.04 -6.41,22.98 -17.08,43.97 -31.83,62.4 -14.66,18.75 -33.07,34.3 -55.42,47.23 -22.05,12.8 -47.42,21.56 -75.92,25.82zm-105.21 370.84c-9.69,-6.94 -18.81,-15.34 -26.85,-25.37 -6.96,-8.93 -13.25,-20.08 -19.32,-33.81 -5.84,-13.63 -9.25,-30.05 -10.11,-49.11 -1.23,-24.33 2.22,-47.57 10.14,-69.24 8.04,-21.9 19.89,-40.97 35.68,-57.43 15.83,-16.27 34.81,-29.67 57.49,-40.01 22.41,-10.09 47.8,-15.62 75.31,-17.01 27.87,-1.33 53.52,1.84 77.34,9.76 23.51,8.02 43.7,19.49 60.9,34.3 17.2,14.81 30.7,32.48 40.99,53.41 10.07,20.8 15.74,43.44 16.93,68.16 0.97,19.38 -0.68,36.27 -4.87,50.43 -4.02,14.07 -9.25,25.71 -14.96,34.81 -6.41,10.77 -13.88,19.93 -21.82,27.8l43.74 14.81 2.33 46.74 -370.9 17.82c-22.03,1.16 -43.15,-1.93 -62.61,-9.14 -19.7,-7.34 -37.09,-17.97 -52.31,-32.21 -14.77,-14.01 -26.77,-31.49 -35.7,-52.14 -8.91,-20.48 -14.2,-43.61 -15.43,-69.03 -0.99,-22.07 1.12,-42.34 6.22,-60.2 5.08,-17.84 12.87,-33.56 22.58,-47.25 9.8,-13.52 21.5,-25.01 34.96,-34.58 13.44,-9.56 27.97,-16.44 43.55,-21.33l3.09 63.86c-14.26,7.15 -26.64,17.77 -37.05,32.59 -10.47,14.66 -15.11,35.95 -13.71,63.99 1.63,32.44 12.15,57.77 31.83,76.22 19.68,18.47 43.57,27.06 71.61,25.67l50.98 -2.5zm125.52 -228.34c-19.38,0.99 -36.78,4.72 -52.12,11.32 -15.13,6.73 -27.87,15.7 -38.68,26.7 -10.54,11.26 -18.49,23.81 -24.14,37.9 -5.59,14.26 -8,29.43 -7.24,45.5 0.83,15.68 4.57,30.56 11.62,43.95 6.92,13.63 16.1,25.39 27.76,35.47 11.57,9.88 25.31,17.63 41.39,22.77 15.76,5.27 33.35,7.41 52.41,6.52 19.55,-1.04 36.88,-4.93 52.39,-11.6 15.34,-6.62 28.25,-15.64 38.68,-26.68 10.43,-11.07 18.56,-23.66 23.97,-37.88 5.63,-14.09 8.1,-29.1 7.41,-44.99 -0.72,-15.89 -4.74,-30.49 -11.68,-44.12 -6.81,-13.84 -16,-25.63 -27.49,-35.72 -11.43,-9.95 -25.31,-17.65 -41.07,-22.9 -16.08,-5.14 -33.81,-7.24 -53.22,-6.24zm-178.11 465.58l-2.98 -64.07 383.58 -18.52 3.15 64.01 -383.75 18.58zm488.47 -96.07c11.98,-0.63 21.92,2.81 29.75,10.03 7.98,7.17 12.36,16.44 12.95,27.72 0.53,12.21 -2.98,21.99 -10.09,30.13 -7.17,7.98 -16.89,12.15 -28.76,12.57 -11.28,0.59 -21.12,-2.54 -29.31,-9.82 -8.25,-7.43 -12.32,-16.82 -13.01,-28.97 -0.57,-11.28 2.77,-21.01 10.16,-28.88 7.53,-7.91 16.97,-12.36 28.31,-12.78zm-383.94 518.22c-13.46,-6.39 -26.87,-14.24 -39.91,-24.19 -13.31,-9.67 -24.69,-21.08 -34.15,-34.2 -9.61,-13.08 -17.29,-27.87 -23.42,-44.46 -5.92,-16.46 -8.74,-34.87 -8.76,-55.12 0.17,-24.46 4.7,-47.67 14.49,-69.64 9.48,-21.86 23.11,-40.97 40.46,-57.05 17.39,-16.46 37.92,-28.95 62,-38.34 23.93,-9.33 50.4,-13.78 79.63,-13.8 28.91,0.11 55.19,4.68 78.97,14.05 24.02,9.46 44.59,22.07 61.83,38.11 17.2,15.89 31.08,34.7 40.63,56.03 9.69,21.31 14.41,43.74 14.39,67.06 -0.08,23.15 -4.76,45.37 -13.78,65.98 -9.31,20.72 -22.24,38.7 -39.1,54.09 -16.65,15.49 -36.93,27.7 -60.48,36.57 -23.66,9.06 -50.07,13.67 -78.97,13.56 -5.59,-0.08 -10.31,-0.28 -14.28,-0.91 -3.98,-0.63 -7.43,-1.25 -10.28,-1.74 -3.28,-0.68 -6.5,-1.21 -9.5,-1.63l0.49 -273.08c-13.59,1.18 -27.17,5.04 -40.18,11.6 -12.89,6.5 -24.29,14.64 -34.24,24.46 -9.59,9.88 -17.54,21.35 -23.51,34.49 -5.9,13.29 -8.93,26.68 -9.04,40.16 0,12.19 1.69,22.56 5.23,31.95 3.32,9.27 7.43,17.75 11.87,25.56 4.44,7.83 9.29,14.26 14.79,19.4 5.33,5.18 10.52,9.35 14.94,12.89l-0.11 68.18zm226.35 -161.79c0,-12.74 -2.84,-25.39 -8.42,-37.14 -5.48,-11.96 -13.31,-22.41 -22.85,-32.1 -9.48,-9.52 -21.33,-17.54 -34.91,-24.25 -13.67,-6.5 -28.4,-10.86 -44.63,-13.27l-0.32 208.83c34.2,-4.38 61.07,-16.15 81.05,-35.06 19.95,-18.94 29.96,-41.33 30.09,-67.02zm-233.38 511.68c-15.85,-0.74 -30.6,-4.57 -44.06,-11.49 -13.61,-6.88 -25.41,-16.34 -35.34,-28.23 -9.95,-11.89 -17.35,-25.88 -22.79,-42.51 -5.12,-16.21 -7.07,-34.75 -6.07,-55.17 2.2,-42.87 15.24,-75.97 39.15,-99.12 23.93,-23.13 52.69,-35.17 86.74,-35.74l-3.13 64.01c-17.08,1.46 -31.51,8.13 -43.44,20.04 -12.08,11.98 -18.73,30.01 -19.87,53.71 -1.1,21.71 3.68,38.55 14.05,51.19 10.64,12.38 23.28,19.04 37.86,19.68 14.24,0.76 25.12,-3.64 32.93,-13.46 7.74,-9.42 13.88,-21.54 18.88,-35.95 4.78,-14.54 9.46,-30.45 14.22,-47.65 4.61,-17.16 10.94,-32.93 19,-47.29 8.15,-14.6 19.23,-26.41 33.43,-35.87 14.3,-9.14 33.52,-13.29 57.98,-12.04 14.77,0.74 28.44,4.55 41.56,11.6 13.03,6.73 24.4,15.98 34.07,27.59 9.67,11.62 17.03,25.46 22.24,41.43 5.23,16 7.39,33.56 6.39,52.9 -1.99,40.84 -14.28,71.88 -36.65,93.25 -22.49,21.58 -50.91,32.44 -85.13,33.05l3.28 -64.05c16.93,-1.42 30.7,-7.32 41.26,-17.52 10.64,-10.41 16.44,-26.18 17.44,-47.67 0.99,-19.34 -3.47,-35.23 -13.25,-47.17 -9.88,-12.27 -21.35,-18.62 -34.47,-19.21 -14.07,-0.8 -24.97,3.6 -32.61,13.35 -7.7,9.59 -14.2,21.65 -19.04,36.02 -5.31,14.54 -9.97,30.45 -14.37,47.72 -4.61,17.14 -10.56,32.97 -18.83,47.23 -8.21,14.43 -19.3,26.24 -33.92,35.49 -14.41,9.35 -33.58,13.14 -57.49,11.89z"/>
   <path class="fil1" d="M3172.97 14668.58l41.09 39.91 -24.99 146.35 -145.27 29.14 -41.16 -40.08 145.37 -28.82 24.95 -146.49zm-101.21 -98.52l40.92 39.97 -25.01 146.35 -145.31 28.99 -41.05 -39.76 145.27 -29.16 25.18 -146.39zm-440.01 -37.03l321.94 -164.46 28.59 30.51 -249.61 437.54 -44.63 -47.7 181.18 -315.27 -321.87 164.65 -26.07 -27.78 186.19 -309.98 -326.93 159.17 -44.56 -47.53 453.17 -219.73 28.91 30.94 -186.3 309.64zm-207.23 -653.57c13.2,-2.84 27,-4.44 41.73,-4.4 14.6,-0.28 28.91,1.71 42.83,5.8 14.09,4.02 27.45,10.64 40.69,19.07 13.14,8.65 25.29,20.17 36.18,34.41 13.25,17.42 22.45,36.71 27.53,57.6 5.02,20.72 5.63,41.67 1.95,62.64 -3.45,21.08 -11.32,41.31 -23.4,60.79 -12,19.66 -28.42,37.41 -49.26,53.22 -20.57,15.55 -41.86,26.34 -63.9,32.71 -22.11,6.2 -43.61,8.44 -64.62,6.2 -21.05,-1.84 -40.97,-7.68 -59.42,-17.75 -18.43,-9.92 -33.9,-23.34 -46.53,-40.06 -12.59,-16.57 -21.25,-34.79 -26.01,-54.7 -4.49,-19.66 -5.04,-39.36 -1.63,-59.52 3.79,-20.1 11.51,-39.74 23.53,-58.87 11.96,-19.28 28.27,-36.8 48.8,-52.52 4,-2.96 7.55,-5.25 10.71,-7.03 3.22,-1.63 5.95,-3.09 8.25,-4.23 2.75,-1.46 5.31,-2.86 7.79,-4.04l147.68 194.72c9.06,-8.27 16.48,-18.13 22.2,-29.92 5.76,-11.62 9.35,-23.78 11.19,-35.87 1.57,-12.36 0.91,-24.88 -2.03,-37.33 -2.9,-12.84 -7.94,-24.04 -15.34,-33.75 -6.41,-8.4 -13.33,-15.05 -20.86,-19.85 -7.53,-4.8 -14.96,-8.74 -22.28,-11.83 -7.43,-3.41 -14.43,-4.99 -21.14,-5.78 -6.67,-0.61 -12.57,-1.14 -17.73,-1.02l-36.88 -48.69zm-73.53 237.87c6.9,9.33 15.7,16.76 26.24,21.99 10.28,5.48 21.52,9.04 33.52,10.56 12.19,1.61 24.88,0.91 38.13,-1.76 13.27,-2.69 26.13,-7.58 39,-14.62l-112.91 -149.08c-22.22,21.86 -34.96,44.63 -38.79,68.88 -4,24.29 0.93,45.77 14.81,64.03zm-173.52 -437.94c15.11,-10.47 27.19,-22.45 36.27,-35.93 9.08,-13.46 15.21,-27.19 18.6,-41.05 3.53,-13.92 3.64,-27.95 1.18,-42.19 -2.75,-13.94 -8.02,-26.87 -16.06,-38.51 -8.04,-11.62 -18.24,-21.1 -30.3,-28.67 -12.38,-7.47 -25.41,-12.04 -39.7,-14.03 -14.26,-1.82 -29.39,-1.02 -45.18,2.71 -15.72,3.87 -31.13,10.86 -46.38,21.39 -15.13,10.5 -27.11,22.24 -36.08,35.51 -8.97,13.25 -15.05,27.13 -18.39,41.16 -3.32,14.03 -3.7,27.78 -1.27,41.86 2.56,14.01 7.83,26.94 16,38.89 8.04,11.64 18.24,21.1 30.45,28.63 12.34,7.3 25.58,11.98 39.65,13.86 14.24,1.82 29.35,0.85 44.97,-2.81 15.68,-3.49 31.11,-10.33 46.24,-20.8zm145.92 -91.41l23.89 34.62 -396.23 273.12 -32.48 -47.32 147.62 -101.85c-11.28,-1.04 -22.47,-3.89 -33.56,-8.57 -9.73,-3.89 -20.12,-9.71 -31.17,-17.46 -11.43,-7.79 -21.67,-18.49 -31.51,-32.76 -12.38,-18.05 -20.57,-37.52 -24.61,-58.57 -4.06,-21.03 -3.72,-42.32 0.93,-63.08 4.55,-20.53 13.16,-40.67 26.09,-59.74 12.72,-19.17 29.69,-35.85 50.89,-50.53 21.39,-14.75 43.42,-24.88 65.92,-29.96 22.28,-5.21 44.31,-6.35 65.26,-3.22 21.14,3.09 40.61,10.33 58.76,21.58 18.3,11.22 33.45,25.82 46.11,44.14 9.82,14.26 16.76,27.87 20.57,40.76 3.91,12.68 5.8,24.04 6.16,34.15 0.63,11.98 -0.3,23.04 -2.67,33.52l40.04 -8.85zm-424.31 -482.91c13.42,-1.65 27.17,-1.82 41.96,-0.53 14.56,1.16 28.59,4.51 42.09,9.99 13.52,5.48 26.32,13.16 38.55,22.83 12.29,9.84 23.36,22.43 32.67,37.75 11.51,18.71 18.94,38.62 21.88,60.03 2.98,21.05 1.82,42.07 -4,62.51 -5.46,20.48 -15.21,39.93 -29.12,58.23 -13.9,18.33 -31.93,34.47 -54.17,48.25 -21.99,13.52 -44.14,22.26 -66.8,26.32 -22.43,4.17 -44.08,4.3 -64.84,0.19 -20.91,-4.04 -40.01,-11.77 -57.41,-23.47 -17.42,-11.7 -31.59,-26.62 -42.41,-44.31 -11.02,-17.8 -17.99,-36.8 -20.86,-56.99 -2.43,-19.98 -1.06,-39.8 4.34,-59.38 5.57,-19.64 15.11,-38.64 28.84,-56.37 13.8,-18.09 31.74,-34.03 53.87,-47.59 4.17,-2.5 7.98,-4.49 11.26,-5.95 3.28,-1.48 6.12,-2.6 8.53,-3.43 3,-1.18 5.69,-2.29 8.21,-3.3l128.13 207.94c9.92,-7.28 18.33,-16.4 25.1,-27.66 6.9,-10.94 11.57,-22.56 14.64,-34.7 2.75,-12.04 3.17,-24.57 1.57,-37.28 -1.65,-12.91 -5.63,-24.65 -12.17,-35 -5.4,-9.1 -11.77,-16.27 -18.66,-21.84 -7.17,-5.29 -14.11,-9.95 -21.18,-13.84 -7.11,-4.04 -13.99,-6.39 -20.38,-7.81 -6.56,-1.38 -12.59,-2.22 -17.58,-2.69l-32.06 -51.93zm-96.03 229.68c5.99,9.82 13.99,18.05 23.83,24.4 9.92,6.52 20.57,11 32.4,13.63 12.1,2.92 24.67,3.51 38.15,2.01 13.48,-1.5 26.79,-5.1 40.27,-10.9l-98.04 -159.13c-24.25,19.49 -39.06,40.97 -45.35,64.79 -6.31,23.83 -3.43,45.64 8.74,65.2zm100.83 -402.9l27.59 50.38 -421.98 230.9 -27.53 -50.24 421.92 -231.05zm-77.05 -140.57l27.53 50.24 -301.62 165.14 -27.59 -50.38 301.69 -164.99zm-355.65 268.55c-9.37,5.14 -18.66,6.31 -28.04,3.55 -9.14,-2.65 -16.46,-8.42 -21.29,-17.37 -5.14,-9.4 -6.14,-18.73 -3.53,-28.04 2.58,-9.31 8.78,-16.42 18.01,-21.5 8.91,-4.97 18.2,-6.16 27.51,-3.55 9.56,2.88 16.57,8.76 21.71,18.13 4.97,8.89 6.09,18.03 3.32,27.38 -2.92,9.42 -8.74,16.59 -17.69,21.39zm100.3 -564.29c13.33,-0.36 27.19,0.87 41.77,3.66 14.3,2.52 27.91,7.24 40.95,13.97 12.87,6.77 24.82,15.64 36.1,26.73 11.22,10.92 20.99,24.46 28.78,40.67 9.69,19.68 14.88,40.33 15.89,61.87 0.89,21.22 -2.48,42.07 -10.14,61.87 -7.45,19.91 -19.19,38.22 -34.81,55.17 -15.53,16.7 -35.08,31.02 -58.61,42.55 -23.28,11.26 -46.19,17.75 -69.07,19.55 -22.83,1.97 -44.48,-0.04 -64.67,-6.14 -20.31,-6.05 -38.62,-15.64 -54.85,-29.18 -16.12,-13.2 -28.59,-29.43 -37.79,-48.2 -9.2,-18.77 -14.18,-38.26 -14.96,-58.61 -0.55,-20.25 2.71,-39.82 10.09,-58.81 7.55,-19.04 18.77,-36.82 34.24,-53.16 15.51,-16.72 35,-30.66 58.23,-42.09 4.44,-2.22 8.42,-3.75 11.85,-4.72 3.39,-1.14 6.33,-1.97 8.95,-2.67 2.9,-0.97 5.69,-1.74 8.34,-2.45l107.11 219.54c10.62,-6.28 19.66,-14.54 27.61,-24.93 7.81,-10.35 13.73,-21.5 17.88,-33.12 3.94,-11.72 5.65,-24.14 5.29,-36.93 -0.34,-13.16 -3.11,-25.14 -8.49,-36.23 -4.59,-9.4 -10.16,-17.37 -16.53,-23.47 -6.69,-5.99 -13.14,-11.34 -19.72,-15.93 -6.58,-4.59 -13.2,-7.74 -19.59,-9.71 -6.41,-1.97 -12.1,-3.45 -17.27,-4.38l-26.6 -54.87zm-118.41 219.12c5.1,10.31 12.27,19.36 21.5,26.47 9.16,7.49 19.49,13.14 31,16.95 11.57,4 24.04,5.88 37.58,5.61 13.65,0.06 27.17,-2.35 41.07,-6.88l-81.83 -167.99c-25.99,17.01 -42.89,37.07 -51.46,60.05 -8.51,23.13 -7.87,45.16 2.14,65.79zm-268.87 -437.83l369.46 -26.85 23.34 47.89 -248.74 274.43 -26.81 -54.95 191.74 -208.56 -282.13 23.17 -26.85 -55.12zm100.89 -427.66c13.59,0.42 27.3,2.24 41.6,5.84 14.26,3.45 27.55,8.82 40.1,16.23 12.7,7.36 24.02,16.99 34.85,28.4 10.54,11.51 19.62,25.67 26.6,42.13 8.46,20.27 12.84,41.2 12.55,62.64 -0.3,21.44 -4.66,41.94 -13.39,61.2 -8.46,19.53 -21.14,37.26 -37.62,53.24 -16.42,16.12 -36.59,29.2 -60.71,39.51 -23.87,10.03 -47.02,15.32 -69.89,16.06 -23.11,0.63 -44.39,-2.41 -64.39,-9.63 -19.98,-7.07 -37.69,-17.58 -53.11,-31.93 -15.53,-14.11 -27.15,-31 -35.38,-50.09 -8.13,-19.32 -12.08,-38.96 -11.83,-59.48 0.4,-20.04 4.78,-39.46 13.2,-58.09 8.4,-18.62 20.7,-35.85 36.97,-51.4 16.38,-15.74 36.52,-28.82 60.24,-38.81 4.55,-1.88 8.59,-3.26 12.17,-4.3 3.49,-0.8 6.45,-1.63 8.97,-2.12 3,-0.66 5.8,-1.42 8.63,-2.03l95.33 224.96c11,-5.69 20.53,-13.56 28.97,-23.59 8.36,-9.8 14.92,-20.63 19.66,-32.1 4.53,-11.55 6.83,-23.83 7.15,-36.65 0.28,-13.01 -1.86,-25.2 -6.75,-36.46 -4,-9.78 -9.08,-17.92 -15.17,-24.29 -6.33,-6.48 -12.53,-12.08 -18.83,-16.95 -6.35,-5.02 -12.87,-8.38 -19.04,-10.77 -6.35,-2.35 -12,-4.21 -16.91,-5.42l-23.95 -56.1zm-129.57 212.66c4.51,10.66 11.19,19.89 20.1,27.64 8.78,7.98 18.68,13.94 29.88,18.41 11.41,4.59 23.93,7.17 37.54,7.6 13.48,0.66 27.17,-0.74 41.28,-4.61l-72.98 -172.08c-26.79,15.7 -44.78,34.68 -54.53,57.32 -9.73,22.66 -10.24,44.52 -1.29,65.72zm113.7 -536.91l19.66 53.98 -323.04 117.67 -19.66 -53.96 323.04 -117.7zm-392.19 211.88c-9.86,3.68 -19.43,3.51 -28.21,-0.7 -8.55,-4.11 -14.92,-10.75 -18.35,-20.36 -3.75,-10.03 -3.34,-19.49 0.66,-28.36 4.04,-8.74 11.26,-14.94 21.2,-18.47 9.54,-3.58 18.79,-3.3 27.66,0.7 8.93,4.17 15.05,11.07 18.79,21.1 3.41,9.61 3.13,18.85 -1.08,27.61 -4.17,8.95 -11.07,15.05 -20.67,18.47zm-17.33 -351.9c-5.44,-17.71 -7.07,-35.27 -4.82,-52.52 2.48,-17.69 8,-34.26 16.8,-49.6 8.59,-15.45 20.72,-29.41 35.99,-41.56 15.43,-12.21 33.75,-21.63 54.85,-28.21l189.37 -58.93 16.86 54.21 -189.32 59.08c-13.63,4.23 -25.37,10.35 -35.27,18.18 -9.97,8.21 -17.77,16.95 -23.59,26.79 -5.65,9.82 -9.27,20.36 -10.45,31.15 -1.29,11.02 -0.3,21.99 3.03,32.88 8,25.79 22.85,44.29 44.54,55.42 21.58,10.83 46.19,12.02 74,3.53l189.47 -59.14 17.08 54.85 -328.39 102.29 -12.53 -40.25 32.14 -25.92c-9.59,-4.46 -18.47,-10.62 -26.98,-17.77 -7.98,-6.64 -15.91,-15.26 -23.85,-25.5 -7.68,-10.5 -14.01,-23.42 -18.92,-38.98zm-205.09 -407.19l-12.27 -48.03 88.62 -22.75 -18.9 -73.96 51.97 -13.42 18.92 74.1 173.86 -44.35c18.83,-4.74 31.97,-13.65 39.7,-26.3 7.85,-12.89 9.67,-27.66 5.42,-44.52 -1.25,-4.76 -2.88,-9.06 -4.89,-12.87 -0.97,-1.82 -2.09,-3.6 -3.51,-4.55l48.06 -12.27c2.09,1.97 3.98,4.38 5.71,6.86 4,5.99 7.47,14.14 10.09,24.57 3.22,12.72 3.58,25.5 0.99,38.55 -2.41,13.01 -7.15,25.01 -14.62,36.33 -7.26,11.41 -17.16,21.39 -29.16,29.92 -12.13,8.76 -26.6,15.26 -43.61,19.57l-173.83 44.35 15.15 59.25 -51.99 13.27 -6.6 -25.92c-7.09,-27.38 -24.23,-37.2 -50.89,-30.17l-48.2 12.34zm-0.59 -400.57c-3.62,-18.16 -3.26,-35.66 0.83,-52.82 4.17,-17.37 11.36,-33.24 21.73,-47.7 10.2,-14.37 23.64,-27.17 40.14,-37.75 16.57,-10.43 35.72,-17.99 57.35,-22.41l194.55 -38.81 11.28 56.27 -194.49 38.96c-14.11,2.79 -26.34,7.47 -36.97,14.28 -10.77,6.86 -19.38,14.79 -26.34,23.95 -6.62,9.04 -11.3,19.07 -13.73,29.92 -2.22,10.96 -2.5,21.82 -0.36,32.93 5.37,26.54 18.18,46.41 38.43,59.65 20.48,13.35 44.88,17.12 73.45,11.43l194.49 -38.96 11.34 56.41 -471.82 94.42 -11.3 -56.27 176.03 -35.23c-9.9,-5.44 -19.17,-12.17 -27.32,-20.36 -7.39,-7.55 -14.62,-16.76 -21.71,-27.64 -7.24,-10.83 -12.34,-24.36 -15.57,-40.29zm163.95 -555.3c12.97,3.87 25.84,9.04 38.91,15.91 12.93,6.92 24.57,15.36 34.85,25.69 10.31,10.35 19.07,22.45 26.58,36.23 7.53,13.78 12.53,29.67 15.34,47.55 3.2,21.69 2.16,43.02 -3.41,63.71 -5.46,20.5 -14.9,39.3 -28.1,55.95 -13.14,16.8 -29.75,30.83 -49.58,42.19 -20,11.43 -42.81,19.3 -68.73,23.21 -25.63,3.81 -49.3,3.2 -71.84,-1.93 -22.32,-5.02 -42.34,-13.31 -59.78,-25.18 -17.63,-11.81 -32.25,-26.41 -43.59,-44.1 -11.47,-17.48 -18.68,-36.73 -21.71,-57.41 -3.2,-20.61 -2.09,-40.71 3.09,-60.39 5.46,-19.43 14.52,-37.18 27.25,-53.13 12.93,-15.85 28.95,-29.5 48.67,-40.65 19.72,-11.13 42.49,-18.64 68.03,-22.6 4.78,-0.72 9.14,-1.12 12.74,-1.08 3.6,0.04 6.67,0.08 9.18,0.13 3.22,-0.02 6.14,0.08 8.87,0.23l36.57 241.57c11.96,-2.79 23.28,-8.04 34.01,-15.62 10.54,-7.49 19.38,-16.4 26.81,-26.26 7.36,-10.03 12.7,-21.33 16.04,-33.75 3.66,-12.53 4.53,-24.84 2.75,-36.97 -1.54,-10.41 -4.63,-19.59 -8.87,-27.32 -4.42,-7.83 -9.14,-14.83 -13.94,-21.12 -5.02,-6.37 -10.31,-11.38 -15.68,-15.13 -5.61,-3.85 -10.77,-6.94 -15.19,-9.4l-9.27 -60.35zm-178.17 173.83c1.71,11.45 5.84,22.07 12.55,31.83 6.37,9.86 14.56,18.2 24.48,25.27 9.8,7.26 21.33,12.7 34.28,16.57 12.87,4.08 26.62,6.07 41.24,5.8l-27.97 -184.75c-29.94,8.49 -51.91,22.56 -67.04,42 -15.13,19.45 -21.05,40.65 -17.54,63.29zm-64.18 -549.07l7.6 76.14 288.67 -28.78 5.69 56.71 -288.82 28.84 4.3 41.94 -53.43 5.31 -4.3 -41.94 -26.39 2.62c-17.33,1.74 -33.07,0.78 -47.72,-3.24 -14.56,-3.87 -27.06,-10.05 -37.9,-18.24 -10.66,-8.23 -19.3,-17.86 -26.05,-29.39 -6.81,-11.15 -10.9,-23.21 -12.29,-36.38 -0.51,-5.76 -0.57,-10.75 -0.21,-14.98 0.3,-4.42 0.83,-8.17 1.5,-11.45 1.12,-3.07 2.07,-6.09 2.88,-8.51l49.41 -5.04c-0.38,1.57 -0.63,3.45 -0.99,5.54 -0.28,1.35 -0.59,3.6 -0.78,6.18 -0.38,2.65 -0.42,5.16 -0.15,7.58 1.74,17.35 8.57,30.64 20.21,40.16 11.7,9.14 27.13,12.91 46.57,11l26.37 -2.65 -7.62 -76.14 53.45 -5.31zm277.14 -227.01c0.83,18.39 -2.12,35.7 -8.61,52.06 -6.5,16.36 -16.04,31.06 -28.57,43.89 -12.46,12.99 -27.64,23.32 -45.6,31.19 -17.9,8.02 -37.88,12.61 -59.63,13.5l-198.53 9.46 -2.71 -57.37 198.53 -9.46c14.35,-0.55 27.02,-3.39 38.45,-8.32 11.47,-4.78 21.29,-11.32 29.37,-19.26 8.06,-7.91 14.11,-17.14 18.26,-27.68 4.04,-10.33 5.88,-21.35 5.35,-33.01 -1.29,-27.17 -10.94,-48.84 -28.95,-65.01 -18.01,-16.15 -41.73,-23.74 -70.68,-22.39l-198.55 9.48 -2.69 -56.84 343.46 -16.27 2.05 41.62 -37.43 17.12c8.72,6.75 16.02,15.05 22.39,24.36 6.26,8.46 11.47,18.56 16.19,30.41 4.34,11.81 7.13,25.92 7.89,42.51zm-453.92 -289.62l0.06 -49.71 91.67 0.08 0.02 -76.41 53.62 0 -0.04 76.41 179.4 0.21c19.34,-0.08 34.41,-5.35 45.07,-15.76 10.64,-10.41 16.12,-24.44 16.23,-41.69 -0.08,-4.99 -0.53,-9.5 -1.63,-13.8 -0.49,-1.99 -1.14,-3.94 -2.12,-5.21l49.49 -0.04c1.5,2.37 2.71,5.37 3.85,8.21 2.26,6.75 3.6,15.47 3.64,26.2 -0.06,13.12 -2.86,25.54 -8.44,37.64 -5.65,11.96 -13.25,22.41 -23.42,31.57 -9.8,9.23 -21.86,16.53 -35.7,21.73 -13.94,5.44 -29.52,8.19 -46.91,8.15l-179.55 -0.17 0.02 61.15 -53.62 -0.02 -0.11 -26.85c0,-28.16 -13.97,-41.92 -41.69,-41.69l-49.85 -0.02zm439.38 -340.24c-0.08,18.33 -3.79,35.53 -11.09,51.61 -7.34,15.93 -17.54,30.32 -30.66,42.47 -13.01,12.46 -28.61,22.03 -47.06,28.97 -18.2,7.22 -38.32,10.79 -60.03,10.77l-198.89 -0.08 0.15 -57.43 198.74 0.13c14.28,-0.15 27.02,-2.31 38.66,-6.58 11.79,-4.36 21.82,-10.24 30.32,-17.97 8.46,-7.34 14.94,-16.34 19.51,-26.66 4.63,-10.18 6.9,-20.99 7.07,-32.69 -0.04,-27.25 -8.72,-49.24 -25.77,-66.25 -17.42,-17.08 -40.61,-25.73 -69.66,-25.79l-198.91 -0.08 0.17 -56.9 343.77 0.13 -0.04 41.79 -38.09 15.19c8.36,7.22 15.38,15.79 21.33,25.44 5.78,8.63 10.54,19.02 14.62,31.11 3.91,12.13 5.84,26.37 5.86,42.85zm-276.82 -433.73l-0.74 15.32c-1.29,26.98 6.26,49.35 22.49,67.18 16.57,17.71 39.17,27.3 68.35,28.74l194.57 9.61 -2.88 57.28 -343.54 -16.86 2.09 -42.13 39.06 -13.37c-7.34,-7.39 -13.75,-16.34 -19.17,-25.99 -5.14,-8.85 -9.86,-19.62 -13.5,-32.02 -3.7,-12.55 -5.27,-26.73 -4.53,-43.13l0.51 -7.51 57.28 2.88zm229.51 -333.55c11.64,6.83 22.83,15.07 33.79,25.18 10.77,9.63 19.95,20.86 27.42,33.41 7.45,12.55 12.82,26.32 16.91,41.62 3.72,15.24 4.87,31.89 3,49.73 -2.12,21.88 -8.55,42.17 -19.07,60.96 -10.39,18.56 -24.04,34.47 -41.01,47.38 -16.99,12.91 -36.57,22.39 -58.68,28.59 -22.11,6.22 -46.07,8.02 -72.24,5.4 -25.58,-2.5 -48.58,-9.06 -69,-19.57 -20.5,-10.28 -37.79,-23.28 -51.78,-39.17 -14.14,-15.85 -24.63,-33.65 -31.36,-53.6 -6.69,-19.81 -8.87,-40.06 -6.96,-60.96 2.14,-20.8 8.23,-39.89 18.16,-57.77 10.09,-17.39 23.19,-32.21 39.42,-44.69 16.51,-12.21 35.42,-21.46 57.15,-27.19 22.01,-5.99 45.81,-7.74 71.61,-5.16 4.85,0.51 9.04,1.25 12.53,2.05 3.55,0.95 6.5,1.74 9.08,2.48 2.96,0.8 5.76,1.65 8.34,2.39l-24.08 243.05c12.25,0.15 24.44,-1.99 36.61,-6.81 12.08,-4.61 23,-11 32.59,-18.73 9.54,-7.87 17.56,-17.56 23.87,-28.67 6.56,-11.36 10.47,-23.09 11.79,-35.17 0.93,-10.54 0.4,-20.04 -1.84,-28.8 -2.35,-8.53 -5.23,-16.53 -8.42,-23.87 -3.03,-7.41 -7.03,-13.42 -11.45,-18.54 -4.38,-4.99 -8.53,-9.33 -12.42,-12.84l6.05 -60.69zm-215.71 124.3c-1.12,11.51 0.42,23 4.27,33.88 3.96,11.22 9.69,21.31 17.52,30.66 7.83,9.37 17.58,17.56 29.12,24.61 11.53,7.05 24.44,12.38 38.68,15.81l18.41 -186.06c-30.89,0.91 -55.78,8.97 -75.23,24.14 -19.45,15.17 -30.45,34.13 -32.78,56.96zm174.09 -424.42l-133.14 65.05 8.49 -56.65 133.14 -65.05 108.6 101.23 -8.49 56.65 -108.6 -101.23zm-20.95 139.79l-133.14 65.03 8.55 -56.5 133.08 -65.2 108.66 101.38 -8.55 56.5 -108.6 -101.21z"/>
  </g>
 </g>
</svg>
