<?xml version="1.0" encoding="UTF-8"?>
<!DOCTYPE svg PUBLIC "-//W3C//DTD SVG 1.1//EN" "http://www.w3.org/Graphics/SVG/1.1/DTD/svg11.dtd">
<!-- Creator: CorelDRAW 2019 (64-Bit) -->
<svg xmlns="http://www.w3.org/2000/svg" xml:space="preserve" width="164.621mm" height="61.4143mm" version="1.1" style="shape-rendering:geometricPrecision; text-rendering:geometricPrecision; image-rendering:optimizeQuality; fill-rule:evenodd; clip-rule:evenodd"
viewBox="0 0 15951.13 5950.81"
 xmlns:xlink="http://www.w3.org/1999/xlink">
 <defs>
  <style type="text/css">
   <![CDATA[
    .fil1 {fill:#4C599F;fill-rule:nonzero}
    .fil0 {fill:#BF526A;fill-rule:nonzero}
   ]]>
  </style>
 </defs>
 <g id="Слой_x0020_1">
  <metadata id="CorelCorpID_0Corel-Layer"/>
  <g id="_2236654563616">
   <path class="fil0" d="M3004.86 912.2c3.18,13.54 4.78,26.27 4.78,36.62 0,45.38 -27.87,75.62 -83.58,90.74 -3.19,1.59 -56.52,10.35 -160.79,25.47 -274.61,39 -557.19,70.84 -846.93,95.52 -122.58,262.68 -273.02,689.32 -451.32,1279.16 -164.77,538.08 -285.77,987.82 -362.97,1349.2 -26.27,117 -65.27,175.11 -116.22,175.11 -32.63,0 -98.7,-17.51 -198.2,-51.73 -35.82,-10.35 -54.92,-31.84 -58.11,-62.89 3.19,31.05 4.78,-15.92 4.78,-142.49 0,-229.25 36.62,-437.8 109.05,-626.44 27.87,-70.05 58.9,-105.06 93.14,-105.06 9.55,0 27.86,3.18 54.92,10.35 27.06,7.16 49.35,11.94 66.06,13.53 42.19,-158.4 140.9,-472.02 297.7,-940.06 176.71,-528.54 273.02,-819.07 288.94,-870.02 -240.39,18.3 -479.98,55.72 -719.57,112.23 -265.86,65.27 -440.19,134.52 -522.97,206.96 -93.13,84.37 -140.09,167.16 -140.09,249.93 0,88.36 51.73,226.86 155.22,414.72 11.14,20.7 16.71,39 16.71,56.51 0,39.01 -18.31,58.11 -54.13,58.11 -24.68,0 -46.97,-15.13 -67.66,-44.57 -122.58,-175.12 -202.98,-312.03 -240.39,-409.94 -26.27,-68.45 -45.37,-167.16 -56.51,-296.9 -16.71,-189.45 139.3,-329.54 468.83,-419.49 429.04,-117 861.26,-194.22 1298.26,-233.22 49.35,-98.71 85.97,-148.06 109.05,-148.06 35.82,0 96.31,38.21 182.28,114.63 40.6,0 165.57,-15.92 374.91,-46.97 37.41,-5.57 75.62,-33.43 114.63,-81.19 34.22,-45.38 115.41,-70.84 244.36,-77.22 70.05,-3.18 118.6,23.09 144.87,78.81 4.78,7.96 21.49,70.84 50.95,188.65z"/>
   <path id="1" class="fil0" d="M3659.16 3223.76c-378.88,483.96 -644.75,725.95 -799.17,725.95 -73.22,0 -165.57,-50.95 -277.8,-152.04 -117.01,-54.92 -175.11,-128.15 -175.11,-219.69 0,-17.51 1.59,-35.02 4.77,-54.13 27.87,-213.33 85.17,-449.73 171.94,-708.43 -57.31,-29.46 -85.97,-58.11 -85.97,-84.38 0,-21.49 15.92,-32.63 48.55,-32.63 25.46,0 50.94,7.16 77.21,21.49 137.71,-309.64 261.88,-530.13 371.72,-660.67 71.65,-86.77 135.33,-129.75 192.63,-129.75 26.27,0 91.55,22.29 195.82,67.66 -7.96,-46.97 5.57,-74.03 39.8,-81.98 1.6,0 38.22,0 109.85,0 67.66,0 101.09,11.94 101.09,35.02 0,4.78 -2.39,17.51 -7.16,39.8 -4.78,21.49 -7.17,42.18 -7.17,60.49 0,55.72 0.79,124.97 2.39,207.76 1.59,81.98 2.38,137.7 2.38,165.57 0,192.63 -52.54,327.15 -158.41,403.56 -96.31,70.05 -205.36,105.07 -326.35,105.07 -63.68,0 -168.75,-17.52 -316.81,-51.74 -26.27,47.76 -55.72,141.68 -88.35,281.78 -43.78,176.71 -63.68,333.52 -60.49,470.42 1.59,80.39 27.06,120.99 77.21,120.99 18.3,0 42.19,-4.78 72.43,-14.33 179.9,-62.88 431.43,-257.1 753.01,-581.07 20.7,-19.9 40.6,-30.25 60.49,-30.25 29.46,0 44.58,14.33 44.58,42.19 0,16.71 -7.96,35.03 -23.09,53.33zm-273.02 -1031.61c0,-60.49 -13.53,-90.74 -39.8,-90.74 -16.71,0 -42.19,12.74 -74.82,37.41 -152.82,122.58 -286.55,338.3 -401.97,645.55 31.05,4.78 85.17,9.55 163.17,14.33 125.77,4.78 219.69,-23.88 281.78,-85.97 46.17,-46.97 71.64,-124.18 76.41,-230.85 -3.18,78.81 -4.78,-17.51 -4.78,-289.74z"/>
   <path id="2" class="fil0" d="M5918.18 4139.14c-144.87,223.68 -261.88,335.91 -350.23,335.91 -109.06,0 -265.07,-146.47 -468.05,-438.59 -202.98,-292.93 -377.29,-620.87 -521.37,-984.64 -185.47,229.25 -313.62,497.49 -385.26,804.74 -17.51,68.46 -37.41,102.68 -60.49,102.68 -9.55,0 -27.87,-5.57 -56.52,-16.71 -128.95,-55.72 -193.42,-112.23 -193.42,-169.54 0,-7.96 9.55,-60.5 27.86,-156.82 179.1,-987.82 412.32,-1831.57 700.47,-2531.24 214.92,-522.97 408.34,-863.66 581.07,-1022.05 43.79,-42.19 86.77,-62.89 128.96,-62.89 42.98,0 99.49,25.47 167.95,77.21 77.21,63.68 155.22,128.15 233.22,191.84 21.49,15.92 32.64,33.43 32.64,51.74 0,27.86 -17.52,42.19 -53.33,42.19 -17.52,0 -34.23,-4.78 -51.74,-13.54 -71.64,-35.82 -124.97,-53.33 -160.79,-53.33 -97.9,0 -205.36,94.73 -321.58,284.17 -418.69,682.17 -719.58,1571.29 -902.66,2668.16 37.41,-76.42 121.79,-221.29 254.72,-436.21 -16.71,-54.13 -25.47,-86.76 -25.47,-95.52 0,-37.41 52.54,-66.06 157.6,-86.76 210.15,-308.04 382.08,-515 516.6,-620.87 47.76,-37.41 85.17,-55.72 111.44,-55.72 26.27,0 74.82,38.21 145.66,114.62 111.44,44.57 167.16,100.3 167.16,167.16 0,22.3 -3.18,50.15 -9.55,84.38 -29.45,128.95 -70.84,241.98 -125.76,339.89 -27.86,51.73 -57.31,77.21 -88.36,77.21 -21.49,0 -55.72,-8.76 -101.89,-25.47 -88.35,-31.05 -132.92,-63.68 -132.92,-96.31 0,-19.89 14.32,-35.81 42.18,-46.96 64.47,-55.72 105.07,-166.37 120.2,-331.93 3.18,-39.01 -7.16,-58.11 -30.25,-58.11 -13.53,0 -31.84,8.75 -54.92,25.46 -170.34,124.98 -316.01,306.46 -437.8,543.67 236.41,732.31 506.25,1190.8 807.93,1375.47 37.41,21.49 75.62,32.63 114.63,32.63 55.72,0 98.7,-16.71 128.15,-50.14 29.46,-33.44 56.52,-50.15 79.6,-50.15 21.49,0 32.63,11.94 32.63,35.03 0,14.32 -6.37,30.24 -18.3,49.35z"/>
   <path id="3" class="fil0" d="M7554.72 269.84c19.9,15.92 30.25,31.84 30.25,48.55 0,29.46 -17.51,44.58 -53.33,44.58 -15.92,0 -31.84,-4.78 -49.35,-13.54 -71.65,-35.82 -124.98,-53.33 -160.79,-53.33 -97.91,0 -205.37,94.73 -322.37,284.17 -422.67,688.53 -723.56,1577.65 -902.66,2668.16 -4.78,30.24 -12.73,69.25 -23.08,119.4 35.81,-37.41 88.35,-97.9 158.4,-181.49 40.6,-48.55 70.05,-72.44 89.15,-72.44 40.59,0 42.98,23.88 8.76,72.44 -148.85,212.53 -248.35,434.61 -296.11,667.84 -17.51,57.3 -39,85.97 -65.27,85.97 -12.73,0 -29.45,-7.17 -49.35,-20.7 -79.6,-53.33 -124.98,-84.38 -135.32,-93.13 -31.05,-31.05 -46.97,-71.65 -46.97,-121.79 0,-24.68 3.98,-54.92 11.94,-90.74 179.9,-989.42 413.12,-1832.36 697.28,-2528.06 214.92,-525.35 406.75,-865.24 576.3,-1020.46 46.97,-43.78 93.92,-64.47 140.09,-62.89 42.19,1.6 97.11,27.87 163.98,78.81 75.62,62.09 152.03,124.97 228.44,188.65z"/>
   <path id="4" class="fil0" d="M8311.71 2273.35c-216.5,996.58 -419.48,1741.62 -608.93,2235.93 -366.95,960.76 -788.82,1441.53 -1264.82,1441.53 -278.6,0 -577.89,-151.24 -897.87,-452.91 -27.87,-26.27 -42.19,-54.13 -42.19,-83.58 0,-46.97 21.49,-70.05 65.27,-70.05 21.49,0 42.98,8.76 62.89,25.47 253.92,215.71 479.98,323.17 678.97,323.17 365.37,0 697.29,-304.86 995.78,-913.79 234.82,-477.6 439.39,-1117.57 613.71,-1921.52 11.14,-57.31 28.65,-145.67 53.33,-263.48 -163.17,265.86 -345.46,526.95 -547.64,784.85 -195.02,249.15 -347.85,419.48 -460.08,512.62 -62.09,51.73 -111.44,77.21 -148.85,77.21 -29.46,0 -60.49,-16.71 -91.54,-49.35 -32.63,-41.39 -66.06,-82.79 -100.3,-123.38 -15.13,-18.31 -23.08,-35.82 -23.08,-51.74 0,-0.79 0,-2.38 0,-3.98 3.18,-19.1 16.71,-31.83 42.19,-39.8 74.03,-101.09 144.07,-319.99 209.34,-655.89 49.35,-265.07 83.57,-515.81 101.89,-753.8 3.18,-56.52 -3.98,-84.38 -20.7,-84.38 -4.78,0 -41.39,28.65 -109.05,85.17 -108.26,93.13 -167.17,139.3 -176.71,139.3 -21.49,0 -32.63,-11.14 -32.63,-32.63 0,-11.14 4.77,-22.29 14.32,-32.63 26.27,-33.43 84.38,-115.42 175.92,-245.96 81.98,-117.01 136.91,-175.92 164.77,-175.92 21.49,0 50.94,9.55 88.35,28.65 78.81,-12.73 122.58,-19.1 132.14,-19.1 52.54,0 78.81,40.59 78.81,120.98 0,135.33 -39.01,400.38 -116.22,794.4 -77.21,394.8 -140.09,649.52 -189.44,764.14 155.22,-122.57 358.2,-363.77 607.34,-722.76 242.77,-350.23 394.02,-613.7 452.92,-791.21 3.18,-104.28 25.46,-156.01 67.65,-156.01 32.63,0 93.93,33.43 182.28,100.29 50.15,37.41 63.68,107.46 42.19,210.15z"/>
   <path class="fil1" d="M8949.91 3036.28l0 214.59 100.99 0 0 143.45 -100.99 0 0 286.89 100.99 0 0 143.45 -192.79 0c-15.3,0 -28.69,-5.54 -40.16,-16.64 -11.47,-11.09 -17.21,-24.29 -17.21,-39.59l0 -374.11 -71.15 0 0 -143.45 71.15 0 0 -214.59 149.18 0z"/>
   <path id="1" class="fil1" d="M9165.65 3308.25c0,-16.07 5.55,-29.64 16.64,-40.74 11.09,-11.09 24.68,-16.65 40.74,-16.65l464.75 0c15.3,0 28.5,5.55 39.59,16.65 11.09,11.09 16.64,24.67 16.64,40.74l0 244.43c0,15.3 -5.54,28.69 -16.64,40.16 -11.09,11.47 -24.67,17.21 -40.74,17.21l-372.95 0 0 71.15 430.33 0 0 143.45 -520.98 0c-16.07,0 -29.65,-5.54 -40.74,-16.64 -11.08,-11.09 -16.64,-24.68 -16.64,-40.74l0 -459.02zm148.04 86.06l0 72.3 282.3 0 0 -72.3 -282.3 0z"/>
   <path id="2" class="fil1" d="M9881.72 3308.25c0,-16.07 5.55,-29.64 16.64,-40.74 11.09,-11.09 24.68,-16.65 40.74,-16.65l463.61 0c16.07,0 29.64,5.55 40.74,16.65 11.09,11.09 16.64,24.67 16.64,40.74l0 121.64 -148.03 0 0 -35.58 -282.3 0 0 286.89 282.3 0 0 -35.57 148.03 0 0 121.63c0,16.07 -5.54,29.65 -16.64,40.74 -11.09,11.09 -24.67,16.64 -40.74,16.64l-463.61 0c-16.07,0 -29.65,-5.54 -40.74,-16.64 -11.08,-11.09 -16.64,-24.68 -16.64,-40.74l0 -459.02z"/>
   <path id="3" class="fil1" d="M10745.84 3824.65l-148.04 0 0 -788.37 148.04 0 0 271.97c0,-15.3 5.74,-28.69 17.21,-40.16 11.48,-11.47 24.86,-17.22 40.16,-17.22l267.39 0c16.07,0 29.64,5.75 40.74,17.22 11.09,11.47 16.64,24.86 16.64,40.16l0 516.4 -148.03 0 0 -430.34 -176.73 0c-15.3,0 -28.68,5.55 -40.16,16.65 -11.47,11.08 -17.21,24.67 -17.21,40.74l0 372.95z"/>
   <path id="4" class="fil1" d="M11413.71 3824.65l-148.04 0 0 -573.78 148.04 0 0 57.38c0,-15.3 5.74,-28.69 17.21,-40.16 11.48,-11.47 24.86,-17.22 40.16,-17.22l267.39 0c16.07,0 29.64,5.75 40.74,17.22 11.09,11.47 16.64,24.86 16.64,40.16l0 516.4 -148.03 0 0 -430.34 -176.73 0c-15.3,0 -28.68,5.55 -40.16,16.65 -11.47,11.08 -17.21,24.67 -17.21,40.74l0 372.95z"/>
   <path id="5" class="fil1" d="M12363.89 3394.31l-282.3 0 0 286.89 282.3 0 0 -286.89zm148.03 372.95c0,16.07 -5.54,29.65 -16.64,40.74 -11.09,11.09 -24.67,16.64 -40.74,16.64l-463.61 0c-16.07,0 -29.65,-5.54 -40.74,-16.64 -11.08,-11.09 -16.64,-24.68 -16.64,-40.74l0 -457.87c0,-16.07 5.55,-29.83 16.64,-41.31 11.09,-11.47 24.68,-17.22 40.74,-17.22l463.61 0c16.07,0 29.64,5.75 40.74,17.22 11.09,11.47 16.64,24.86 16.64,40.16l0 459.02z"/>
   <path id="6" class="fil1" d="M12797.66 3036.28l0 644.92 51.64 0 0 143.45 -142.29 0c-16.07,0 -29.65,-5.54 -40.74,-16.64 -11.08,-11.09 -16.64,-24.29 -16.64,-39.59l0 -732.14 148.04 0z"/>
   <path id="7" class="fil1" d="M13417.34 3394.31l-282.3 0 0 286.89 282.3 0 0 -286.89zm148.03 372.95c0,16.07 -5.54,29.65 -16.64,40.74 -11.09,11.09 -24.67,16.64 -40.74,16.64l-463.61 0c-16.07,0 -29.65,-5.54 -40.74,-16.64 -11.08,-11.09 -16.64,-24.68 -16.64,-40.74l0 -457.87c0,-16.07 5.55,-29.83 16.64,-41.31 11.09,-11.47 24.68,-17.22 40.74,-17.22l463.61 0c16.07,0 29.64,5.75 40.74,17.22 11.09,11.47 16.64,24.86 16.64,40.16l0 459.02z"/>
   <path id="8" class="fil1" d="M14026.69 3681.2c16.07,0 29.83,-5.74 41.31,-17.21 11.48,-11.48 17.22,-24.86 17.22,-40.16l0 -229.52 -234.1 0 0 286.89 175.58 0zm-268.53 358.04c-15.3,0 -28.3,-5.55 -39.02,-16.65 -10.71,-11.08 -16.07,-24.67 -16.07,-40.74l0 -121.64 148.04 0 0 35.58 234.1 0 0 -128.53c0,15.31 -5.74,28.69 -17.22,40.17 -11.47,11.47 -24.86,17.21 -40.16,17.21l-267.38 0c-16.07,0 -29.65,-5.74 -40.74,-17.21 -11.08,-11.48 -16.64,-24.86 -16.64,-40.17l0 -459.02c0,-15.3 5.55,-28.69 16.64,-40.16 11.09,-11.47 24.68,-17.22 40.74,-17.22l267.38 0c15.3,0 28.69,5.55 40.16,16.65 11.48,11.09 17.22,24.67 17.22,40.74l0 -57.38 148.03 0 0 730.99c0,16.07 -5.74,29.65 -17.21,40.74 -11.47,11.09 -24.86,16.65 -40.16,16.65l-417.71 0z"/>
   <path id="9" class="fil1" d="M14370.95 3050.05c0,-9.18 4.59,-13.77 13.77,-13.77l120.5 0c9.18,0 13.77,4.59 13.77,13.77l0 115.91c0,9.18 -4.59,13.77 -13.77,13.77l-120.5 0c-9.18,0 -13.77,-4.59 -13.77,-13.77l0 -115.91zm148.04 774.6l-148.04 0 0 -573.78 148.04 0 0 573.78z"/>
   <path id="10" class="fil1" d="M14656.69 3308.25c0,-16.07 5.55,-29.64 16.64,-40.74 11.09,-11.09 24.68,-16.65 40.74,-16.65l464.75 0c15.3,0 28.5,5.55 39.59,16.65 11.09,11.09 16.64,24.67 16.64,40.74l0 244.43c0,15.3 -5.54,28.69 -16.64,40.16 -11.09,11.47 -24.67,17.21 -40.74,17.21l-372.95 0 0 71.15 430.33 0 0 143.45 -520.98 0c-16.07,0 -29.65,-5.54 -40.74,-16.64 -11.08,-11.09 -16.64,-24.68 -16.64,-40.74l0 -459.02zm148.04 86.06l0 72.3 282.3 0 0 -72.3 -282.3 0z"/>
   <path id="11" class="fil1" d="M15430.15 3824.65c-16.07,0 -29.65,-5.54 -40.74,-16.64 -11.08,-11.09 -16.64,-24.68 -16.64,-40.74l0 -121.63 148.04 0 0 35.57 282.3 0 0 -71.15 -372.95 0c-16.07,0 -29.65,-5.74 -40.74,-17.21 -11.08,-11.47 -16.64,-24.86 -16.64,-40.16l0 -244.43c0,-15.3 5.55,-28.69 16.64,-40.16 11.09,-11.47 24.68,-17.22 40.74,-17.22l90.66 0 372.95 0c16.07,0 29.64,5.75 40.74,17.22 11.09,11.47 16.64,24.86 16.64,40.16l0 122.79 -148.03 0 0 -36.72 -282.3 0 0 72.3 372.95 0c16.07,0 29.64,5.54 40.74,16.64 11.09,11.09 16.64,24.29 16.64,39.59l0 245.57c0,15.3 -5.54,28.5 -16.64,39.59 -11.09,11.09 -24.67,16.64 -40.74,16.64l-463.61 0z"/>
  </g>
 </g>
</svg>
